<svg xmlns="http://www.w3.org/2000/svg" viewBox="0 0 1920 1080" width="1920" height="1080">
<rect x="0" y="0" width="1920" height="1080" fill="#1C1B1A"/>
<path d="M636 880H744M690 826V934" fill="none" stroke="#282726" stroke-width="1"/>
<circle cx="690" cy="880" r="40" fill="none" stroke="#282726" stroke-width="1"/>
<path d="M1206 273H1314M1260 219V327" fill="none" stroke="#282726" stroke-width="1"/>
<circle cx="1260" cy="273" r="40" fill="none" stroke="#282726" stroke-width="1"/>
<path d="M628 880H538M669 356H538M552 263V192M923 263V192" fill="none" stroke="#343331" stroke-width="1"/>
<path d="M530 880L530 356M525 885L535 875M525 361L535 351M552 200L923 200M547 205L557 195M918 205L928 195" fill="none" stroke="#403E3C" stroke-width="1.2" stroke-linecap="round"/>
<path d="M749 874h2v2h-2zM747 876h4v2h-4zM749 878h2v2h-2zM749 880h2v2h-2zM749 882h2v2h-2zM747 884h6v2h-6z" fill="#575653"/>
<path d="M755 670h8v2h-8zM755 672h2v2h-2zM755 674h6v2h-6zM761 676h2v2h-2zM761 678h2v2h-2zM755 680h6v2h-6z" fill="#575653"/>
<path d="M551 379h4v2h-4zM549 381h2v2h-2zM555 381h2v2h-2zM549 383h2v2h-2zM555 383h2v2h-2zM551 385h6v2h-6zM555 387h2v2h-2zM551 389h4v2h-4z" fill="#575653"/>
<path d="M917 391h2v2h-2zM915 393h4v2h-4zM917 395h2v2h-2zM917 397h2v2h-2zM917 399h2v2h-2zM915 401h6v2h-6zM923 391h8v2h-8zM923 393h2v2h-2zM923 395h6v2h-6zM929 397h2v2h-2zM929 399h2v2h-2zM923 401h6v2h-6z" fill="#575653"/>
<path d="M484 304h4v2h-4zM482 306h2v2h-2zM488 306h2v2h-2zM488 308h2v2h-2zM484 310h4v2h-4zM482 312h2v2h-2zM482 314h8v2h-8zM496 304h2v2h-2zM494 306h4v2h-4zM496 308h2v2h-2zM496 310h2v2h-2zM496 312h2v2h-2zM494 314h6v2h-6z" fill="#575653"/>
<path d="M634 215h4v2h-4zM632 217h2v2h-2zM638 217h2v2h-2zM638 219h2v2h-2zM634 221h4v2h-4zM632 223h2v2h-2zM632 225h8v2h-8zM644 215h4v2h-4zM642 217h2v2h-2zM648 217h2v2h-2zM644 219h4v2h-4zM642 221h2v2h-2zM648 221h2v2h-2zM642 223h2v2h-2zM648 223h2v2h-2zM644 225h4v2h-4z" fill="#575653"/>
<path d="M848 270h4v2h-4zM846 272h2v2h-2zM852 272h2v2h-2zM850 274h2v2h-2zM852 276h2v2h-2zM846 278h2v2h-2zM852 278h2v2h-2zM848 280h4v2h-4zM858 270h4v2h-4zM856 272h2v2h-2zM862 272h2v2h-2zM856 274h2v2h-2zM860 274h4v2h-4zM856 276h4v2h-4zM862 276h2v2h-2zM856 278h2v2h-2zM862 278h2v2h-2zM858 280h4v2h-4z" fill="#575653"/>
<path d="M700 880L736 880M710 676L746 676M604 385L568 385M923 351L923 383M542 310L506 310M642 263L642 235M856 318L856 290" fill="none" stroke="#403E3C" stroke-width="1"/>
<path d="M690 870L690 862M690 842L690 834M690.5 814L692.5 772M693.8 752L699.2 686M698.9 666.1L691.1 596.9M686.1 577.8L659.9 515.2M652.4 496.7L632.6 445.3M626.2 426.4L616.8 394.6M623.3 381.2L675.7 359.8M695 356.8L786 364.2M804.9 360.4L820.1 352.6M822.7 340.3L817.3 333.7M821 326.5L856 328.5M875.8 331.1L913.2 338.9M914.2 336.2L907.8 332.8M889.1 326.6L808.9 315.4M789.4 311L753.6 300M734.3 294.6L701.7 286.4M682 284.9L620 290.1M600.5 294.1L561.5 306.9M562 309.1L584 306.9M596.5 291.7L603.5 287.3M604.1 275.5L576.9 279.5M581 275.6L632 273.4M651.8 274.7L740.2 290.3M759.5 295.2L846.5 324.8" fill="none" stroke="#343331" stroke-width="1" stroke-dasharray="2 4"/>
<path d="M697 880A7 7 0 1 1 683 880A7 7 0 1 1 697 880M697 852A7 7 0 1 1 683 852A7 7 0 1 1 697 852M697 824A7 7 0 1 1 683 824A7 7 0 1 1 697 824M700 762A7 7 0 1 1 686 762A7 7 0 1 1 700 762M707 676A7 7 0 1 1 693 676A7 7 0 1 1 707 676M697 587A7 7 0 1 1 683 587A7 7 0 1 1 697 587M663 506A7 7 0 1 1 649 506A7 7 0 1 1 663 506M636 436A7 7 0 1 1 622 436A7 7 0 1 1 636 436M621 385A7 7 0 1 1 607 385A7 7 0 1 1 621 385M692 356A7 7 0 1 1 678 356A7 7 0 1 1 692 356M803 365A7 7 0 1 1 789 365A7 7 0 1 1 803 365M836 348A7 7 0 1 1 822 348A7 7 0 1 1 836 348M818 326A7 7 0 1 1 804 326A7 7 0 1 1 818 326M873 329A7 7 0 1 1 859 329A7 7 0 1 1 873 329M930 341A7 7 0 1 1 916 341A7 7 0 1 1 930 341M906 328A7 7 0 1 1 892 328A7 7 0 1 1 906 328M806 314A7 7 0 1 1 792 314A7 7 0 1 1 806 314M751 297A7 7 0 1 1 737 297A7 7 0 1 1 751 297M699 284A7 7 0 1 1 685 284A7 7 0 1 1 699 284M617 291A7 7 0 1 1 603 291A7 7 0 1 1 617 291M559 310A7 7 0 1 1 545 310A7 7 0 1 1 559 310M601 306A7 7 0 1 1 587 306A7 7 0 1 1 601 306M595 297A7 7 0 1 1 581 297A7 7 0 1 1 595 297M619 282A7 7 0 1 1 605 282A7 7 0 1 1 619 282M621 274A7 7 0 1 1 607 274A7 7 0 1 1 621 274M574 281A7 7 0 1 1 560 281A7 7 0 1 1 574 281M578 276A7 7 0 1 1 564 276A7 7 0 1 1 578 276M649 273A7 7 0 1 1 635 273A7 7 0 1 1 649 273M757 292A7 7 0 1 1 743 292A7 7 0 1 1 757 292M863 328A7 7 0 1 1 849 328A7 7 0 1 1 863 328" fill="none" stroke="#575653" stroke-width="1.2"/>
<path d="M691 880A1 1 0 1 1 689 880A1 1 0 1 1 691 880M691 852A1 1 0 1 1 689 852A1 1 0 1 1 691 852M691 824A1 1 0 1 1 689 824A1 1 0 1 1 691 824M694 762A1 1 0 1 1 692 762A1 1 0 1 1 694 762M701 676A1 1 0 1 1 699 676A1 1 0 1 1 701 676M691 587A1 1 0 1 1 689 587A1 1 0 1 1 691 587M657 506A1 1 0 1 1 655 506A1 1 0 1 1 657 506M630 436A1 1 0 1 1 628 436A1 1 0 1 1 630 436M615 385A1 1 0 1 1 613 385A1 1 0 1 1 615 385M686 356A1 1 0 1 1 684 356A1 1 0 1 1 686 356M797 365A1 1 0 1 1 795 365A1 1 0 1 1 797 365M830 348A1 1 0 1 1 828 348A1 1 0 1 1 830 348M812 326A1 1 0 1 1 810 326A1 1 0 1 1 812 326M867 329A1 1 0 1 1 865 329A1 1 0 1 1 867 329M924 341A1 1 0 1 1 922 341A1 1 0 1 1 924 341M900 328A1 1 0 1 1 898 328A1 1 0 1 1 900 328M800 314A1 1 0 1 1 798 314A1 1 0 1 1 800 314M745 297A1 1 0 1 1 743 297A1 1 0 1 1 745 297M693 284A1 1 0 1 1 691 284A1 1 0 1 1 693 284M611 291A1 1 0 1 1 609 291A1 1 0 1 1 611 291M553 310A1 1 0 1 1 551 310A1 1 0 1 1 553 310M595 306A1 1 0 1 1 593 306A1 1 0 1 1 595 306M589 297A1 1 0 1 1 587 297A1 1 0 1 1 589 297M613 282A1 1 0 1 1 611 282A1 1 0 1 1 613 282M615 274A1 1 0 1 1 613 274A1 1 0 1 1 615 274M568 281A1 1 0 1 1 566 281A1 1 0 1 1 568 281M572 276A1 1 0 1 1 570 276A1 1 0 1 1 572 276M643 273A1 1 0 1 1 641 273A1 1 0 1 1 643 273M751 292A1 1 0 1 1 749 292A1 1 0 1 1 751 292M857 328A1 1 0 1 1 855 328A1 1 0 1 1 857 328" fill="#878580"/>
<path d="M1260 273C1260 275.3 1260 296.3 1260 301C1260 305.7 1260.2 321.5 1260 329C1259.8 336.5 1257.8 378.7 1257 391C1256.2 403.3 1249.8 462.4 1250 477C1250.2 491.6 1256.3 551.8 1260 566C1263.7 580.2 1288.9 634.4 1294 647C1299.1 659.6 1317.5 706.9 1321 717C1324.5 727.1 1340.7 761.3 1336 768C1331.3 774.7 1277.5 794.5 1265 797C1252.5 799.5 1196.8 797.2 1186.4 798.1C1176.1 798.9 1146.4 805.3 1140.4 806.9C1134.5 808.5 1119.4 816.2 1114.7 817.4C1110 818.5 1088.1 820.3 1083.8 820.6C1079.4 820.9 1062.2 820.3 1062 820.9C1061.8 821.4 1075.4 825.5 1081.8 827.1C1088.1 828.7 1128.5 837.7 1138.7 839.9C1148.9 842.1 1193.2 851.7 1203.9 853.4C1214.7 855.2 1257.3 860.1 1267.6 860.5C1277.8 860.9 1318.8 858.5 1326.6 857.7C1334.5 856.9 1358.7 851.8 1362 851.2C1365.3 850.6 1366.4 850.1 1365.9 850.7C1365.3 851.3 1356.7 856.7 1355.1 858.1C1353.6 859.6 1347.7 866.5 1347.4 867.8C1347.2 869.1 1351.3 873.1 1352.6 873.7C1353.8 874.3 1363.1 875.3 1362.8 875.4C1362.4 875.6 1354.4 876 1348.4 875.6C1342.3 875.2 1302.6 872.4 1290.1 870.6C1277.6 868.7 1214.8 857 1198.4 853.2C1182.1 849.5 1102.7 827.4 1094 825" fill="none" stroke="#CF6A4C" stroke-width="1.5" stroke-linecap="round" stroke-linejoin="round"/>
<circle cx="1260" cy="273" r="5" fill="#CF6A4C"/>
<path d="M1083.4 822.1L1092.7 829.8L1095.3 820.2Z" fill="#CF6A4C"/>
<path d="M1259 825h2v2h-2zM1257 827h4v2h-4zM1259 829h2v2h-2zM1259 831h2v2h-2zM1259 833h2v2h-2zM1257 835h6v2h-6zM1267 825h4v2h-4zM1265 827h2v2h-2zM1271 827h2v2h-2zM1265 829h2v2h-2zM1269 829h4v2h-4zM1265 831h4v2h-4zM1271 831h2v2h-2zM1265 833h2v2h-2zM1271 833h2v2h-2zM1267 835h4v2h-4z" fill="#403E3C"/>
<path d="M1018 815h2v2h-2zM1016 817h4v2h-4zM1018 819h2v2h-2zM1018 821h2v2h-2zM1018 823h2v2h-2zM1016 825h6v2h-6zM1024 815h8v2h-8zM1024 817h2v2h-2zM1024 819h6v2h-6zM1030 821h2v2h-2zM1030 823h2v2h-2zM1024 825h6v2h-6z" fill="#403E3C"/>
<path d="M1392 845h4v2h-4zM1390 847h2v2h-2zM1396 847h2v2h-2zM1396 849h2v2h-2zM1392 851h4v2h-4zM1390 853h2v2h-2zM1390 855h8v2h-8zM1404 845h2v2h-2zM1402 847h4v2h-4zM1404 849h2v2h-2zM1404 851h2v2h-2zM1404 853h2v2h-2zM1402 855h6v2h-6z" fill="#403E3C"/>
<path d="M1086 853h4v2h-4zM1084 855h2v2h-2zM1090 855h2v2h-2zM1088 857h2v2h-2zM1090 859h2v2h-2zM1084 861h2v2h-2zM1090 861h2v2h-2zM1086 863h4v2h-4zM1096 853h4v2h-4zM1094 855h2v2h-2zM1100 855h2v2h-2zM1094 857h2v2h-2zM1098 857h4v2h-4zM1094 859h4v2h-4zM1100 859h2v2h-2zM1094 861h2v2h-2zM1100 861h2v2h-2zM1096 863h4v2h-4z" fill="#403E3C"/>
<path d="M1265 809L1265 819M1050 820.9L1040 820.9M1374 851.2L1384 851.2M1094 837L1094 847" fill="none" stroke="#403E3C" stroke-width="1"/>
<path d="M930 560H1040M1032 555L1040 560L1032 565" fill="none" stroke="#343331" stroke-width="1.2" stroke-linecap="round" stroke-linejoin="round"/>
<path d="M662 954h6v2h-6zM660 956h2v2h-2zM660 958h2v2h-2zM660 960h6v2h-6zM660 962h2v2h-2zM660 964h2v2h-2zM672 954h6v2h-6zM674 956h2v2h-2zM674 958h2v2h-2zM674 960h2v2h-2zM674 962h2v2h-2zM672 964h6v2h-6zM682 954h6v2h-6zM680 956h2v2h-2zM680 958h2v2h-2zM684 958h4v2h-4zM680 960h2v2h-2zM686 960h2v2h-2zM680 962h2v2h-2zM686 962h2v2h-2zM682 964h6v2h-6zM694 964h2v2h-2zM714 954h2v2h-2zM712 956h4v2h-4zM714 958h2v2h-2zM714 960h2v2h-2zM714 962h2v2h-2zM712 964h6v2h-6z" fill="#403E3C"/>
<path d="M1232 954h6v2h-6zM1230 956h2v2h-2zM1230 958h2v2h-2zM1230 960h6v2h-6zM1230 962h2v2h-2zM1230 964h2v2h-2zM1242 954h6v2h-6zM1244 956h2v2h-2zM1244 958h2v2h-2zM1244 960h2v2h-2zM1244 962h2v2h-2zM1242 964h6v2h-6zM1252 954h6v2h-6zM1250 956h2v2h-2zM1250 958h2v2h-2zM1254 958h4v2h-4zM1250 960h2v2h-2zM1256 960h2v2h-2zM1250 962h2v2h-2zM1256 962h2v2h-2zM1252 964h6v2h-6zM1264 964h2v2h-2zM1282 954h4v2h-4zM1280 956h2v2h-2zM1286 956h2v2h-2zM1286 958h2v2h-2zM1282 960h4v2h-4zM1280 962h2v2h-2zM1280 964h8v2h-8z" fill="#403E3C"/>
</svg>
