<svg xmlns="http://www.w3.org/2000/svg" viewBox="0 0 1920 1080" width="1920" height="1080">
<rect x="0" y="0" width="1920" height="1080" fill="#1C1B1A"/>
<path d="M1374 314h12v2h-12zM1390 314h12v2h-12zM1406 314h12v2h-12zM1422 314h12v2h-12zM1438 314h12v2h-12zM1454 314h12v2h-12zM1470 314h12v2h-12zM1486 314h12v2h-12zM1502 314h12v2h-12zM1518 314h12v2h-12zM1534 314h12v2h-12zM1550 314h12v2h-12zM1566 314h12v2h-12zM1582 314h12v2h-12zM1598 314h12v2h-12zM1614 314h12v2h-12zM734 346h12v2h-12zM750 346h12v2h-12zM766 346h12v2h-12zM782 346h12v2h-12zM798 346h12v2h-12zM814 346h12v2h-12zM830 346h12v2h-12zM846 346h12v2h-12zM862 346h12v2h-12zM878 346h12v2h-12zM894 346h12v2h-12zM910 346h12v2h-12zM926 346h12v2h-12zM942 346h12v2h-12zM958 346h12v2h-12zM974 346h12v2h-12zM1022 346h12v2h-12zM1038 346h12v2h-12zM1054 346h12v2h-12zM1070 346h12v2h-12zM1086 346h12v2h-12zM1102 346h12v2h-12zM1118 346h12v2h-12zM1134 346h12v2h-12zM1150 346h12v2h-12zM1166 346h12v2h-12zM1182 346h12v2h-12zM1198 346h12v2h-12zM1214 346h12v2h-12zM1230 346h12v2h-12zM1246 346h12v2h-12zM1262 346h12v2h-12zM1278 346h12v2h-12zM1294 346h12v2h-12zM1310 346h12v2h-12zM1326 346h12v2h-12zM1394 352h4v2h-4zM1394 354h4v2h-4zM1410 352h4v2h-4zM1410 354h4v2h-4zM1426 352h4v2h-4zM1426 354h4v2h-4zM1442 352h4v2h-4zM1442 354h4v2h-4zM1458 352h4v2h-4zM1458 354h4v2h-4zM1474 352h4v2h-4zM1474 354h4v2h-4zM1490 352h4v2h-4zM1490 354h4v2h-4zM1506 352h4v2h-4zM1506 354h4v2h-4zM1522 352h4v2h-4zM1522 354h4v2h-4zM1538 352h4v2h-4zM1538 354h4v2h-4zM1554 352h4v2h-4zM1554 354h4v2h-4zM1570 352h4v2h-4zM1570 354h4v2h-4zM1586 352h4v2h-4zM1586 354h4v2h-4zM1602 352h4v2h-4zM1602 354h4v2h-4zM754 384h4v2h-4zM754 386h4v2h-4zM770 384h4v2h-4zM770 386h4v2h-4zM786 384h4v2h-4zM786 386h4v2h-4zM802 384h4v2h-4zM802 386h4v2h-4zM818 384h4v2h-4zM818 386h4v2h-4zM834 384h4v2h-4zM834 386h4v2h-4zM850 384h4v2h-4zM850 386h4v2h-4zM866 384h4v2h-4zM866 386h4v2h-4zM882 384h4v2h-4zM882 386h4v2h-4zM898 384h4v2h-4zM898 386h4v2h-4zM914 384h4v2h-4zM914 386h4v2h-4zM930 384h4v2h-4zM930 386h4v2h-4zM946 384h4v2h-4zM946 386h4v2h-4zM962 384h4v2h-4zM962 386h4v2h-4zM1042 384h4v2h-4zM1042 386h4v2h-4zM1058 384h4v2h-4zM1058 386h4v2h-4zM1074 384h4v2h-4zM1074 386h4v2h-4zM1090 384h4v2h-4zM1090 386h4v2h-4zM1106 384h4v2h-4zM1106 386h4v2h-4zM1122 384h4v2h-4zM1122 386h4v2h-4zM1138 384h4v2h-4zM1138 386h4v2h-4zM1154 384h4v2h-4zM1154 386h4v2h-4zM1170 384h4v2h-4zM1170 386h4v2h-4zM1186 384h4v2h-4zM1186 386h4v2h-4zM1202 384h4v2h-4zM1202 386h4v2h-4zM1218 384h4v2h-4zM1218 386h4v2h-4zM1234 384h4v2h-4zM1234 386h4v2h-4zM1250 384h4v2h-4zM1250 386h4v2h-4zM1266 384h4v2h-4zM1266 386h4v2h-4zM1282 384h4v2h-4zM1282 386h4v2h-4zM1298 384h4v2h-4zM1298 386h4v2h-4zM1314 384h4v2h-4zM1314 386h4v2h-4zM1394 384h4v2h-4zM1394 386h4v2h-4zM1410 384h4v2h-4zM1410 386h4v2h-4zM1426 384h4v2h-4zM1426 386h4v2h-4zM1442 384h4v2h-4zM1442 386h4v2h-4zM1458 384h4v2h-4zM1458 386h4v2h-4zM1474 384h4v2h-4zM1474 386h4v2h-4zM1490 384h4v2h-4zM1490 386h4v2h-4zM1506 384h4v2h-4zM1506 386h4v2h-4zM1522 384h4v2h-4zM1522 386h4v2h-4zM1538 384h4v2h-4zM1538 386h4v2h-4zM1554 384h4v2h-4zM1554 386h4v2h-4zM1570 384h4v2h-4zM1570 386h4v2h-4zM1586 384h4v2h-4zM1586 386h4v2h-4zM1602 384h4v2h-4zM1602 386h4v2h-4zM754 416h4v2h-4zM754 418h4v2h-4zM770 416h4v2h-4zM770 418h4v2h-4zM786 416h4v2h-4zM786 418h4v2h-4zM802 416h4v2h-4zM802 418h4v2h-4zM818 416h4v2h-4zM818 418h4v2h-4zM834 416h4v2h-4zM834 418h4v2h-4zM850 416h4v2h-4zM850 418h4v2h-4zM866 416h4v2h-4zM866 418h4v2h-4zM882 416h4v2h-4zM882 418h4v2h-4zM898 416h4v2h-4zM898 418h4v2h-4zM914 416h4v2h-4zM914 418h4v2h-4zM930 416h4v2h-4zM930 418h4v2h-4zM946 416h4v2h-4zM946 418h4v2h-4zM962 416h4v2h-4zM962 418h4v2h-4zM1042 416h4v2h-4zM1042 418h4v2h-4zM1058 416h4v2h-4zM1058 418h4v2h-4zM1074 416h4v2h-4zM1074 418h4v2h-4zM1090 416h4v2h-4zM1090 418h4v2h-4zM1106 416h4v2h-4zM1106 418h4v2h-4zM1122 416h4v2h-4zM1122 418h4v2h-4zM1138 416h4v2h-4zM1138 418h4v2h-4zM1154 416h4v2h-4zM1154 418h4v2h-4zM1170 416h4v2h-4zM1170 418h4v2h-4zM1186 416h4v2h-4zM1186 418h4v2h-4zM1202 416h4v2h-4zM1202 418h4v2h-4zM1234 416h4v2h-4zM1234 418h4v2h-4zM1250 416h4v2h-4zM1250 418h4v2h-4zM1266 416h4v2h-4zM1266 418h4v2h-4zM1282 416h4v2h-4zM1282 418h4v2h-4zM1298 416h4v2h-4zM1298 418h4v2h-4zM1314 416h4v2h-4zM1314 418h4v2h-4zM1374 410h12v2h-12zM1390 410h12v2h-12zM1406 410h12v2h-12zM1422 410h12v2h-12zM1438 410h12v2h-12zM1454 410h12v2h-12zM1470 410h12v2h-12zM1486 410h12v2h-12zM1518 410h12v2h-12zM1534 410h12v2h-12zM1550 410h12v2h-12zM1566 410h12v2h-12zM1582 410h12v2h-12zM1598 410h12v2h-12zM1614 410h12v2h-12zM754 448h4v2h-4zM754 450h4v2h-4zM770 448h4v2h-4zM770 450h4v2h-4zM786 448h4v2h-4zM786 450h4v2h-4zM802 448h4v2h-4zM802 450h4v2h-4zM818 448h4v2h-4zM818 450h4v2h-4zM834 448h4v2h-4zM834 450h4v2h-4zM850 448h4v2h-4zM850 450h4v2h-4zM866 448h4v2h-4zM866 450h4v2h-4zM882 448h4v2h-4zM882 450h4v2h-4zM898 448h4v2h-4zM898 450h4v2h-4zM914 448h4v2h-4zM914 450h4v2h-4zM930 448h4v2h-4zM930 450h4v2h-4zM946 448h4v2h-4zM946 450h4v2h-4zM962 448h4v2h-4zM962 450h4v2h-4zM1022 442h12v2h-12zM1038 442h12v2h-12zM1054 442h12v2h-12zM1070 442h12v2h-12zM1086 442h12v2h-12zM1102 442h12v2h-12zM1118 442h12v2h-12zM1134 442h12v2h-12zM1150 442h12v2h-12zM1166 442h12v2h-12zM1198 442h12v2h-12zM1214 442h12v2h-12zM1230 442h12v2h-12zM1246 442h12v2h-12zM1262 442h12v2h-12zM1278 442h12v2h-12zM1294 442h12v2h-12zM1310 442h12v2h-12zM1326 442h12v2h-12zM1502 432h4v2h-4zM1508 432h4v2h-4zM1502 434h4v2h-4zM1508 434h4v2h-4zM1500 436h14v2h-14zM1502 438h4v2h-4zM1508 438h4v2h-4zM1502 440h4v2h-4zM1508 440h4v2h-4zM1502 442h4v2h-4zM1508 442h4v2h-4zM1502 444h4v2h-4zM1508 444h4v2h-4zM1500 446h14v2h-14zM1502 448h4v2h-4zM1508 448h4v2h-4zM1502 450h4v2h-4zM1508 450h4v2h-4zM754 480h4v2h-4zM754 482h4v2h-4zM770 480h4v2h-4zM770 482h4v2h-4zM786 480h4v2h-4zM786 482h4v2h-4zM802 480h4v2h-4zM802 482h4v2h-4zM818 480h4v2h-4zM818 482h4v2h-4zM834 480h4v2h-4zM834 482h4v2h-4zM850 480h4v2h-4zM850 482h4v2h-4zM866 480h4v2h-4zM866 482h4v2h-4zM882 480h4v2h-4zM882 482h4v2h-4zM898 480h4v2h-4zM898 482h4v2h-4zM914 480h4v2h-4zM914 482h4v2h-4zM930 480h4v2h-4zM930 482h4v2h-4zM946 480h4v2h-4zM946 482h4v2h-4zM962 480h4v2h-4zM962 482h4v2h-4zM1182 464h4v2h-4zM1188 464h4v2h-4zM1182 466h4v2h-4zM1188 466h4v2h-4zM1180 468h14v2h-14zM1182 470h4v2h-4zM1188 470h4v2h-4zM1182 472h4v2h-4zM1188 472h4v2h-4zM1182 474h4v2h-4zM1188 474h4v2h-4zM1182 476h4v2h-4zM1188 476h4v2h-4zM1180 478h14v2h-14zM1182 480h4v2h-4zM1188 480h4v2h-4zM1182 482h4v2h-4zM1188 482h4v2h-4zM1342 464h4v2h-4zM1348 464h4v2h-4zM1342 466h4v2h-4zM1348 466h4v2h-4zM1340 468h14v2h-14zM1342 470h4v2h-4zM1348 470h4v2h-4zM1342 472h4v2h-4zM1348 472h4v2h-4zM1342 474h4v2h-4zM1348 474h4v2h-4zM1342 476h4v2h-4zM1348 476h4v2h-4zM1340 478h14v2h-14zM1342 480h4v2h-4zM1348 480h4v2h-4zM1342 482h4v2h-4zM1348 482h4v2h-4zM1358 464h4v2h-4zM1364 464h4v2h-4zM1358 466h4v2h-4zM1364 466h4v2h-4zM1356 468h14v2h-14zM1358 470h4v2h-4zM1364 470h4v2h-4zM1358 472h4v2h-4zM1364 472h4v2h-4zM1358 474h4v2h-4zM1364 474h4v2h-4zM1358 476h4v2h-4zM1364 476h4v2h-4zM1356 478h14v2h-14zM1358 480h4v2h-4zM1364 480h4v2h-4zM1358 482h4v2h-4zM1364 482h4v2h-4zM1374 464h4v2h-4zM1380 464h4v2h-4zM1374 466h4v2h-4zM1380 466h4v2h-4zM1372 468h14v2h-14zM1374 470h4v2h-4zM1380 470h4v2h-4zM1374 472h4v2h-4zM1380 472h4v2h-4zM1374 474h4v2h-4zM1380 474h4v2h-4zM1374 476h4v2h-4zM1380 476h4v2h-4zM1372 478h14v2h-14zM1374 480h4v2h-4zM1380 480h4v2h-4zM1374 482h4v2h-4zM1380 482h4v2h-4zM1390 464h4v2h-4zM1396 464h4v2h-4zM1390 466h4v2h-4zM1396 466h4v2h-4zM1388 468h14v2h-14zM1390 470h4v2h-4zM1396 470h4v2h-4zM1390 472h4v2h-4zM1396 472h4v2h-4zM1390 474h4v2h-4zM1396 474h4v2h-4zM1390 476h4v2h-4zM1396 476h4v2h-4zM1388 478h14v2h-14zM1390 480h4v2h-4zM1396 480h4v2h-4zM1390 482h4v2h-4zM1396 482h4v2h-4zM1406 464h4v2h-4zM1412 464h4v2h-4zM1406 466h4v2h-4zM1412 466h4v2h-4zM1404 468h14v2h-14zM1406 470h4v2h-4zM1412 470h4v2h-4zM1406 472h4v2h-4zM1412 472h4v2h-4zM1406 474h4v2h-4zM1412 474h4v2h-4zM1406 476h4v2h-4zM1412 476h4v2h-4zM1404 478h14v2h-14zM1406 480h4v2h-4zM1412 480h4v2h-4zM1406 482h4v2h-4zM1412 482h4v2h-4zM1422 464h4v2h-4zM1428 464h4v2h-4zM1422 466h4v2h-4zM1428 466h4v2h-4zM1420 468h14v2h-14zM1422 470h4v2h-4zM1428 470h4v2h-4zM1422 472h4v2h-4zM1428 472h4v2h-4zM1422 474h4v2h-4zM1428 474h4v2h-4zM1422 476h4v2h-4zM1428 476h4v2h-4zM1420 478h14v2h-14zM1422 480h4v2h-4zM1428 480h4v2h-4zM1422 482h4v2h-4zM1428 482h4v2h-4zM1438 464h4v2h-4zM1444 464h4v2h-4zM1438 466h4v2h-4zM1444 466h4v2h-4zM1436 468h14v2h-14zM1438 470h4v2h-4zM1444 470h4v2h-4zM1438 472h4v2h-4zM1444 472h4v2h-4zM1438 474h4v2h-4zM1444 474h4v2h-4zM1438 476h4v2h-4zM1444 476h4v2h-4zM1436 478h14v2h-14zM1438 480h4v2h-4zM1444 480h4v2h-4zM1438 482h4v2h-4zM1444 482h4v2h-4zM1454 464h4v2h-4zM1460 464h4v2h-4zM1454 466h4v2h-4zM1460 466h4v2h-4zM1452 468h14v2h-14zM1454 470h4v2h-4zM1460 470h4v2h-4zM1454 472h4v2h-4zM1460 472h4v2h-4zM1454 474h4v2h-4zM1460 474h4v2h-4zM1454 476h4v2h-4zM1460 476h4v2h-4zM1452 478h14v2h-14zM1454 480h4v2h-4zM1460 480h4v2h-4zM1454 482h4v2h-4zM1460 482h4v2h-4zM1470 464h4v2h-4zM1476 464h4v2h-4zM1470 466h4v2h-4zM1476 466h4v2h-4zM1468 468h14v2h-14zM1470 470h4v2h-4zM1476 470h4v2h-4zM1470 472h4v2h-4zM1476 472h4v2h-4zM1470 474h4v2h-4zM1476 474h4v2h-4zM1470 476h4v2h-4zM1476 476h4v2h-4zM1468 478h14v2h-14zM1470 480h4v2h-4zM1476 480h4v2h-4zM1470 482h4v2h-4zM1476 482h4v2h-4zM1486 464h4v2h-4zM1492 464h4v2h-4zM1486 466h4v2h-4zM1492 466h4v2h-4zM1484 468h14v2h-14zM1486 470h4v2h-4zM1492 470h4v2h-4zM1486 472h4v2h-4zM1492 472h4v2h-4zM1486 474h4v2h-4zM1492 474h4v2h-4zM1486 476h4v2h-4zM1492 476h4v2h-4zM1484 478h14v2h-14zM1486 480h4v2h-4zM1492 480h4v2h-4zM1486 482h4v2h-4zM1492 482h4v2h-4zM1502 464h4v2h-4zM1508 464h4v2h-4zM1502 466h4v2h-4zM1508 466h4v2h-4zM1500 468h14v2h-14zM1502 470h4v2h-4zM1508 470h4v2h-4zM1502 472h4v2h-4zM1508 472h4v2h-4zM1502 474h4v2h-4zM1508 474h4v2h-4zM1502 476h4v2h-4zM1508 476h4v2h-4zM1500 478h14v2h-14zM1502 480h4v2h-4zM1508 480h4v2h-4zM1502 482h4v2h-4zM1508 482h4v2h-4zM734 506h12v2h-12zM750 506h12v2h-12zM766 506h12v2h-12zM782 506h12v2h-12zM798 506h12v2h-12zM814 506h12v2h-12zM830 506h12v2h-12zM846 506h12v2h-12zM878 506h12v2h-12zM894 506h12v2h-12zM910 506h12v2h-12zM926 506h12v2h-12zM942 506h12v2h-12zM958 506h12v2h-12zM974 506h12v2h-12zM1006 496h4v2h-4zM1012 496h4v2h-4zM1006 498h4v2h-4zM1012 498h4v2h-4zM1004 500h14v2h-14zM1006 502h4v2h-4zM1012 502h4v2h-4zM1006 504h4v2h-4zM1012 504h4v2h-4zM1006 506h4v2h-4zM1012 506h4v2h-4zM1006 508h4v2h-4zM1012 508h4v2h-4zM1004 510h14v2h-14zM1006 512h4v2h-4zM1012 512h4v2h-4zM1006 514h4v2h-4zM1012 514h4v2h-4zM1022 496h4v2h-4zM1028 496h4v2h-4zM1022 498h4v2h-4zM1028 498h4v2h-4zM1020 500h14v2h-14zM1022 502h4v2h-4zM1028 502h4v2h-4zM1022 504h4v2h-4zM1028 504h4v2h-4zM1022 506h4v2h-4zM1028 506h4v2h-4zM1022 508h4v2h-4zM1028 508h4v2h-4zM1020 510h14v2h-14zM1022 512h4v2h-4zM1028 512h4v2h-4zM1022 514h4v2h-4zM1028 514h4v2h-4zM1038 496h4v2h-4zM1044 496h4v2h-4zM1038 498h4v2h-4zM1044 498h4v2h-4zM1036 500h14v2h-14zM1038 502h4v2h-4zM1044 502h4v2h-4zM1038 504h4v2h-4zM1044 504h4v2h-4zM1038 506h4v2h-4zM1044 506h4v2h-4zM1038 508h4v2h-4zM1044 508h4v2h-4zM1036 510h14v2h-14zM1038 512h4v2h-4zM1044 512h4v2h-4zM1038 514h4v2h-4zM1044 514h4v2h-4zM1054 496h4v2h-4zM1060 496h4v2h-4zM1054 498h4v2h-4zM1060 498h4v2h-4zM1052 500h14v2h-14zM1054 502h4v2h-4zM1060 502h4v2h-4zM1054 504h4v2h-4zM1060 504h4v2h-4zM1054 506h4v2h-4zM1060 506h4v2h-4zM1054 508h4v2h-4zM1060 508h4v2h-4zM1052 510h14v2h-14zM1054 512h4v2h-4zM1060 512h4v2h-4zM1054 514h4v2h-4zM1060 514h4v2h-4zM1070 496h4v2h-4zM1076 496h4v2h-4zM1070 498h4v2h-4zM1076 498h4v2h-4zM1068 500h14v2h-14zM1070 502h4v2h-4zM1076 502h4v2h-4zM1070 504h4v2h-4zM1076 504h4v2h-4zM1070 506h4v2h-4zM1076 506h4v2h-4zM1070 508h4v2h-4zM1076 508h4v2h-4zM1068 510h14v2h-14zM1070 512h4v2h-4zM1076 512h4v2h-4zM1070 514h4v2h-4zM1076 514h4v2h-4zM1086 496h4v2h-4zM1092 496h4v2h-4zM1086 498h4v2h-4zM1092 498h4v2h-4zM1084 500h14v2h-14zM1086 502h4v2h-4zM1092 502h4v2h-4zM1086 504h4v2h-4zM1092 504h4v2h-4zM1086 506h4v2h-4zM1092 506h4v2h-4zM1086 508h4v2h-4zM1092 508h4v2h-4zM1084 510h14v2h-14zM1086 512h4v2h-4zM1092 512h4v2h-4zM1086 514h4v2h-4zM1092 514h4v2h-4zM1102 496h4v2h-4zM1108 496h4v2h-4zM1102 498h4v2h-4zM1108 498h4v2h-4zM1100 500h14v2h-14zM1102 502h4v2h-4zM1108 502h4v2h-4zM1102 504h4v2h-4zM1108 504h4v2h-4zM1102 506h4v2h-4zM1108 506h4v2h-4zM1102 508h4v2h-4zM1108 508h4v2h-4zM1100 510h14v2h-14zM1102 512h4v2h-4zM1108 512h4v2h-4zM1102 514h4v2h-4zM1108 514h4v2h-4zM1118 496h4v2h-4zM1124 496h4v2h-4zM1118 498h4v2h-4zM1124 498h4v2h-4zM1116 500h14v2h-14zM1118 502h4v2h-4zM1124 502h4v2h-4zM1118 504h4v2h-4zM1124 504h4v2h-4zM1118 506h4v2h-4zM1124 506h4v2h-4zM1118 508h4v2h-4zM1124 508h4v2h-4zM1116 510h14v2h-14zM1118 512h4v2h-4zM1124 512h4v2h-4zM1118 514h4v2h-4zM1124 514h4v2h-4zM1134 496h4v2h-4zM1140 496h4v2h-4zM1134 498h4v2h-4zM1140 498h4v2h-4zM1132 500h14v2h-14zM1134 502h4v2h-4zM1140 502h4v2h-4zM1134 504h4v2h-4zM1140 504h4v2h-4zM1134 506h4v2h-4zM1140 506h4v2h-4zM1134 508h4v2h-4zM1140 508h4v2h-4zM1132 510h14v2h-14zM1134 512h4v2h-4zM1140 512h4v2h-4zM1134 514h4v2h-4zM1140 514h4v2h-4zM1150 496h4v2h-4zM1156 496h4v2h-4zM1150 498h4v2h-4zM1156 498h4v2h-4zM1148 500h14v2h-14zM1150 502h4v2h-4zM1156 502h4v2h-4zM1150 504h4v2h-4zM1156 504h4v2h-4zM1150 506h4v2h-4zM1156 506h4v2h-4zM1150 508h4v2h-4zM1156 508h4v2h-4zM1148 510h14v2h-14zM1150 512h4v2h-4zM1156 512h4v2h-4zM1150 514h4v2h-4zM1156 514h4v2h-4zM1166 496h4v2h-4zM1172 496h4v2h-4zM1166 498h4v2h-4zM1172 498h4v2h-4zM1164 500h14v2h-14zM1166 502h4v2h-4zM1172 502h4v2h-4zM1166 504h4v2h-4zM1172 504h4v2h-4zM1166 506h4v2h-4zM1172 506h4v2h-4zM1166 508h4v2h-4zM1172 508h4v2h-4zM1164 510h14v2h-14zM1166 512h4v2h-4zM1172 512h4v2h-4zM1166 514h4v2h-4zM1172 514h4v2h-4zM1182 496h4v2h-4zM1188 496h4v2h-4zM1182 498h4v2h-4zM1188 498h4v2h-4zM1180 500h14v2h-14zM1182 502h4v2h-4zM1188 502h4v2h-4zM1182 504h4v2h-4zM1188 504h4v2h-4zM1182 506h4v2h-4zM1188 506h4v2h-4zM1182 508h4v2h-4zM1188 508h4v2h-4zM1180 510h14v2h-14zM1182 512h4v2h-4zM1188 512h4v2h-4zM1182 514h4v2h-4zM1188 514h4v2h-4zM1198 496h4v2h-4zM1204 496h4v2h-4zM1198 498h4v2h-4zM1204 498h4v2h-4zM1196 500h14v2h-14zM1198 502h4v2h-4zM1204 502h4v2h-4zM1198 504h4v2h-4zM1204 504h4v2h-4zM1198 506h4v2h-4zM1204 506h4v2h-4zM1198 508h4v2h-4zM1204 508h4v2h-4zM1196 510h14v2h-14zM1198 512h4v2h-4zM1204 512h4v2h-4zM1198 514h4v2h-4zM1204 514h4v2h-4zM1214 496h4v2h-4zM1220 496h4v2h-4zM1214 498h4v2h-4zM1220 498h4v2h-4zM1212 500h14v2h-14zM1214 502h4v2h-4zM1220 502h4v2h-4zM1214 504h4v2h-4zM1220 504h4v2h-4zM1214 506h4v2h-4zM1220 506h4v2h-4zM1214 508h4v2h-4zM1220 508h4v2h-4zM1212 510h14v2h-14zM1214 512h4v2h-4zM1220 512h4v2h-4zM1214 514h4v2h-4zM1220 514h4v2h-4zM1230 496h4v2h-4zM1236 496h4v2h-4zM1230 498h4v2h-4zM1236 498h4v2h-4zM1228 500h14v2h-14zM1230 502h4v2h-4zM1236 502h4v2h-4zM1230 504h4v2h-4zM1236 504h4v2h-4zM1230 506h4v2h-4zM1236 506h4v2h-4zM1230 508h4v2h-4zM1236 508h4v2h-4zM1228 510h14v2h-14zM1230 512h4v2h-4zM1236 512h4v2h-4zM1230 514h4v2h-4zM1236 514h4v2h-4zM1246 496h4v2h-4zM1252 496h4v2h-4zM1246 498h4v2h-4zM1252 498h4v2h-4zM1244 500h14v2h-14zM1246 502h4v2h-4zM1252 502h4v2h-4zM1246 504h4v2h-4zM1252 504h4v2h-4zM1246 506h4v2h-4zM1252 506h4v2h-4zM1246 508h4v2h-4zM1252 508h4v2h-4zM1244 510h14v2h-14zM1246 512h4v2h-4zM1252 512h4v2h-4zM1246 514h4v2h-4zM1252 514h4v2h-4zM1262 496h4v2h-4zM1268 496h4v2h-4zM1262 498h4v2h-4zM1268 498h4v2h-4zM1260 500h14v2h-14zM1262 502h4v2h-4zM1268 502h4v2h-4zM1262 504h4v2h-4zM1268 504h4v2h-4zM1262 506h4v2h-4zM1268 506h4v2h-4zM1262 508h4v2h-4zM1268 508h4v2h-4zM1260 510h14v2h-14zM1262 512h4v2h-4zM1268 512h4v2h-4zM1262 514h4v2h-4zM1268 514h4v2h-4zM1278 496h4v2h-4zM1284 496h4v2h-4zM1278 498h4v2h-4zM1284 498h4v2h-4zM1276 500h14v2h-14zM1278 502h4v2h-4zM1284 502h4v2h-4zM1278 504h4v2h-4zM1284 504h4v2h-4zM1278 506h4v2h-4zM1284 506h4v2h-4zM1278 508h4v2h-4zM1284 508h4v2h-4zM1276 510h14v2h-14zM1278 512h4v2h-4zM1284 512h4v2h-4zM1278 514h4v2h-4zM1284 514h4v2h-4zM1294 496h4v2h-4zM1300 496h4v2h-4zM1294 498h4v2h-4zM1300 498h4v2h-4zM1292 500h14v2h-14zM1294 502h4v2h-4zM1300 502h4v2h-4zM1294 504h4v2h-4zM1300 504h4v2h-4zM1294 506h4v2h-4zM1300 506h4v2h-4zM1294 508h4v2h-4zM1300 508h4v2h-4zM1292 510h14v2h-14zM1294 512h4v2h-4zM1300 512h4v2h-4zM1294 514h4v2h-4zM1300 514h4v2h-4zM1310 496h4v2h-4zM1316 496h4v2h-4zM1310 498h4v2h-4zM1316 498h4v2h-4zM1308 500h14v2h-14zM1310 502h4v2h-4zM1316 502h4v2h-4zM1310 504h4v2h-4zM1316 504h4v2h-4zM1310 506h4v2h-4zM1316 506h4v2h-4zM1310 508h4v2h-4zM1316 508h4v2h-4zM1308 510h14v2h-14zM1310 512h4v2h-4zM1316 512h4v2h-4zM1310 514h4v2h-4zM1316 514h4v2h-4zM1326 496h4v2h-4zM1332 496h4v2h-4zM1326 498h4v2h-4zM1332 498h4v2h-4zM1324 500h14v2h-14zM1326 502h4v2h-4zM1332 502h4v2h-4zM1326 504h4v2h-4zM1332 504h4v2h-4zM1326 506h4v2h-4zM1332 506h4v2h-4zM1326 508h4v2h-4zM1332 508h4v2h-4zM1324 510h14v2h-14zM1326 512h4v2h-4zM1332 512h4v2h-4zM1326 514h4v2h-4zM1332 514h4v2h-4zM1342 496h4v2h-4zM1348 496h4v2h-4zM1342 498h4v2h-4zM1348 498h4v2h-4zM1340 500h14v2h-14zM1342 502h4v2h-4zM1348 502h4v2h-4zM1342 504h4v2h-4zM1348 504h4v2h-4zM1342 506h4v2h-4zM1348 506h4v2h-4zM1342 508h4v2h-4zM1348 508h4v2h-4zM1340 510h14v2h-14zM1342 512h4v2h-4zM1348 512h4v2h-4zM1342 514h4v2h-4zM1348 514h4v2h-4zM1422 506h12v2h-12zM1438 506h12v2h-12zM1454 506h12v2h-12zM1470 506h12v2h-12zM1486 506h12v2h-12zM1518 506h12v2h-12zM1534 506h12v2h-12zM1550 506h12v2h-12zM1566 506h12v2h-12zM1582 506h12v2h-12zM1598 506h12v2h-12zM1614 506h12v2h-12zM1630 506h12v2h-12zM862 528h4v2h-4zM868 528h4v2h-4zM862 530h4v2h-4zM868 530h4v2h-4zM860 532h14v2h-14zM862 534h4v2h-4zM868 534h4v2h-4zM862 536h4v2h-4zM868 536h4v2h-4zM862 538h4v2h-4zM868 538h4v2h-4zM862 540h4v2h-4zM868 540h4v2h-4zM860 542h14v2h-14zM862 544h4v2h-4zM868 544h4v2h-4zM862 546h4v2h-4zM868 546h4v2h-4zM878 528h4v2h-4zM884 528h4v2h-4zM878 530h4v2h-4zM884 530h4v2h-4zM876 532h14v2h-14zM878 534h4v2h-4zM884 534h4v2h-4zM878 536h4v2h-4zM884 536h4v2h-4zM878 538h4v2h-4zM884 538h4v2h-4zM878 540h4v2h-4zM884 540h4v2h-4zM876 542h14v2h-14zM878 544h4v2h-4zM884 544h4v2h-4zM878 546h4v2h-4zM884 546h4v2h-4zM894 528h4v2h-4zM900 528h4v2h-4zM894 530h4v2h-4zM900 530h4v2h-4zM892 532h14v2h-14zM894 534h4v2h-4zM900 534h4v2h-4zM894 536h4v2h-4zM900 536h4v2h-4zM894 538h4v2h-4zM900 538h4v2h-4zM894 540h4v2h-4zM900 540h4v2h-4zM892 542h14v2h-14zM894 544h4v2h-4zM900 544h4v2h-4zM894 546h4v2h-4zM900 546h4v2h-4zM910 528h4v2h-4zM916 528h4v2h-4zM910 530h4v2h-4zM916 530h4v2h-4zM908 532h14v2h-14zM910 534h4v2h-4zM916 534h4v2h-4zM910 536h4v2h-4zM916 536h4v2h-4zM910 538h4v2h-4zM916 538h4v2h-4zM910 540h4v2h-4zM916 540h4v2h-4zM908 542h14v2h-14zM910 544h4v2h-4zM916 544h4v2h-4zM910 546h4v2h-4zM916 546h4v2h-4zM926 528h4v2h-4zM932 528h4v2h-4zM926 530h4v2h-4zM932 530h4v2h-4zM924 532h14v2h-14zM926 534h4v2h-4zM932 534h4v2h-4zM926 536h4v2h-4zM932 536h4v2h-4zM926 538h4v2h-4zM932 538h4v2h-4zM926 540h4v2h-4zM932 540h4v2h-4zM924 542h14v2h-14zM926 544h4v2h-4zM932 544h4v2h-4zM926 546h4v2h-4zM932 546h4v2h-4zM942 528h4v2h-4zM948 528h4v2h-4zM942 530h4v2h-4zM948 530h4v2h-4zM940 532h14v2h-14zM942 534h4v2h-4zM948 534h4v2h-4zM942 536h4v2h-4zM948 536h4v2h-4zM942 538h4v2h-4zM948 538h4v2h-4zM942 540h4v2h-4zM948 540h4v2h-4zM940 542h14v2h-14zM942 544h4v2h-4zM948 544h4v2h-4zM942 546h4v2h-4zM948 546h4v2h-4zM958 528h4v2h-4zM964 528h4v2h-4zM958 530h4v2h-4zM964 530h4v2h-4zM956 532h14v2h-14zM958 534h4v2h-4zM964 534h4v2h-4zM958 536h4v2h-4zM964 536h4v2h-4zM958 538h4v2h-4zM964 538h4v2h-4zM958 540h4v2h-4zM964 540h4v2h-4zM956 542h14v2h-14zM958 544h4v2h-4zM964 544h4v2h-4zM958 546h4v2h-4zM964 546h4v2h-4zM974 528h4v2h-4zM980 528h4v2h-4zM974 530h4v2h-4zM980 530h4v2h-4zM972 532h14v2h-14zM974 534h4v2h-4zM980 534h4v2h-4zM974 536h4v2h-4zM980 536h4v2h-4zM974 538h4v2h-4zM980 538h4v2h-4zM974 540h4v2h-4zM980 540h4v2h-4zM972 542h14v2h-14zM974 544h4v2h-4zM980 544h4v2h-4zM974 546h4v2h-4zM980 546h4v2h-4zM990 528h4v2h-4zM996 528h4v2h-4zM990 530h4v2h-4zM996 530h4v2h-4zM988 532h14v2h-14zM990 534h4v2h-4zM996 534h4v2h-4zM990 536h4v2h-4zM996 536h4v2h-4zM990 538h4v2h-4zM996 538h4v2h-4zM990 540h4v2h-4zM996 540h4v2h-4zM988 542h14v2h-14zM990 544h4v2h-4zM996 544h4v2h-4zM990 546h4v2h-4zM996 546h4v2h-4zM1006 528h4v2h-4zM1012 528h4v2h-4zM1006 530h4v2h-4zM1012 530h4v2h-4zM1004 532h14v2h-14zM1006 534h4v2h-4zM1012 534h4v2h-4zM1006 536h4v2h-4zM1012 536h4v2h-4zM1006 538h4v2h-4zM1012 538h4v2h-4zM1006 540h4v2h-4zM1012 540h4v2h-4zM1004 542h14v2h-14zM1006 544h4v2h-4zM1012 544h4v2h-4zM1006 546h4v2h-4zM1012 546h4v2h-4zM1182 528h4v2h-4zM1188 528h4v2h-4zM1182 530h4v2h-4zM1188 530h4v2h-4zM1180 532h14v2h-14zM1182 534h4v2h-4zM1188 534h4v2h-4zM1182 536h4v2h-4zM1188 536h4v2h-4zM1182 538h4v2h-4zM1188 538h4v2h-4zM1182 540h4v2h-4zM1188 540h4v2h-4zM1180 542h14v2h-14zM1182 544h4v2h-4zM1188 544h4v2h-4zM1182 546h4v2h-4zM1188 546h4v2h-4zM1442 544h4v2h-4zM1442 546h4v2h-4zM1458 544h4v2h-4zM1458 546h4v2h-4zM1474 544h4v2h-4zM1474 546h4v2h-4zM1490 544h4v2h-4zM1490 546h4v2h-4zM1506 544h4v2h-4zM1506 546h4v2h-4zM1522 544h4v2h-4zM1522 546h4v2h-4zM1538 544h4v2h-4zM1538 546h4v2h-4zM1554 544h4v2h-4zM1554 546h4v2h-4zM1570 544h4v2h-4zM1570 546h4v2h-4zM1586 544h4v2h-4zM1586 546h4v2h-4zM1602 544h4v2h-4zM1602 546h4v2h-4zM1618 544h4v2h-4zM1618 546h4v2h-4zM862 560h4v2h-4zM868 560h4v2h-4zM862 562h4v2h-4zM868 562h4v2h-4zM860 564h14v2h-14zM862 566h4v2h-4zM868 566h4v2h-4zM862 568h4v2h-4zM868 568h4v2h-4zM862 570h4v2h-4zM868 570h4v2h-4zM862 572h4v2h-4zM868 572h4v2h-4zM860 574h14v2h-14zM862 576h4v2h-4zM868 576h4v2h-4zM862 578h4v2h-4zM868 578h4v2h-4zM1038 570h12v2h-12zM1054 570h12v2h-12zM1070 570h12v2h-12zM1086 570h12v2h-12zM1102 570h12v2h-12zM1118 570h12v2h-12zM1134 570h12v2h-12zM1150 570h12v2h-12zM1166 570h12v2h-12zM1198 570h12v2h-12zM1214 570h12v2h-12zM1230 570h12v2h-12zM1246 570h12v2h-12zM1262 570h12v2h-12zM1278 570h12v2h-12zM1294 570h12v2h-12zM1310 570h12v2h-12zM1326 570h12v2h-12zM1442 576h4v2h-4zM1442 578h4v2h-4zM1458 576h4v2h-4zM1458 578h4v2h-4zM1474 576h4v2h-4zM1474 578h4v2h-4zM1490 576h4v2h-4zM1490 578h4v2h-4zM1506 576h4v2h-4zM1506 578h4v2h-4zM1522 576h4v2h-4zM1522 578h4v2h-4zM1538 576h4v2h-4zM1538 578h4v2h-4zM1554 576h4v2h-4zM1554 578h4v2h-4zM1570 576h4v2h-4zM1570 578h4v2h-4zM1586 576h4v2h-4zM1586 578h4v2h-4zM1602 576h4v2h-4zM1602 578h4v2h-4zM1618 576h4v2h-4zM1618 578h4v2h-4zM766 602h12v2h-12zM782 602h12v2h-12zM798 602h12v2h-12zM814 602h12v2h-12zM830 602h12v2h-12zM846 602h12v2h-12zM878 602h12v2h-12zM894 602h12v2h-12zM910 602h12v2h-12zM926 602h12v2h-12zM942 602h12v2h-12zM958 602h12v2h-12zM974 602h12v2h-12zM1442 608h4v2h-4zM1442 610h4v2h-4zM1458 608h4v2h-4zM1458 610h4v2h-4zM1490 608h4v2h-4zM1490 610h4v2h-4zM1506 608h4v2h-4zM1506 610h4v2h-4zM1522 608h4v2h-4zM1522 610h4v2h-4zM1536 600h4v2h-4zM1544 600h2v2h-2zM1534 602h12v2h-12zM1534 604h2v2h-2zM1540 604h4v2h-4zM1552 600h4v2h-4zM1560 600h2v2h-2zM1550 602h12v2h-12zM1550 604h2v2h-2zM1556 604h4v2h-4zM1568 600h4v2h-4zM1576 600h2v2h-2zM1566 602h12v2h-12zM1566 604h2v2h-2zM1572 604h4v2h-4zM1584 600h4v2h-4zM1592 600h2v2h-2zM1582 602h12v2h-12zM1582 604h2v2h-2zM1588 604h4v2h-4zM1600 600h4v2h-4zM1608 600h2v2h-2zM1598 602h12v2h-12zM1598 604h2v2h-2zM1604 604h4v2h-4zM1618 608h4v2h-4zM1618 610h4v2h-4zM786 640h4v2h-4zM786 642h4v2h-4zM802 640h4v2h-4zM802 642h4v2h-4zM818 640h4v2h-4zM818 642h4v2h-4zM834 640h4v2h-4zM834 642h4v2h-4zM850 640h4v2h-4zM850 642h4v2h-4zM866 640h4v2h-4zM866 642h4v2h-4zM882 640h4v2h-4zM882 642h4v2h-4zM898 640h4v2h-4zM898 642h4v2h-4zM914 640h4v2h-4zM914 642h4v2h-4zM930 640h4v2h-4zM930 642h4v2h-4zM946 640h4v2h-4zM946 642h4v2h-4zM962 640h4v2h-4zM962 642h4v2h-4zM1442 640h4v2h-4zM1442 642h4v2h-4zM1458 640h4v2h-4zM1458 642h4v2h-4zM1474 640h4v2h-4zM1474 642h4v2h-4zM1490 640h4v2h-4zM1490 642h4v2h-4zM1506 640h4v2h-4zM1506 642h4v2h-4zM1520 632h4v2h-4zM1528 632h2v2h-2zM1518 634h12v2h-12zM1518 636h2v2h-2zM1524 636h4v2h-4zM1536 632h4v2h-4zM1544 632h2v2h-2zM1534 634h12v2h-12zM1534 636h2v2h-2zM1540 636h4v2h-4zM1552 632h4v2h-4zM1560 632h2v2h-2zM1550 634h12v2h-12zM1550 636h2v2h-2zM1556 636h4v2h-4zM1568 632h4v2h-4zM1576 632h2v2h-2zM1566 634h12v2h-12zM1566 636h2v2h-2zM1572 636h4v2h-4zM1584 632h4v2h-4zM1592 632h2v2h-2zM1582 634h12v2h-12zM1582 636h2v2h-2zM1588 636h4v2h-4zM1600 632h4v2h-4zM1608 632h2v2h-2zM1598 634h12v2h-12zM1598 636h2v2h-2zM1604 636h4v2h-4zM1616 632h4v2h-4zM1624 632h2v2h-2zM1614 634h12v2h-12zM1614 636h2v2h-2zM1620 636h4v2h-4zM786 672h4v2h-4zM786 674h4v2h-4zM802 672h4v2h-4zM802 674h4v2h-4zM818 672h4v2h-4zM818 674h4v2h-4zM834 672h4v2h-4zM834 674h4v2h-4zM850 672h4v2h-4zM850 674h4v2h-4zM866 672h4v2h-4zM866 674h4v2h-4zM882 672h4v2h-4zM882 674h4v2h-4zM898 672h4v2h-4zM898 674h4v2h-4zM914 672h4v2h-4zM914 674h4v2h-4zM930 672h4v2h-4zM930 674h4v2h-4zM946 672h4v2h-4zM946 674h4v2h-4zM962 672h4v2h-4zM962 674h4v2h-4zM1442 672h4v2h-4zM1442 674h4v2h-4zM1458 672h4v2h-4zM1458 674h4v2h-4zM1474 672h4v2h-4zM1474 674h4v2h-4zM1490 672h4v2h-4zM1490 674h4v2h-4zM1506 672h4v2h-4zM1506 674h4v2h-4zM1520 664h4v2h-4zM1528 664h2v2h-2zM1518 666h12v2h-12zM1518 668h2v2h-2zM1524 668h4v2h-4zM1536 664h4v2h-4zM1544 664h2v2h-2zM1534 666h12v2h-12zM1534 668h2v2h-2zM1540 668h4v2h-4zM1552 664h4v2h-4zM1560 664h2v2h-2zM1550 666h12v2h-12zM1550 668h2v2h-2zM1556 668h4v2h-4zM1568 664h4v2h-4zM1576 664h2v2h-2zM1566 666h12v2h-12zM1566 668h2v2h-2zM1572 668h4v2h-4zM1584 664h4v2h-4zM1592 664h2v2h-2zM1582 666h12v2h-12zM1582 668h2v2h-2zM1588 668h4v2h-4zM1600 664h4v2h-4zM1608 664h2v2h-2zM1598 666h12v2h-12zM1598 668h2v2h-2zM1604 668h4v2h-4zM1616 664h4v2h-4zM1624 664h2v2h-2zM1614 666h12v2h-12zM1614 668h2v2h-2zM1620 668h4v2h-4zM786 704h4v2h-4zM786 706h4v2h-4zM802 704h4v2h-4zM802 706h4v2h-4zM818 704h4v2h-4zM818 706h4v2h-4zM834 704h4v2h-4zM834 706h4v2h-4zM850 704h4v2h-4zM850 706h4v2h-4zM866 704h4v2h-4zM866 706h4v2h-4zM882 704h4v2h-4zM882 706h4v2h-4zM898 704h4v2h-4zM898 706h4v2h-4zM914 704h4v2h-4zM914 706h4v2h-4zM930 704h4v2h-4zM930 706h4v2h-4zM946 704h4v2h-4zM946 706h4v2h-4zM962 704h4v2h-4zM962 706h4v2h-4zM1442 704h4v2h-4zM1442 706h4v2h-4zM1458 704h4v2h-4zM1458 706h4v2h-4zM1474 704h4v2h-4zM1474 706h4v2h-4zM1490 704h4v2h-4zM1490 706h4v2h-4zM1506 704h4v2h-4zM1506 706h4v2h-4zM1520 696h4v2h-4zM1528 696h2v2h-2zM1518 698h12v2h-12zM1518 700h2v2h-2zM1524 700h4v2h-4zM1536 696h4v2h-4zM1544 696h2v2h-2zM1534 698h12v2h-12zM1534 700h2v2h-2zM1540 700h4v2h-4zM1552 696h4v2h-4zM1560 696h2v2h-2zM1550 698h12v2h-12zM1550 700h2v2h-2zM1556 700h4v2h-4zM1568 696h4v2h-4zM1576 696h2v2h-2zM1566 698h12v2h-12zM1566 700h2v2h-2zM1572 700h4v2h-4zM1584 696h4v2h-4zM1592 696h2v2h-2zM1582 698h12v2h-12zM1582 700h2v2h-2zM1588 700h4v2h-4zM1600 696h4v2h-4zM1608 696h2v2h-2zM1598 698h12v2h-12zM1598 700h2v2h-2zM1604 700h4v2h-4zM1618 704h4v2h-4zM1618 706h4v2h-4zM786 736h4v2h-4zM786 738h4v2h-4zM802 736h4v2h-4zM802 738h4v2h-4zM818 736h4v2h-4zM818 738h4v2h-4zM834 736h4v2h-4zM834 738h4v2h-4zM850 736h4v2h-4zM850 738h4v2h-4zM866 736h4v2h-4zM866 738h4v2h-4zM882 736h4v2h-4zM882 738h4v2h-4zM898 736h4v2h-4zM898 738h4v2h-4zM914 736h4v2h-4zM914 738h4v2h-4zM930 736h4v2h-4zM930 738h4v2h-4zM946 736h4v2h-4zM946 738h4v2h-4zM962 736h4v2h-4zM962 738h4v2h-4zM1442 736h4v2h-4zM1442 738h4v2h-4zM1474 736h4v2h-4zM1474 738h4v2h-4zM1490 736h4v2h-4zM1490 738h4v2h-4zM1506 736h4v2h-4zM1506 738h4v2h-4zM1522 736h4v2h-4zM1522 738h4v2h-4zM1538 736h4v2h-4zM1538 738h4v2h-4zM1552 728h4v2h-4zM1560 728h2v2h-2zM1550 730h12v2h-12zM1550 732h2v2h-2zM1556 732h4v2h-4zM1568 728h4v2h-4zM1576 728h2v2h-2zM1566 730h12v2h-12zM1566 732h2v2h-2zM1572 732h4v2h-4zM1584 728h4v2h-4zM1592 728h2v2h-2zM1582 730h12v2h-12zM1582 732h2v2h-2zM1588 732h4v2h-4zM1602 736h4v2h-4zM1602 738h4v2h-4zM1618 736h4v2h-4zM1618 738h4v2h-4zM766 762h12v2h-12zM782 762h12v2h-12zM798 762h12v2h-12zM814 762h12v2h-12zM830 762h12v2h-12zM846 762h12v2h-12zM862 762h12v2h-12zM878 762h12v2h-12zM894 762h12v2h-12zM910 762h12v2h-12zM926 762h12v2h-12zM942 762h12v2h-12zM958 762h12v2h-12zM974 762h12v2h-12zM1422 762h12v2h-12zM1438 762h12v2h-12zM1454 762h12v2h-12zM1470 762h12v2h-12zM1486 762h12v2h-12zM1502 762h12v2h-12zM1518 762h12v2h-12zM1534 762h12v2h-12zM1550 762h12v2h-12zM1566 762h12v2h-12zM1582 762h12v2h-12zM1598 762h12v2h-12zM1614 762h12v2h-12zM1630 762h12v2h-12zM1038 794h12v2h-12zM1054 794h12v2h-12zM1070 794h12v2h-12zM1086 794h12v2h-12zM1102 794h12v2h-12zM1118 794h12v2h-12zM1214 794h12v2h-12zM1230 794h12v2h-12zM1246 794h12v2h-12zM1262 794h12v2h-12zM1278 794h12v2h-12zM1294 794h12v2h-12zM1310 794h12v2h-12zM1326 794h12v2h-12z" fill="#343331"/>
<path d="M1378 334h4v2h-4zM1378 336h4v2h-4zM1378 338h4v2h-4zM1378 340h4v2h-4zM1378 342h4v2h-4zM1378 344h4v2h-4zM1378 346h4v2h-4zM1378 348h4v2h-4zM1378 350h4v2h-4zM1378 352h4v2h-4zM1378 354h4v2h-4zM1378 356h4v2h-4zM1618 334h4v2h-4zM1618 336h4v2h-4zM1618 338h4v2h-4zM1618 340h4v2h-4zM1618 342h4v2h-4zM1618 344h4v2h-4zM1618 346h4v2h-4zM1618 348h4v2h-4zM1618 350h4v2h-4zM1618 352h4v2h-4zM1618 354h4v2h-4zM1618 356h4v2h-4zM738 366h4v2h-4zM738 368h4v2h-4zM738 370h4v2h-4zM738 372h4v2h-4zM738 374h4v2h-4zM738 376h4v2h-4zM738 378h4v2h-4zM738 380h4v2h-4zM738 382h4v2h-4zM738 384h4v2h-4zM738 386h4v2h-4zM738 388h4v2h-4zM978 366h4v2h-4zM978 368h4v2h-4zM978 370h4v2h-4zM978 372h4v2h-4zM978 374h4v2h-4zM978 376h4v2h-4zM978 378h4v2h-4zM978 380h4v2h-4zM978 382h4v2h-4zM978 384h4v2h-4zM978 386h4v2h-4zM978 388h4v2h-4zM1026 366h4v2h-4zM1026 368h4v2h-4zM1026 370h4v2h-4zM1026 372h4v2h-4zM1026 374h4v2h-4zM1026 376h4v2h-4zM1026 378h4v2h-4zM1026 380h4v2h-4zM1026 382h4v2h-4zM1026 384h4v2h-4zM1026 386h4v2h-4zM1026 388h4v2h-4zM1330 366h4v2h-4zM1330 368h4v2h-4zM1330 370h4v2h-4zM1330 372h4v2h-4zM1330 374h4v2h-4zM1330 376h4v2h-4zM1330 378h4v2h-4zM1330 380h4v2h-4zM1330 382h4v2h-4zM1330 384h4v2h-4zM1330 386h4v2h-4zM1330 388h4v2h-4zM1378 366h4v2h-4zM1378 368h4v2h-4zM1378 370h4v2h-4zM1378 372h4v2h-4zM1378 374h4v2h-4zM1378 376h4v2h-4zM1378 378h4v2h-4zM1378 380h4v2h-4zM1378 382h4v2h-4zM1378 384h4v2h-4zM1378 386h4v2h-4zM1378 388h4v2h-4zM1618 366h4v2h-4zM1618 368h4v2h-4zM1618 370h4v2h-4zM1618 372h4v2h-4zM1618 374h4v2h-4zM1618 376h4v2h-4zM1618 378h4v2h-4zM1618 380h4v2h-4zM1618 382h4v2h-4zM1618 384h4v2h-4zM1618 386h4v2h-4zM1618 388h4v2h-4zM738 398h4v2h-4zM738 400h4v2h-4zM738 402h4v2h-4zM738 404h4v2h-4zM738 406h4v2h-4zM738 408h4v2h-4zM738 410h4v2h-4zM738 412h4v2h-4zM738 414h4v2h-4zM738 416h4v2h-4zM738 418h4v2h-4zM738 420h4v2h-4zM978 398h4v2h-4zM978 400h4v2h-4zM978 402h4v2h-4zM978 404h4v2h-4zM978 406h4v2h-4zM978 408h4v2h-4zM978 410h4v2h-4zM978 412h4v2h-4zM978 414h4v2h-4zM978 416h4v2h-4zM978 418h4v2h-4zM978 420h4v2h-4zM1026 398h4v2h-4zM1026 400h4v2h-4zM1026 402h4v2h-4zM1026 404h4v2h-4zM1026 406h4v2h-4zM1026 408h4v2h-4zM1026 410h4v2h-4zM1026 412h4v2h-4zM1026 414h4v2h-4zM1026 416h4v2h-4zM1026 418h4v2h-4zM1026 420h4v2h-4zM1222 400h4v2h-4zM1214 402h4v2h-4zM1222 402h4v2h-4zM1214 404h4v2h-4zM1220 404h4v2h-4zM1220 406h4v2h-4zM1218 408h4v2h-4zM1218 410h4v2h-4zM1216 412h4v2h-4zM1216 414h4v2h-4zM1222 414h4v2h-4zM1214 416h4v2h-4zM1222 416h4v2h-4zM1214 418h4v2h-4zM1330 398h4v2h-4zM1330 400h4v2h-4zM1330 402h4v2h-4zM1330 404h4v2h-4zM1330 406h4v2h-4zM1330 408h4v2h-4zM1330 410h4v2h-4zM1330 412h4v2h-4zM1330 414h4v2h-4zM1330 416h4v2h-4zM1330 418h4v2h-4zM1330 420h4v2h-4zM1506 406h4v2h-4zM1506 408h4v2h-4zM1502 410h12v2h-12zM1506 412h4v2h-4zM1506 414h4v2h-4zM738 430h4v2h-4zM738 432h4v2h-4zM738 434h4v2h-4zM738 436h4v2h-4zM738 438h4v2h-4zM738 440h4v2h-4zM738 442h4v2h-4zM738 444h4v2h-4zM738 446h4v2h-4zM738 448h4v2h-4zM738 450h4v2h-4zM738 452h4v2h-4zM978 430h4v2h-4zM978 432h4v2h-4zM978 434h4v2h-4zM978 436h4v2h-4zM978 438h4v2h-4zM978 440h4v2h-4zM978 442h4v2h-4zM978 444h4v2h-4zM978 446h4v2h-4zM978 448h4v2h-4zM978 450h4v2h-4zM978 452h4v2h-4zM1186 438h4v2h-4zM1186 440h4v2h-4zM1182 442h12v2h-12zM1186 444h4v2h-4zM1186 446h4v2h-4zM738 462h4v2h-4zM738 464h4v2h-4zM738 466h4v2h-4zM738 468h4v2h-4zM738 470h4v2h-4zM738 472h4v2h-4zM738 474h4v2h-4zM738 476h4v2h-4zM738 478h4v2h-4zM738 480h4v2h-4zM738 482h4v2h-4zM738 484h4v2h-4zM978 462h4v2h-4zM978 464h4v2h-4zM978 466h4v2h-4zM978 468h4v2h-4zM978 470h4v2h-4zM978 472h4v2h-4zM978 474h4v2h-4zM978 476h4v2h-4zM978 478h4v2h-4zM978 480h4v2h-4zM978 482h4v2h-4zM978 484h4v2h-4zM866 502h4v2h-4zM866 504h4v2h-4zM862 506h12v2h-12zM866 508h4v2h-4zM866 510h4v2h-4zM1506 502h4v2h-4zM1506 504h4v2h-4zM1502 506h12v2h-12zM1506 508h4v2h-4zM1506 510h4v2h-4zM1426 526h4v2h-4zM1426 528h4v2h-4zM1426 530h4v2h-4zM1426 532h4v2h-4zM1426 534h4v2h-4zM1426 536h4v2h-4zM1426 538h4v2h-4zM1426 540h4v2h-4zM1426 542h4v2h-4zM1426 544h4v2h-4zM1426 546h4v2h-4zM1426 548h4v2h-4zM1634 526h4v2h-4zM1634 528h4v2h-4zM1634 530h4v2h-4zM1634 532h4v2h-4zM1634 534h4v2h-4zM1634 536h4v2h-4zM1634 538h4v2h-4zM1634 540h4v2h-4zM1634 542h4v2h-4zM1634 544h4v2h-4zM1634 546h4v2h-4zM1634 548h4v2h-4zM1186 566h4v2h-4zM1186 568h4v2h-4zM1182 570h12v2h-12zM1186 572h4v2h-4zM1186 574h4v2h-4zM1426 558h4v2h-4zM1426 560h4v2h-4zM1426 562h4v2h-4zM1426 564h4v2h-4zM1426 566h4v2h-4zM1426 568h4v2h-4zM1426 570h4v2h-4zM1426 572h4v2h-4zM1426 574h4v2h-4zM1426 576h4v2h-4zM1426 578h4v2h-4zM1426 580h4v2h-4zM1634 558h4v2h-4zM1634 560h4v2h-4zM1634 562h4v2h-4zM1634 564h4v2h-4zM1634 566h4v2h-4zM1634 568h4v2h-4zM1634 570h4v2h-4zM1634 572h4v2h-4zM1634 574h4v2h-4zM1634 576h4v2h-4zM1634 578h4v2h-4zM1634 580h4v2h-4zM866 598h4v2h-4zM866 600h4v2h-4zM862 602h12v2h-12zM866 604h4v2h-4zM866 606h4v2h-4zM1042 590h4v2h-4zM1042 592h4v2h-4zM1042 594h4v2h-4zM1042 596h4v2h-4zM1042 598h4v2h-4zM1042 600h4v2h-4zM1042 602h4v2h-4zM1042 604h4v2h-4zM1042 606h4v2h-4zM1042 608h4v2h-4zM1042 610h4v2h-4zM1042 612h4v2h-4zM1330 590h4v2h-4zM1330 592h4v2h-4zM1330 594h4v2h-4zM1330 596h4v2h-4zM1330 598h4v2h-4zM1330 600h4v2h-4zM1330 602h4v2h-4zM1330 604h4v2h-4zM1330 606h4v2h-4zM1330 608h4v2h-4zM1330 610h4v2h-4zM1330 612h4v2h-4zM1426 590h4v2h-4zM1426 592h4v2h-4zM1426 594h4v2h-4zM1426 596h4v2h-4zM1426 598h4v2h-4zM1426 600h4v2h-4zM1426 602h4v2h-4zM1426 604h4v2h-4zM1426 606h4v2h-4zM1426 608h4v2h-4zM1426 610h4v2h-4zM1426 612h4v2h-4zM1478 592h4v2h-4zM1470 594h4v2h-4zM1478 594h4v2h-4zM1470 596h4v2h-4zM1476 596h4v2h-4zM1476 598h4v2h-4zM1474 600h4v2h-4zM1474 602h4v2h-4zM1472 604h4v2h-4zM1472 606h4v2h-4zM1478 606h4v2h-4zM1470 608h4v2h-4zM1478 608h4v2h-4zM1470 610h4v2h-4zM1634 590h4v2h-4zM1634 592h4v2h-4zM1634 594h4v2h-4zM1634 596h4v2h-4zM1634 598h4v2h-4zM1634 600h4v2h-4zM1634 602h4v2h-4zM1634 604h4v2h-4zM1634 606h4v2h-4zM1634 608h4v2h-4zM1634 610h4v2h-4zM1634 612h4v2h-4zM770 622h4v2h-4zM770 624h4v2h-4zM770 626h4v2h-4zM770 628h4v2h-4zM770 630h4v2h-4zM770 632h4v2h-4zM770 634h4v2h-4zM770 636h4v2h-4zM770 638h4v2h-4zM770 640h4v2h-4zM770 642h4v2h-4zM770 644h4v2h-4zM978 622h4v2h-4zM978 624h4v2h-4zM978 626h4v2h-4zM978 628h4v2h-4zM978 630h4v2h-4zM978 632h4v2h-4zM978 634h4v2h-4zM978 636h4v2h-4zM978 638h4v2h-4zM978 640h4v2h-4zM978 642h4v2h-4zM978 644h4v2h-4zM1042 622h4v2h-4zM1042 624h4v2h-4zM1042 626h4v2h-4zM1042 628h4v2h-4zM1042 630h4v2h-4zM1042 632h4v2h-4zM1042 634h4v2h-4zM1042 636h4v2h-4zM1042 638h4v2h-4zM1042 640h4v2h-4zM1042 642h4v2h-4zM1042 644h4v2h-4zM1330 622h4v2h-4zM1330 624h4v2h-4zM1330 626h4v2h-4zM1330 628h4v2h-4zM1330 630h4v2h-4zM1330 632h4v2h-4zM1330 634h4v2h-4zM1330 636h4v2h-4zM1330 638h4v2h-4zM1330 640h4v2h-4zM1330 642h4v2h-4zM1330 644h4v2h-4zM1426 622h4v2h-4zM1426 624h4v2h-4zM1426 626h4v2h-4zM1426 628h4v2h-4zM1426 630h4v2h-4zM1426 632h4v2h-4zM1426 634h4v2h-4zM1426 636h4v2h-4zM1426 638h4v2h-4zM1426 640h4v2h-4zM1426 642h4v2h-4zM1426 644h4v2h-4zM1634 622h4v2h-4zM1634 624h4v2h-4zM1634 626h4v2h-4zM1634 628h4v2h-4zM1634 630h4v2h-4zM1634 632h4v2h-4zM1634 634h4v2h-4zM1634 636h4v2h-4zM1634 638h4v2h-4zM1634 640h4v2h-4zM1634 642h4v2h-4zM1634 644h4v2h-4zM770 654h4v2h-4zM770 656h4v2h-4zM770 658h4v2h-4zM770 660h4v2h-4zM770 662h4v2h-4zM770 664h4v2h-4zM770 666h4v2h-4zM770 668h4v2h-4zM770 670h4v2h-4zM770 672h4v2h-4zM770 674h4v2h-4zM770 676h4v2h-4zM978 654h4v2h-4zM978 656h4v2h-4zM978 658h4v2h-4zM978 660h4v2h-4zM978 662h4v2h-4zM978 664h4v2h-4zM978 666h4v2h-4zM978 668h4v2h-4zM978 670h4v2h-4zM978 672h4v2h-4zM978 674h4v2h-4zM978 676h4v2h-4zM1042 654h4v2h-4zM1042 656h4v2h-4zM1042 658h4v2h-4zM1042 660h4v2h-4zM1042 662h4v2h-4zM1042 664h4v2h-4zM1042 666h4v2h-4zM1042 668h4v2h-4zM1042 670h4v2h-4zM1042 672h4v2h-4zM1042 674h4v2h-4zM1042 676h4v2h-4zM1330 654h4v2h-4zM1330 656h4v2h-4zM1330 658h4v2h-4zM1330 660h4v2h-4zM1330 662h4v2h-4zM1330 664h4v2h-4zM1330 666h4v2h-4zM1330 668h4v2h-4zM1330 670h4v2h-4zM1330 672h4v2h-4zM1330 674h4v2h-4zM1330 676h4v2h-4zM1426 654h4v2h-4zM1426 656h4v2h-4zM1426 658h4v2h-4zM1426 660h4v2h-4zM1426 662h4v2h-4zM1426 664h4v2h-4zM1426 666h4v2h-4zM1426 668h4v2h-4zM1426 670h4v2h-4zM1426 672h4v2h-4zM1426 674h4v2h-4zM1426 676h4v2h-4zM1634 654h4v2h-4zM1634 656h4v2h-4zM1634 658h4v2h-4zM1634 660h4v2h-4zM1634 662h4v2h-4zM1634 664h4v2h-4zM1634 666h4v2h-4zM1634 668h4v2h-4zM1634 670h4v2h-4zM1634 672h4v2h-4zM1634 674h4v2h-4zM1634 676h4v2h-4zM770 686h4v2h-4zM770 688h4v2h-4zM770 690h4v2h-4zM770 692h4v2h-4zM770 694h4v2h-4zM770 696h4v2h-4zM770 698h4v2h-4zM770 700h4v2h-4zM770 702h4v2h-4zM770 704h4v2h-4zM770 706h4v2h-4zM770 708h4v2h-4zM978 686h4v2h-4zM978 688h4v2h-4zM978 690h4v2h-4zM978 692h4v2h-4zM978 694h4v2h-4zM978 696h4v2h-4zM978 698h4v2h-4zM978 700h4v2h-4zM978 702h4v2h-4zM978 704h4v2h-4zM978 706h4v2h-4zM978 708h4v2h-4zM1042 686h4v2h-4zM1042 688h4v2h-4zM1042 690h4v2h-4zM1042 692h4v2h-4zM1042 694h4v2h-4zM1042 696h4v2h-4zM1042 698h4v2h-4zM1042 700h4v2h-4zM1042 702h4v2h-4zM1042 704h4v2h-4zM1042 706h4v2h-4zM1042 708h4v2h-4zM1330 686h4v2h-4zM1330 688h4v2h-4zM1330 690h4v2h-4zM1330 692h4v2h-4zM1330 694h4v2h-4zM1330 696h4v2h-4zM1330 698h4v2h-4zM1330 700h4v2h-4zM1330 702h4v2h-4zM1330 704h4v2h-4zM1330 706h4v2h-4zM1330 708h4v2h-4zM1426 686h4v2h-4zM1426 688h4v2h-4zM1426 690h4v2h-4zM1426 692h4v2h-4zM1426 694h4v2h-4zM1426 696h4v2h-4zM1426 698h4v2h-4zM1426 700h4v2h-4zM1426 702h4v2h-4zM1426 704h4v2h-4zM1426 706h4v2h-4zM1426 708h4v2h-4zM1634 686h4v2h-4zM1634 688h4v2h-4zM1634 690h4v2h-4zM1634 692h4v2h-4zM1634 694h4v2h-4zM1634 696h4v2h-4zM1634 698h4v2h-4zM1634 700h4v2h-4zM1634 702h4v2h-4zM1634 704h4v2h-4zM1634 706h4v2h-4zM1634 708h4v2h-4zM770 718h4v2h-4zM770 720h4v2h-4zM770 722h4v2h-4zM770 724h4v2h-4zM770 726h4v2h-4zM770 728h4v2h-4zM770 730h4v2h-4zM770 732h4v2h-4zM770 734h4v2h-4zM770 736h4v2h-4zM770 738h4v2h-4zM770 740h4v2h-4zM978 718h4v2h-4zM978 720h4v2h-4zM978 722h4v2h-4zM978 724h4v2h-4zM978 726h4v2h-4zM978 728h4v2h-4zM978 730h4v2h-4zM978 732h4v2h-4zM978 734h4v2h-4zM978 736h4v2h-4zM978 738h4v2h-4zM978 740h4v2h-4zM1042 718h4v2h-4zM1042 720h4v2h-4zM1042 722h4v2h-4zM1042 724h4v2h-4zM1042 726h4v2h-4zM1042 728h4v2h-4zM1042 730h4v2h-4zM1042 732h4v2h-4zM1042 734h4v2h-4zM1042 736h4v2h-4zM1042 738h4v2h-4zM1042 740h4v2h-4zM1330 718h4v2h-4zM1330 720h4v2h-4zM1330 722h4v2h-4zM1330 724h4v2h-4zM1330 726h4v2h-4zM1330 728h4v2h-4zM1330 730h4v2h-4zM1330 732h4v2h-4zM1330 734h4v2h-4zM1330 736h4v2h-4zM1330 738h4v2h-4zM1330 740h4v2h-4zM1426 718h4v2h-4zM1426 720h4v2h-4zM1426 722h4v2h-4zM1426 724h4v2h-4zM1426 726h4v2h-4zM1426 728h4v2h-4zM1426 730h4v2h-4zM1426 732h4v2h-4zM1426 734h4v2h-4zM1426 736h4v2h-4zM1426 738h4v2h-4zM1426 740h4v2h-4zM1454 720h4v2h-4zM1456 722h4v2h-4zM1458 724h4v2h-4zM1460 726h4v2h-4zM1462 728h4v2h-4zM1462 730h4v2h-4zM1460 732h4v2h-4zM1458 734h4v2h-4zM1456 736h4v2h-4zM1454 738h4v2h-4zM1634 718h4v2h-4zM1634 720h4v2h-4zM1634 722h4v2h-4zM1634 724h4v2h-4zM1634 726h4v2h-4zM1634 728h4v2h-4zM1634 730h4v2h-4zM1634 732h4v2h-4zM1634 734h4v2h-4zM1634 736h4v2h-4zM1634 738h4v2h-4zM1634 740h4v2h-4zM1042 750h4v2h-4zM1042 752h4v2h-4zM1042 754h4v2h-4zM1042 756h4v2h-4zM1042 758h4v2h-4zM1042 760h4v2h-4zM1042 762h4v2h-4zM1042 764h4v2h-4zM1042 766h4v2h-4zM1042 768h4v2h-4zM1042 770h4v2h-4zM1042 772h4v2h-4zM1330 750h4v2h-4zM1330 752h4v2h-4zM1330 754h4v2h-4zM1330 756h4v2h-4zM1330 758h4v2h-4zM1330 760h4v2h-4zM1330 762h4v2h-4zM1330 764h4v2h-4zM1330 766h4v2h-4zM1330 768h4v2h-4zM1330 770h4v2h-4zM1330 772h4v2h-4z" fill="#403E3C"/>
<path d="M1138 608h4v2h-4zM1138 610h4v2h-4zM1154 608h4v2h-4zM1154 610h4v2h-4zM1170 608h4v2h-4zM1170 610h4v2h-4zM1186 608h4v2h-4zM1186 610h4v2h-4zM1202 608h4v2h-4zM1202 610h4v2h-4zM1106 640h4v2h-4zM1106 642h4v2h-4zM1234 640h4v2h-4zM1234 642h4v2h-4zM1074 672h4v2h-4zM1074 674h4v2h-4zM1090 672h4v2h-4zM1090 674h4v2h-4zM1250 672h4v2h-4zM1250 674h4v2h-4zM1266 672h4v2h-4zM1266 674h4v2h-4zM1074 704h4v2h-4zM1074 706h4v2h-4zM1266 704h4v2h-4zM1266 706h4v2h-4zM1074 736h4v2h-4zM1074 738h4v2h-4zM1090 736h4v2h-4zM1090 738h4v2h-4zM1250 736h4v2h-4zM1250 738h4v2h-4zM1266 736h4v2h-4zM1266 738h4v2h-4zM1106 768h4v2h-4zM1106 770h4v2h-4zM1234 768h4v2h-4zM1234 770h4v2h-4z" fill="#55291F"/>
<path d="M1122 640h4v2h-4zM1122 642h4v2h-4zM1138 640h4v2h-4zM1138 642h4v2h-4zM1154 640h4v2h-4zM1154 642h4v2h-4zM1170 640h4v2h-4zM1170 642h4v2h-4zM1186 640h4v2h-4zM1186 642h4v2h-4zM1202 640h4v2h-4zM1202 642h4v2h-4zM1218 640h4v2h-4zM1218 642h4v2h-4zM1106 672h4v2h-4zM1106 674h4v2h-4zM1122 672h4v2h-4zM1122 674h4v2h-4zM1218 672h4v2h-4zM1218 674h4v2h-4zM1234 672h4v2h-4zM1234 674h4v2h-4zM1090 704h4v2h-4zM1090 706h4v2h-4zM1106 704h4v2h-4zM1106 706h4v2h-4zM1234 704h4v2h-4zM1234 706h4v2h-4zM1250 704h4v2h-4zM1250 706h4v2h-4zM1106 736h4v2h-4zM1106 738h4v2h-4zM1122 736h4v2h-4zM1122 738h4v2h-4zM1222 720h4v2h-4zM1222 722h4v2h-4zM1222 724h4v2h-4zM1214 726h12v2h-12zM1212 728h4v2h-4zM1222 728h4v2h-4zM1212 730h4v2h-4zM1222 730h4v2h-4zM1212 732h4v2h-4zM1222 732h4v2h-4zM1212 734h4v2h-4zM1222 734h4v2h-4zM1212 736h4v2h-4zM1222 736h4v2h-4zM1214 738h12v2h-12zM1234 736h4v2h-4zM1234 738h4v2h-4zM1122 768h4v2h-4zM1122 770h4v2h-4zM1138 768h4v2h-4zM1138 770h4v2h-4zM1154 768h4v2h-4zM1154 770h4v2h-4zM1170 768h4v2h-4zM1170 770h4v2h-4zM1186 768h4v2h-4zM1186 770h4v2h-4zM1202 768h4v2h-4zM1202 770h4v2h-4zM1218 768h4v2h-4zM1218 770h4v2h-4z" fill="#71311E"/>
<path d="M1138 672h4v2h-4zM1138 674h4v2h-4zM1154 672h4v2h-4zM1154 674h4v2h-4zM1170 672h4v2h-4zM1170 674h4v2h-4zM1186 672h4v2h-4zM1186 674h4v2h-4zM1202 672h4v2h-4zM1202 674h4v2h-4zM1122 704h4v2h-4zM1122 706h4v2h-4zM1138 704h4v2h-4zM1138 706h4v2h-4zM1202 704h4v2h-4zM1202 706h4v2h-4zM1218 704h4v2h-4zM1218 706h4v2h-4zM1138 736h4v2h-4zM1138 738h4v2h-4zM1154 736h4v2h-4zM1154 738h4v2h-4zM1170 736h4v2h-4zM1170 738h4v2h-4zM1186 736h4v2h-4zM1186 738h4v2h-4zM1202 736h4v2h-4zM1202 738h4v2h-4z" fill="#B14D2F"/>
<path d="M1154 704h4v2h-4zM1154 706h4v2h-4zM1166 690h10v2h-10zM1164 692h4v2h-4zM1176 692h2v2h-2zM1164 694h4v2h-4zM1170 694h4v2h-4zM1176 694h2v2h-2zM1164 696h4v2h-4zM1170 696h4v2h-4zM1176 696h2v2h-2zM1164 698h4v2h-4zM1170 698h4v2h-4zM1176 698h2v2h-2zM1164 700h4v2h-4zM1170 700h4v2h-4zM1176 700h2v2h-2zM1164 702h4v2h-4zM1170 702h8v2h-8zM1164 704h4v2h-4zM1166 706h10v2h-10zM1186 704h4v2h-4zM1186 706h4v2h-4z" fill="#CF6A4C"/>
<path d="M1134 794h12v2h-12zM1150 794h12v2h-12zM1166 794h12v2h-12zM1182 794h12v2h-12zM1198 794h12v2h-12z" fill="#6B3528"/>
</svg>
