<svg xmlns="http://www.w3.org/2000/svg" viewBox="0 0 1920 1080" width="1920" height="1080">
<rect x="0" y="0" width="1920" height="1080" fill="#1C1B1A"/>
<path d="M1048 44h2v2h-2zM996 52h2v2h-2zM852 64h2v2h-2zM900 64h2v2h-2zM1108 64h2v2h-2zM1156 64h2v2h-2zM960 76h2v2h-2zM1068 80h2v2h-2zM996 88h2v2h-2zM872 104h2v2h-2zM976 104h2v2h-2zM1032 104h2v2h-2zM1128 104h2v2h-2zM916 108h2v2h-2zM1052 108h2v2h-2zM1172 108h2v2h-2zM832 120h2v2h-2zM944 120h2v2h-2zM1000 120h2v2h-2zM1088 120h2v2h-2zM1200 120h2v2h-2zM764 128h2v2h-2zM1020 128h2v2h-2zM1276 128h2v2h-2zM800 140h2v2h-2zM860 140h2v2h-2zM972 140h2v2h-2zM1056 140h2v2h-2zM1076 140h2v2h-2zM1116 140h2v2h-2zM1228 140h2v2h-2zM892 144h2v2h-2zM932 144h2v2h-2zM952 144h2v2h-2zM1148 144h2v2h-2zM1000 148h2v2h-2zM916 156h2v2h-2zM964 156h2v2h-2zM1172 156h2v2h-2zM876 160h2v2h-2zM1020 160h2v2h-2zM1132 160h2v2h-2zM788 164h2v2h-2zM816 164h2v2h-2zM936 164h2v2h-2zM988 164h2v2h-2zM1044 164h2v2h-2zM1072 164h2v2h-2zM848 168h2v2h-2zM1104 168h2v2h-2zM696 172h2v2h-2zM920 172h2v2h-2zM952 172h2v2h-2zM1088 172h2v2h-2zM1208 172h2v2h-2zM1012 176h2v2h-2zM864 180h2v2h-2zM896 180h2v2h-2zM972 180h2v2h-2zM1120 180h2v2h-2zM1152 180h2v2h-2zM1068 184h2v2h-2zM1104 184h2v2h-2zM936 188h2v2h-2zM988 188h2v2h-2zM1192 188h2v2h-2zM1244 188h2v2h-2zM792 192h2v2h-2zM880 192h2v2h-2zM1048 192h2v2h-2zM1136 192h2v2h-2zM1304 192h2v2h-2zM920 196h2v2h-2zM1092 196h2v2h-2zM1116 196h2v2h-2zM1148 196h2v2h-2zM1176 196h2v2h-2zM968 200h2v2h-2zM1032 200h2v2h-2zM1080 200h2v2h-2zM808 208h2v2h-2zM952 208h2v2h-2zM988 208h2v2h-2zM1064 208h2v2h-2zM1164 208h2v2h-2zM756 212h2v2h-2zM848 212h2v2h-2zM864 212h2v2h-2zM932 212h2v2h-2zM1012 212h2v2h-2zM1104 212h2v2h-2zM1120 212h2v2h-2zM1188 212h2v2h-2zM1268 212h2v2h-2zM784 216h2v2h-2zM888 216h2v2h-2zM1040 216h2v2h-2zM1144 216h2v2h-2zM1296 216h2v2h-2zM708 220h2v2h-2zM964 220h2v2h-2zM1056 220h2v2h-2zM1076 220h2v2h-2zM1092 220h2v2h-2zM1220 220h2v2h-2zM912 224h2v2h-2zM980 224h2v2h-2zM1016 224h2v2h-2zM1168 224h2v2h-2zM940 228h2v2h-2zM1120 228h2v2h-2zM1196 228h2v2h-2zM740 232h2v2h-2zM812 232h2v2h-2zM836 232h2v2h-2zM852 232h2v2h-2zM880 232h2v2h-2zM996 232h2v2h-2zM1068 232h2v2h-2zM1092 232h2v2h-2zM1108 232h2v2h-2zM1136 232h2v2h-2zM1252 232h2v2h-2zM1324 232h2v2h-2zM772 236h2v2h-2zM1028 236h2v2h-2zM1284 236h2v2h-2zM900 240h2v2h-2zM1048 240h2v2h-2zM1156 240h2v2h-2zM940 244h2v2h-2zM964 244h2v2h-2zM1132 244h2v2h-2zM1196 244h2v2h-2zM1220 244h2v2h-2zM804 248h2v2h-2zM820 248h2v2h-2zM836 248h2v2h-2zM980 248h2v2h-2zM1004 248h2v2h-2zM1024 248h2v2h-2zM1060 248h2v2h-2zM1076 248h2v2h-2zM1092 248h2v2h-2zM856 252h2v2h-2zM928 252h2v2h-2zM1112 252h2v2h-2zM736 256h2v2h-2zM784 256h2v2h-2zM892 256h2v2h-2zM992 256h2v2h-2zM1040 256h2v2h-2zM1148 256h2v2h-2zM1248 256h2v2h-2zM1296 256h2v2h-2zM756 260h2v2h-2zM828 260h2v2h-2zM868 260h2v2h-2zM972 260h2v2h-2zM1012 260h2v2h-2zM1072 260h2v2h-2zM1084 260h2v2h-2zM1124 260h2v2h-2zM1228 260h2v2h-2zM1268 260h2v2h-2zM1340 260h2v2h-2zM920 264h2v2h-2zM1024 264h2v2h-2zM1176 264h2v2h-2zM800 268h2v2h-2zM900 268h2v2h-2zM936 268h2v2h-2zM1044 268h2v2h-2zM1056 268h2v2h-2zM1156 268h2v2h-2zM816 272h2v2h-2zM852 272h2v2h-2zM880 272h2v2h-2zM960 272h2v2h-2zM1072 272h2v2h-2zM1108 272h2v2h-2zM1136 272h2v2h-2zM1216 272h2v2h-2zM1392 272h2v2h-2zM744 276h2v2h-2zM768 276h2v2h-2zM836 276h2v2h-2zM1000 276h2v2h-2zM1012 276h2v2h-2zM1024 276h2v2h-2zM1092 276h2v2h-2zM1256 276h2v2h-2zM1280 276h2v2h-2zM684 280h2v2h-2zM940 280h2v2h-2zM988 280h2v2h-2zM1040 280h2v2h-2zM1196 280h2v2h-2zM716 284h2v2h-2zM792 284h2v2h-2zM812 284h2v2h-2zM888 284h2v2h-2zM972 284h2v2h-2zM1048 284h2v2h-2zM1068 284h2v2h-2zM1144 284h2v2h-2zM1228 284h2v2h-2zM864 288h2v2h-2zM912 288h2v2h-2zM1016 288h2v2h-2zM1028 288h2v2h-2zM1120 288h2v2h-2zM1168 288h2v2h-2zM748 292h2v2h-2zM832 292h2v2h-2zM928 292h2v2h-2zM956 292h2v2h-2zM1004 292h2v2h-2zM1088 292h2v2h-2zM1184 292h2v2h-2zM1212 292h2v2h-2zM1260 292h2v2h-2zM1344 292h2v2h-2zM852 296h2v2h-2zM880 296h2v2h-2zM968 296h2v2h-2zM988 296h2v2h-2zM1036 296h2v2h-2zM1064 296h2v2h-2zM1108 296h2v2h-2zM1136 296h2v2h-2zM1244 296h2v2h-2zM792 300h2v2h-2zM820 300h2v2h-2zM1048 300h2v2h-2zM1076 300h2v2h-2zM1120 300h2v2h-2zM1304 300h2v2h-2zM772 304h2v2h-2zM908 304h2v2h-2zM940 304h2v2h-2zM1012 304h2v2h-2zM1028 304h2v2h-2zM1164 304h2v2h-2zM1196 304h2v2h-2zM1284 304h2v2h-2zM700 308h2v2h-2zM740 308h2v2h-2zM840 308h2v2h-2zM888 308h2v2h-2zM924 308h2v2h-2zM956 308h2v2h-2zM968 308h2v2h-2zM996 308h2v2h-2zM1040 308h2v2h-2zM1064 308h2v2h-2zM1084 308h2v2h-2zM1096 308h2v2h-2zM1144 308h2v2h-2zM1180 308h2v2h-2zM1212 308h2v2h-2zM1252 308h2v2h-2zM876 312h2v2h-2zM980 312h2v2h-2zM1020 312h2v2h-2zM1048 312h2v2h-2zM1132 312h2v2h-2zM1236 312h2v2h-2zM820 316h2v2h-2zM992 316h2v2h-2zM1008 316h2v2h-2zM1032 316h2v2h-2zM1076 316h2v2h-2zM1332 316h2v2h-2zM596 320h2v2h-2zM644 320h2v2h-2zM760 320h2v2h-2zM804 320h2v2h-2zM852 320h2v2h-2zM900 320h2v2h-2zM916 320h2v2h-2zM940 320h2v2h-2zM964 320h2v2h-2zM1016 320h2v2h-2zM1044 320h2v2h-2zM1060 320h2v2h-2zM1088 320h2v2h-2zM1108 320h2v2h-2zM1120 320h2v2h-2zM1156 320h2v2h-2zM1172 320h2v2h-2zM1196 320h2v2h-2zM1220 320h2v2h-2zM1272 320h2v2h-2zM1316 320h2v2h-2zM1364 320h2v2h-2zM1412 320h2v2h-2zM724 324h2v2h-2zM980 324h2v2h-2zM1072 324h2v2h-2zM1236 324h2v2h-2zM784 328h2v2h-2zM836 328h2v2h-2zM872 328h2v2h-2zM948 328h2v2h-2zM1004 328h2v2h-2zM1028 328h2v2h-2zM1040 328h2v2h-2zM1052 328h2v2h-2zM1092 328h2v2h-2zM1128 328h2v2h-2zM1204 328h2v2h-2zM1260 328h2v2h-2zM1296 328h2v2h-2zM668 332h2v2h-2zM704 332h2v2h-2zM892 332h2v2h-2zM908 332h2v2h-2zM924 332h2v2h-2zM960 332h2v2h-2zM992 332h2v2h-2zM1060 332h2v2h-2zM1080 332h2v2h-2zM1148 332h2v2h-2zM1164 332h2v2h-2zM1180 332h2v2h-2zM1216 332h2v2h-2zM1248 332h2v2h-2zM812 336h2v2h-2zM980 336h2v2h-2zM1012 336h2v2h-2zM1024 336h2v2h-2zM1068 336h2v2h-2zM1324 336h2v2h-2zM832 340h2v2h-2zM848 340h2v2h-2zM972 340h2v2h-2zM1004 340h2v2h-2zM1040 340h2v2h-2zM1052 340h2v2h-2zM1088 340h2v2h-2zM1104 340h2v2h-2zM1228 340h2v2h-2zM740 344h2v2h-2zM772 344h2v2h-2zM864 344h2v2h-2zM884 344h2v2h-2zM940 344h2v2h-2zM952 344h2v2h-2zM996 344h2v2h-2zM1028 344h2v2h-2zM1076 344h2v2h-2zM1120 344h2v2h-2zM1140 344h2v2h-2zM1196 344h2v2h-2zM1252 344h2v2h-2zM1284 344h2v2h-2zM756 348h2v2h-2zM788 348h2v2h-2zM924 348h2v2h-2zM964 348h2v2h-2zM984 348h2v2h-2zM1012 348h2v2h-2zM1044 348h2v2h-2zM1068 348h2v2h-2zM1180 348h2v2h-2zM1220 348h2v2h-2zM1240 348h2v2h-2zM1268 348h2v2h-2zM1300 348h2v2h-2zM852 352h2v2h-2zM892 352h2v2h-2zM908 352h2v2h-2zM976 352h2v2h-2zM1000 352h2v2h-2zM1024 352h2v2h-2zM1052 352h2v2h-2zM1060 352h2v2h-2zM1108 352h2v2h-2zM1148 352h2v2h-2zM1164 352h2v2h-2zM1316 352h2v2h-2zM840 356h2v2h-2zM936 356h2v2h-2zM948 356h2v2h-2zM960 356h2v2h-2zM1012 356h2v2h-2zM1040 356h2v2h-2zM1096 356h2v2h-2zM1192 356h2v2h-2zM1204 356h2v2h-2zM1352 356h2v2h-2zM616 360h2v2h-2zM720 360h2v2h-2zM776 360h2v2h-2zM820 360h2v2h-2zM872 360h2v2h-2zM976 360h2v2h-2zM992 360h2v2h-2zM1032 360h2v2h-2zM1064 360h2v2h-2zM1076 360h2v2h-2zM1084 360h2v2h-2zM1128 360h2v2h-2zM1232 360h2v2h-2zM1248 360h2v2h-2zM1288 360h2v2h-2zM1332 360h2v2h-2zM1384 360h2v2h-2zM660 364h2v2h-2zM760 364h2v2h-2zM796 364h2v2h-2zM896 364h2v2h-2zM916 364h2v2h-2zM928 364h2v2h-2zM944 364h2v2h-2zM960 364h2v2h-2zM1004 364h2v2h-2zM1016 364h2v2h-2zM1024 364h2v2h-2zM1052 364h2v2h-2zM1120 364h2v2h-2zM1140 364h2v2h-2zM1152 364h2v2h-2zM1172 364h2v2h-2zM1216 364h2v2h-2zM1272 364h2v2h-2zM1308 364h2v2h-2zM1428 364h2v2h-2zM848 368h2v2h-2zM992 368h2v2h-2zM1040 368h2v2h-2zM1064 368h2v2h-2zM1096 368h2v2h-2zM1104 368h2v2h-2zM876 372h2v2h-2zM932 372h2v2h-2zM980 372h2v2h-2zM1008 372h2v2h-2zM1028 372h2v2h-2zM1132 372h2v2h-2zM1188 372h2v2h-2zM1236 372h2v2h-2zM576 376h2v2h-2zM688 376h2v2h-2zM712 376h2v2h-2zM744 376h2v2h-2zM820 376h2v2h-2zM832 376h2v2h-2zM856 376h2v2h-2zM888 376h2v2h-2zM908 376h2v2h-2zM944 376h2v2h-2zM960 376h2v2h-2zM968 376h2v2h-2zM988 376h2v2h-2zM1000 376h2v2h-2zM1012 376h2v2h-2zM1048 376h2v2h-2zM1076 376h2v2h-2zM1088 376h2v2h-2zM1112 376h2v2h-2zM1144 376h2v2h-2zM1164 376h2v2h-2zM1200 376h2v2h-2zM1224 376h2v2h-2zM1256 376h2v2h-2zM1344 376h2v2h-2zM1368 376h2v2h-2zM784 380h2v2h-2zM808 380h2v2h-2zM1028 380h2v2h-2zM1040 380h2v2h-2zM1064 380h2v2h-2zM1296 380h2v2h-2zM1320 380h2v2h-2zM764 384h2v2h-2zM844 384h2v2h-2zM872 384h2v2h-2zM896 384h2v2h-2zM928 384h2v2h-2zM952 384h2v2h-2zM976 384h2v2h-2zM1020 384h2v2h-2zM1052 384h2v2h-2zM1072 384h2v2h-2zM1100 384h2v2h-2zM1128 384h2v2h-2zM1152 384h2v2h-2zM1184 384h2v2h-2zM1276 384h2v2h-2zM732 388h2v2h-2zM884 388h2v2h-2zM960 388h2v2h-2zM988 388h2v2h-2zM996 388h2v2h-2zM1004 388h2v2h-2zM1016 388h2v2h-2zM1084 388h2v2h-2zM1140 388h2v2h-2zM1216 388h2v2h-2zM1244 388h2v2h-2zM1260 388h2v2h-2zM908 392h2v2h-2zM944 392h2v2h-2zM1032 392h2v2h-2zM1044 392h2v2h-2zM1064 392h2v2h-2zM1164 392h2v2h-2zM1200 392h2v2h-2zM716 396h2v2h-2zM800 396h2v2h-2zM820 396h2v2h-2zM840 396h2v2h-2zM860 396h2v2h-2zM920 396h2v2h-2zM972 396h2v2h-2zM980 396h2v2h-2zM1008 396h2v2h-2zM1020 396h2v2h-2zM1056 396h2v2h-2zM1076 396h2v2h-2zM1096 396h2v2h-2zM1116 396h2v2h-2zM1176 396h2v2h-2zM1228 396h2v2h-2zM1312 396h2v2h-2zM1332 396h2v2h-2zM1352 396h2v2h-2zM1372 396h2v2h-2zM636 400h2v2h-2zM696 400h2v2h-2zM872 400h2v2h-2zM892 400h2v2h-2zM932 400h2v2h-2zM952 400h2v2h-2zM988 400h2v2h-2zM1024 400h2v2h-2zM1088 400h2v2h-2zM1128 400h2v2h-2zM1148 400h2v2h-2zM1188 400h2v2h-2zM1208 400h2v2h-2zM1404 400h2v2h-2zM744 404h2v2h-2zM784 404h2v2h-2zM808 404h2v2h-2zM940 404h2v2h-2zM968 404h2v2h-2zM1000 404h2v2h-2zM1012 404h2v2h-2zM1040 404h2v2h-2zM1048 404h2v2h-2zM1064 404h2v2h-2zM1256 404h2v2h-2zM1268 404h2v2h-2zM1296 404h2v2h-2zM832 408h2v2h-2zM848 408h2v2h-2zM904 408h2v2h-2zM980 408h2v2h-2zM1028 408h2v2h-2zM1076 408h2v2h-2zM1088 408h2v2h-2zM1104 408h2v2h-2zM1160 408h2v2h-2zM1236 408h2v2h-2zM660 412h2v2h-2zM708 412h2v2h-2zM860 412h2v2h-2zM888 412h2v2h-2zM916 412h2v2h-2zM928 412h2v2h-2zM964 412h2v2h-2zM992 412h2v2h-2zM1008 412h2v2h-2zM1052 412h2v2h-2zM1060 412h2v2h-2zM1116 412h2v2h-2zM1144 412h2v2h-2zM1172 412h2v2h-2zM1184 412h2v2h-2zM1220 412h2v2h-2zM764 416h2v2h-2zM840 416h2v2h-2zM876 416h2v2h-2zM900 416h2v2h-2zM944 416h2v2h-2zM952 416h2v2h-2zM1020 416h2v2h-2zM1032 416h2v2h-2zM1096 416h2v2h-2zM1132 416h2v2h-2zM1208 416h2v2h-2zM1276 416h2v2h-2zM1388 416h2v2h-2zM732 420h2v2h-2zM788 420h2v2h-2zM816 420h2v2h-2zM936 420h2v2h-2zM976 420h2v2h-2zM988 420h2v2h-2zM1000 420h2v2h-2zM1012 420h2v2h-2zM1044 420h2v2h-2zM1072 420h2v2h-2zM1088 420h2v2h-2zM1192 420h2v2h-2zM1244 420h2v2h-2zM1256 420h2v2h-2zM1300 420h2v2h-2zM1328 420h2v2h-2zM592 424h2v2h-2zM804 424h2v2h-2zM848 424h2v2h-2zM868 424h2v2h-2zM904 424h2v2h-2zM968 424h2v2h-2zM1060 424h2v2h-2zM1104 424h2v2h-2zM1124 424h2v2h-2zM1160 424h2v2h-2zM1224 424h2v2h-2zM1360 424h2v2h-2zM696 428h2v2h-2zM832 428h2v2h-2zM856 428h2v2h-2zM888 428h2v2h-2zM920 428h2v2h-2zM952 428h2v2h-2zM1004 428h2v2h-2zM1020 428h2v2h-2zM1036 428h2v2h-2zM1052 428h2v2h-2zM1088 428h2v2h-2zM1144 428h2v2h-2zM1176 428h2v2h-2zM1208 428h2v2h-2zM1344 428h2v2h-2zM1464 428h2v2h-2zM740 432h2v2h-2zM756 432h2v2h-2zM772 432h2v2h-2zM876 432h2v2h-2zM932 432h2v2h-2zM984 432h2v2h-2zM996 432h2v2h-2zM1012 432h2v2h-2zM1028 432h2v2h-2zM1076 432h2v2h-2zM1132 432h2v2h-2zM1188 432h2v2h-2zM1240 432h2v2h-2zM1252 432h2v2h-2zM1268 432h2v2h-2zM1284 432h2v2h-2zM640 436h2v2h-2zM716 436h2v2h-2zM788 436h2v2h-2zM800 436h2v2h-2zM864 436h2v2h-2zM896 436h2v2h-2zM912 436h2v2h-2zM960 436h2v2h-2zM972 436h2v2h-2zM1044 436h2v2h-2zM1056 436h2v2h-2zM1120 436h2v2h-2zM1152 436h2v2h-2zM1168 436h2v2h-2zM1228 436h2v2h-2zM1376 436h2v2h-2zM1408 436h2v2h-2zM812 440h2v2h-2zM824 440h2v2h-2zM840 440h2v2h-2zM848 440h2v2h-2zM884 440h2v2h-2zM924 440h2v2h-2zM948 440h2v2h-2zM1008 440h2v2h-2zM1016 440h2v2h-2zM1028 440h2v2h-2zM1068 440h2v2h-2zM1080 440h2v2h-2zM1096 440h2v2h-2zM1104 440h2v2h-2zM1180 440h2v2h-2zM1204 440h2v2h-2zM1324 440h2v2h-2zM680 444h2v2h-2zM732 444h2v2h-2zM936 444h2v2h-2zM960 444h2v2h-2zM976 444h2v2h-2zM988 444h2v2h-2zM996 444h2v2h-2zM1192 444h2v2h-2zM1216 444h2v2h-2zM1244 444h2v2h-2zM764 448h2v2h-2zM792 448h2v2h-2zM880 448h2v2h-2zM908 448h2v2h-2zM1020 448h2v2h-2zM1036 448h2v2h-2zM1048 448h2v2h-2zM1056 448h2v2h-2zM1076 448h2v2h-2zM1136 448h2v2h-2zM1164 448h2v2h-2zM1276 448h2v2h-2zM1304 448h2v2h-2zM1392 448h2v2h-2zM744 452h2v2h-2zM808 452h2v2h-2zM836 452h2v2h-2zM860 452h2v2h-2zM892 452h2v2h-2zM920 452h2v2h-2zM948 452h2v2h-2zM980 452h2v2h-2zM1000 452h2v2h-2zM1012 452h2v2h-2zM1064 452h2v2h-2zM1092 452h2v2h-2zM1116 452h2v2h-2zM1148 452h2v2h-2zM1176 452h2v2h-2zM1204 452h2v2h-2zM1236 452h2v2h-2zM1256 452h2v2h-2zM712 456h2v2h-2zM776 456h2v2h-2zM824 456h2v2h-2zM848 456h2v2h-2zM936 456h2v2h-2zM968 456h2v2h-2zM992 456h2v2h-2zM1024 456h2v2h-2zM1032 456h2v2h-2zM1040 456h2v2h-2zM1080 456h2v2h-2zM1104 456h2v2h-2zM1184 456h2v2h-2zM1192 456h2v2h-2zM1224 456h2v2h-2zM1288 456h2v2h-2zM1336 456h2v2h-2zM796 460h2v2h-2zM872 460h2v2h-2zM1008 460h2v2h-2zM1052 460h2v2h-2zM1128 460h2v2h-2zM696 464h2v2h-2zM732 464h2v2h-2zM808 464h2v2h-2zM816 464h2v2h-2zM832 464h2v2h-2zM880 464h2v2h-2zM896 464h2v2h-2zM908 464h2v2h-2zM952 464h2v2h-2zM968 464h2v2h-2zM988 464h2v2h-2zM1000 464h2v2h-2zM1020 464h2v2h-2zM1044 464h2v2h-2zM1064 464h2v2h-2zM1072 464h2v2h-2zM1088 464h2v2h-2zM1096 464h2v2h-2zM1136 464h2v2h-2zM1152 464h2v2h-2zM1164 464h2v2h-2zM1208 464h2v2h-2zM1224 464h2v2h-2zM1244 464h2v2h-2zM1320 464h2v2h-2zM608 468h2v2h-2zM676 468h2v2h-2zM756 468h2v2h-2zM772 468h2v2h-2zM848 468h2v2h-2zM864 468h2v2h-2zM920 468h2v2h-2zM932 468h2v2h-2zM1012 468h2v2h-2zM1028 468h2v2h-2zM1104 468h2v2h-2zM1120 468h2v2h-2zM1176 468h2v2h-2zM1188 468h2v2h-2zM1268 468h2v2h-2zM1376 468h2v2h-2zM632 472h2v2h-2zM784 472h2v2h-2zM888 472h2v2h-2zM976 472h2v2h-2zM1040 472h2v2h-2zM1084 472h2v2h-2zM1144 472h2v2h-2zM1232 472h2v2h-2zM1296 472h2v2h-2zM1400 472h2v2h-2zM708 476h2v2h-2zM744 476h2v2h-2zM800 476h2v2h-2zM820 476h2v2h-2zM836 476h2v2h-2zM856 476h2v2h-2zM872 476h2v2h-2zM900 476h2v2h-2zM948 476h2v2h-2zM964 476h2v2h-2zM992 476h2v2h-2zM1000 476h2v2h-2zM1056 476h2v2h-2zM1068 476h2v2h-2zM1076 476h2v2h-2zM1092 476h2v2h-2zM1112 476h2v2h-2zM1128 476h2v2h-2zM1156 476h2v2h-2zM1204 476h2v2h-2zM1220 476h2v2h-2zM1256 476h2v2h-2zM656 480h2v2h-2zM724 480h2v2h-2zM760 480h2v2h-2zM912 480h2v2h-2zM924 480h2v2h-2zM980 480h2v2h-2zM1008 480h2v2h-2zM1016 480h2v2h-2zM1032 480h2v2h-2zM1044 480h2v2h-2zM1100 480h2v2h-2zM1168 480h2v2h-2zM1180 480h2v2h-2zM1212 480h2v2h-2zM1236 480h2v2h-2zM1272 480h2v2h-2zM684 484h2v2h-2zM824 484h2v2h-2zM864 484h2v2h-2zM892 484h2v2h-2zM940 484h2v2h-2zM1024 484h2v2h-2zM1056 484h2v2h-2zM1080 484h2v2h-2zM1120 484h2v2h-2zM1148 484h2v2h-2zM1196 484h2v2h-2zM740 488h2v2h-2zM812 488h2v2h-2zM836 488h2v2h-2zM852 488h2v2h-2zM872 488h2v2h-2zM880 488h2v2h-2zM904 488h2v2h-2zM964 488h2v2h-2zM996 488h2v2h-2zM1040 488h2v2h-2zM1068 488h2v2h-2zM1092 488h2v2h-2zM1108 488h2v2h-2zM1128 488h2v2h-2zM1136 488h2v2h-2zM1160 488h2v2h-2zM1172 488h2v2h-2zM1184 488h2v2h-2zM1220 488h2v2h-2zM1252 488h2v2h-2zM1324 488h2v2h-2zM1348 488h2v2h-2zM772 492h2v2h-2zM844 492h2v2h-2zM976 492h2v2h-2zM1008 492h2v2h-2zM1028 492h2v2h-2zM1100 492h2v2h-2zM1232 492h2v2h-2zM1264 492h2v2h-2zM1284 492h2v2h-2zM644 496h2v2h-2zM792 496h2v2h-2zM828 496h2v2h-2zM860 496h2v2h-2zM888 496h2v2h-2zM900 496h2v2h-2zM924 496h2v2h-2zM952 496h2v2h-2zM988 496h2v2h-2zM1016 496h2v2h-2zM1048 496h2v2h-2zM1060 496h2v2h-2zM1072 496h2v2h-2zM1084 496h2v2h-2zM1116 496h2v2h-2zM1144 496h2v2h-2zM1156 496h2v2h-2zM1180 496h2v2h-2zM1208 496h2v2h-2zM1244 496h2v2h-2zM1304 496h2v2h-2zM1412 496h2v2h-2zM684 500h2v2h-2zM708 500h2v2h-2zM876 500h2v2h-2zM912 500h2v2h-2zM940 500h2v2h-2zM964 500h2v2h-2zM996 500h2v2h-2zM1036 500h2v2h-2zM1132 500h2v2h-2zM1168 500h2v2h-2zM1196 500h2v2h-2zM1220 500h2v2h-2zM724 504h2v2h-2zM748 504h2v2h-2zM768 504h2v2h-2zM804 504h2v2h-2zM820 504h2v2h-2zM836 504h2v2h-2zM848 504h2v2h-2zM868 504h2v2h-2zM892 504h2v2h-2zM980 504h2v2h-2zM1004 504h2v2h-2zM1024 504h2v2h-2zM1060 504h2v2h-2zM1076 504h2v2h-2zM1092 504h2v2h-2zM1104 504h2v2h-2zM1124 504h2v2h-2zM1148 504h2v2h-2zM1236 504h2v2h-2zM1260 504h2v2h-2zM1280 504h2v2h-2zM1316 504h2v2h-2zM856 508h2v2h-2zM904 508h2v2h-2zM916 508h2v2h-2zM928 508h2v2h-2zM948 508h2v2h-2zM964 508h2v2h-2zM1012 508h2v2h-2zM1112 508h2v2h-2zM1160 508h2v2h-2zM1172 508h2v2h-2zM1184 508h2v2h-2zM1204 508h2v2h-2zM1220 508h2v2h-2zM1368 508h2v2h-2zM736 512h2v2h-2zM784 512h2v2h-2zM880 512h2v2h-2zM892 512h2v2h-2zM984 512h2v2h-2zM992 512h2v2h-2zM1024 512h2v2h-2zM1040 512h2v2h-2zM1052 512h2v2h-2zM1136 512h2v2h-2zM1148 512h2v2h-2zM1248 512h2v2h-2zM1296 512h2v2h-2zM716 516h2v2h-2zM756 516h2v2h-2zM816 516h2v2h-2zM828 516h2v2h-2zM848 516h2v2h-2zM868 516h2v2h-2zM912 516h2v2h-2zM928 516h2v2h-2zM956 516h2v2h-2zM972 516h2v2h-2zM1012 516h2v2h-2zM1064 516h2v2h-2zM1072 516h2v2h-2zM1084 516h2v2h-2zM1092 516h2v2h-2zM1104 516h2v2h-2zM1124 516h2v2h-2zM1156 516h2v2h-2zM1168 516h2v2h-2zM1184 516h2v2h-2zM1212 516h2v2h-2zM1228 516h2v2h-2zM1268 516h2v2h-2zM1340 516h2v2h-2zM664 520h2v2h-2zM920 520h2v2h-2zM944 520h2v2h-2zM1000 520h2v2h-2zM1024 520h2v2h-2zM1116 520h2v2h-2zM1132 520h2v2h-2zM1176 520h2v2h-2zM1200 520h2v2h-2zM1256 520h2v2h-2zM1280 520h2v2h-2zM644 524h2v2h-2zM800 524h2v2h-2zM888 524h2v2h-2zM900 524h2v2h-2zM936 524h2v2h-2zM968 524h2v2h-2zM988 524h2v2h-2zM1012 524h2v2h-2zM1044 524h2v2h-2zM1056 524h2v2h-2zM1096 524h2v2h-2zM1144 524h2v2h-2zM1156 524h2v2h-2zM1192 524h2v2h-2zM1244 524h2v2h-2zM1300 524h2v2h-2zM1312 524h2v2h-2zM624 528h2v2h-2zM704 528h2v2h-2zM816 528h2v2h-2zM852 528h2v2h-2zM864 528h2v2h-2zM880 528h2v2h-2zM912 528h2v2h-2zM960 528h2v2h-2zM976 528h2v2h-2zM1032 528h2v2h-2zM1072 528h2v2h-2zM1108 528h2v2h-2zM1120 528h2v2h-2zM1136 528h2v2h-2zM1168 528h2v2h-2zM1216 528h2v2h-2zM1232 528h2v2h-2zM1364 528h2v2h-2zM1392 528h2v2h-2zM744 532h2v2h-2zM768 532h2v2h-2zM836 532h2v2h-2zM896 532h2v2h-2zM948 532h2v2h-2zM1000 532h2v2h-2zM1012 532h2v2h-2zM1024 532h2v2h-2zM1056 532h2v2h-2zM1080 532h2v2h-2zM1092 532h2v2h-2zM1152 532h2v2h-2zM1256 532h2v2h-2zM1268 532h2v2h-2zM1280 532h2v2h-2zM1348 532h2v2h-2zM684 536h2v2h-2zM908 536h2v2h-2zM920 536h2v2h-2zM928 536h2v2h-2zM940 536h2v2h-2zM956 536h2v2h-2zM980 536h2v2h-2zM988 536h2v2h-2zM1040 536h2v2h-2zM1124 536h2v2h-2zM1164 536h2v2h-2zM1176 536h2v2h-2zM1184 536h2v2h-2zM1196 536h2v2h-2zM1212 536h2v2h-2zM1244 536h2v2h-2zM716 540h2v2h-2zM792 540h2v2h-2zM812 540h2v2h-2zM824 540h2v2h-2zM844 540h2v2h-2zM876 540h2v2h-2zM888 540h2v2h-2zM964 540h2v2h-2zM972 540h2v2h-2zM1048 540h2v2h-2zM1068 540h2v2h-2zM1080 540h2v2h-2zM1100 540h2v2h-2zM1108 540h2v2h-2zM1132 540h2v2h-2zM1144 540h2v2h-2zM1228 540h2v2h-2zM1304 540h2v2h-2zM1324 540h2v2h-2zM656 544h2v2h-2zM772 544h2v2h-2zM864 544h2v2h-2zM900 544h2v2h-2zM912 544h2v2h-2zM996 544h2v2h-2zM1016 544h2v2h-2zM1028 544h2v2h-2zM1120 544h2v2h-2zM1156 544h2v2h-2zM1168 544h2v2h-2zM1272 544h2v2h-2zM1284 544h2v2h-2zM1376 544h2v2h-2zM1424 544h2v2h-2zM672 548h2v2h-2zM700 548h2v2h-2zM748 548h2v2h-2zM832 548h2v2h-2zM928 548h2v2h-2zM940 548h2v2h-2zM956 548h2v2h-2zM980 548h2v2h-2zM1004 548h2v2h-2zM1056 548h2v2h-2zM1088 548h2v2h-2zM1184 548h2v2h-2zM1196 548h2v2h-2zM1212 548h2v2h-2zM1236 548h2v2h-2zM1260 548h2v2h-2zM1344 548h2v2h-2zM624 552h2v2h-2zM732 552h2v2h-2zM808 552h2v2h-2zM852 552h2v2h-2zM880 552h2v2h-2zM900 552h2v2h-2zM916 552h2v2h-2zM968 552h2v2h-2zM988 552h2v2h-2zM1020 552h2v2h-2zM1036 552h2v2h-2zM1064 552h2v2h-2zM1108 552h2v2h-2zM1128 552h2v2h-2zM1136 552h2v2h-2zM1156 552h2v2h-2zM1172 552h2v2h-2zM1224 552h2v2h-2zM1244 552h2v2h-2zM1392 552h2v2h-2zM792 556h2v2h-2zM820 556h2v2h-2zM844 556h2v2h-2zM864 556h2v2h-2zM888 556h2v2h-2zM928 556h2v2h-2zM948 556h2v2h-2zM1000 556h2v2h-2zM1048 556h2v2h-2zM1076 556h2v2h-2zM1088 556h2v2h-2zM1100 556h2v2h-2zM1120 556h2v2h-2zM1144 556h2v2h-2zM1304 556h2v2h-2zM1332 556h2v2h-2zM684 560h2v2h-2zM756 560h2v2h-2zM772 560h2v2h-2zM908 560h2v2h-2zM940 560h2v2h-2zM980 560h2v2h-2zM988 560h2v2h-2zM1012 560h2v2h-2zM1028 560h2v2h-2zM1164 560h2v2h-2zM1196 560h2v2h-2zM1268 560h2v2h-2zM1284 560h2v2h-2zM668 564h2v2h-2zM700 564h2v2h-2zM740 564h2v2h-2zM808 564h2v2h-2zM828 564h2v2h-2zM840 564h2v2h-2zM856 564h2v2h-2zM872 564h2v2h-2zM888 564h2v2h-2zM900 564h2v2h-2zM924 564h2v2h-2zM956 564h2v2h-2zM968 564h2v2h-2zM996 564h2v2h-2zM1040 564h2v2h-2zM1056 564h2v2h-2zM1064 564h2v2h-2zM1084 564h2v2h-2zM1096 564h2v2h-2zM1112 564h2v2h-2zM1128 564h2v2h-2zM1144 564h2v2h-2zM1156 564h2v2h-2zM1180 564h2v2h-2zM1212 564h2v2h-2zM1224 564h2v2h-2zM1252 564h2v2h-2zM1352 564h2v2h-2zM724 568h2v2h-2zM792 568h2v2h-2zM876 568h2v2h-2zM932 568h2v2h-2zM948 568h2v2h-2zM980 568h2v2h-2zM1004 568h2v2h-2zM1020 568h2v2h-2zM1048 568h2v2h-2zM1116 568h2v2h-2zM1132 568h2v2h-2zM1188 568h2v2h-2zM1204 568h2v2h-2zM1236 568h2v2h-2zM1304 568h2v2h-2zM776 572h2v2h-2zM820 572h2v2h-2zM908 572h2v2h-2zM972 572h2v2h-2zM992 572h2v2h-2zM1008 572h2v2h-2zM1032 572h2v2h-2zM1076 572h2v2h-2zM1248 572h2v2h-2zM1288 572h2v2h-2zM1332 572h2v2h-2zM596 576h2v2h-2zM644 576h2v2h-2zM684 576h2v2h-2zM708 576h2v2h-2zM760 576h2v2h-2zM804 576h2v2h-2zM832 576h2v2h-2zM844 576h2v2h-2zM852 576h2v2h-2zM864 576h2v2h-2zM888 576h2v2h-2zM900 576h2v2h-2zM916 576h2v2h-2zM924 576h2v2h-2zM940 576h2v2h-2zM956 576h2v2h-2zM964 576h2v2h-2zM1016 576h2v2h-2zM1028 576h2v2h-2zM1044 576h2v2h-2zM1060 576h2v2h-2zM1088 576h2v2h-2zM1100 576h2v2h-2zM1108 576h2v2h-2zM1120 576h2v2h-2zM1132 576h2v2h-2zM1144 576h2v2h-2zM1156 576h2v2h-2zM1172 576h2v2h-2zM1196 576h2v2h-2zM1220 576h2v2h-2zM1272 576h2v2h-2zM1316 576h2v2h-2zM1364 576h2v2h-2zM1412 576h2v2h-2zM724 580h2v2h-2zM816 580h2v2h-2zM980 580h2v2h-2zM984 580h2v2h-2zM996 580h2v2h-2zM1072 580h2v2h-2zM1236 580h2v2h-2zM748 584h2v2h-2zM772 584h2v2h-2zM784 584h2v2h-2zM796 584h2v2h-2zM836 584h2v2h-2zM860 584h2v2h-2zM872 584h2v2h-2zM884 584h2v2h-2zM932 584h2v2h-2zM948 584h2v2h-2zM968 584h2v2h-2zM1004 584h2v2h-2zM1016 584h2v2h-2zM1028 584h2v2h-2zM1040 584h2v2h-2zM1052 584h2v2h-2zM1092 584h2v2h-2zM1128 584h2v2h-2zM1140 584h2v2h-2zM1188 584h2v2h-2zM1204 584h2v2h-2zM1260 584h2v2h-2zM1284 584h2v2h-2zM1296 584h2v2h-2zM1348 584h2v2h-2zM1384 584h2v2h-2zM668 588h2v2h-2zM704 588h2v2h-2zM736 588h2v2h-2zM824 588h2v2h-2zM852 588h2v2h-2zM892 588h2v2h-2zM908 588h2v2h-2zM924 588h2v2h-2zM960 588h2v2h-2zM992 588h2v2h-2zM1060 588h2v2h-2zM1080 588h2v2h-2zM1108 588h2v2h-2zM1148 588h2v2h-2zM1164 588h2v2h-2zM1180 588h2v2h-2zM1216 588h2v2h-2zM1248 588h2v2h-2zM1436 588h2v2h-2zM756 592h2v2h-2zM812 592h2v2h-2zM840 592h2v2h-2zM864 592h2v2h-2zM876 592h2v2h-2zM944 592h2v2h-2zM980 592h2v2h-2zM1012 592h2v2h-2zM1024 592h2v2h-2zM1068 592h2v2h-2zM1096 592h2v2h-2zM1120 592h2v2h-2zM1132 592h2v2h-2zM1268 592h2v2h-2zM1324 592h2v2h-2zM716 596h2v2h-2zM784 596h2v2h-2zM796 596h2v2h-2zM832 596h2v2h-2zM848 596h2v2h-2zM896 596h2v2h-2zM912 596h2v2h-2zM932 596h2v2h-2zM960 596h2v2h-2zM972 596h2v2h-2zM988 596h2v2h-2zM1004 596h2v2h-2zM1040 596h2v2h-2zM1052 596h2v2h-2zM1088 596h2v2h-2zM1104 596h2v2h-2zM1152 596h2v2h-2zM1168 596h2v2h-2zM1188 596h2v2h-2zM1228 596h2v2h-2zM1308 596h2v2h-2zM1344 596h2v2h-2zM1360 596h2v2h-2zM684 600h2v2h-2zM740 600h2v2h-2zM772 600h2v2h-2zM820 600h2v2h-2zM864 600h2v2h-2zM884 600h2v2h-2zM904 600h2v2h-2zM940 600h2v2h-2zM952 600h2v2h-2zM996 600h2v2h-2zM1028 600h2v2h-2zM1076 600h2v2h-2zM1120 600h2v2h-2zM1140 600h2v2h-2zM1196 600h2v2h-2zM1208 600h2v2h-2zM1252 600h2v2h-2zM1284 600h2v2h-2zM1376 600h2v2h-2zM1396 600h2v2h-2zM668 604h2v2h-2zM708 604h2v2h-2zM728 604h2v2h-2zM756 604h2v2h-2zM788 604h2v2h-2zM836 604h2v2h-2zM872 604h2v2h-2zM924 604h2v2h-2zM964 604h2v2h-2zM984 604h2v2h-2zM1012 604h2v2h-2zM1044 604h2v2h-2zM1068 604h2v2h-2zM1092 604h2v2h-2zM1128 604h2v2h-2zM1180 604h2v2h-2zM1220 604h2v2h-2zM1240 604h2v2h-2zM1268 604h2v2h-2zM1300 604h2v2h-2zM768 608h2v2h-2zM804 608h2v2h-2zM852 608h2v2h-2zM892 608h2v2h-2zM908 608h2v2h-2zM976 608h2v2h-2zM1000 608h2v2h-2zM1024 608h2v2h-2zM1052 608h2v2h-2zM1060 608h2v2h-2zM1108 608h2v2h-2zM1148 608h2v2h-2zM1164 608h2v2h-2zM1316 608h2v2h-2zM692 612h2v2h-2zM840 612h2v2h-2zM880 612h2v2h-2zM900 612h2v2h-2zM920 612h2v2h-2zM936 612h2v2h-2zM948 612h2v2h-2zM960 612h2v2h-2zM1012 612h2v2h-2zM1040 612h2v2h-2zM1096 612h2v2h-2zM1192 612h2v2h-2zM1204 612h2v2h-2zM1352 612h2v2h-2zM616 616h2v2h-2zM720 616h2v2h-2zM736 616h2v2h-2zM776 616h2v2h-2zM820 616h2v2h-2zM828 616h2v2h-2zM856 616h2v2h-2zM872 616h2v2h-2zM976 616h2v2h-2zM992 616h2v2h-2zM1032 616h2v2h-2zM1064 616h2v2h-2zM1076 616h2v2h-2zM1084 616h2v2h-2zM1128 616h2v2h-2zM1232 616h2v2h-2zM1248 616h2v2h-2zM1288 616h2v2h-2zM1332 616h2v2h-2zM1384 616h2v2h-2zM640 620h2v2h-2zM660 620h2v2h-2zM704 620h2v2h-2zM748 620h2v2h-2zM760 620h2v2h-2zM796 620h2v2h-2zM864 620h2v2h-2zM884 620h2v2h-2zM896 620h2v2h-2zM908 620h2v2h-2zM916 620h2v2h-2zM928 620h2v2h-2zM944 620h2v2h-2zM960 620h2v2h-2zM1004 620h2v2h-2zM1016 620h2v2h-2zM1024 620h2v2h-2zM1044 620h2v2h-2zM1052 620h2v2h-2zM1120 620h2v2h-2zM1140 620h2v2h-2zM1152 620h2v2h-2zM1172 620h2v2h-2zM1184 620h2v2h-2zM1200 620h2v2h-2zM1216 620h2v2h-2zM1260 620h2v2h-2zM1272 620h2v2h-2zM1308 620h2v2h-2zM1408 620h2v2h-2zM1428 620h2v2h-2zM784 624h2v2h-2zM808 624h2v2h-2zM840 624h2v2h-2zM848 624h2v2h-2zM1040 624h2v2h-2zM1064 624h2v2h-2zM1080 624h2v2h-2zM1096 624h2v2h-2zM1104 624h2v2h-2zM724 628h2v2h-2zM772 628h2v2h-2zM876 628h2v2h-2zM900 628h2v2h-2zM932 628h2v2h-2zM980 628h2v2h-2zM1028 628h2v2h-2zM1056 628h2v2h-2zM1132 628h2v2h-2zM1156 628h2v2h-2zM1188 628h2v2h-2zM1236 628h2v2h-2zM1284 628h2v2h-2zM576 632h2v2h-2zM688 632h2v2h-2zM712 632h2v2h-2zM744 632h2v2h-2zM820 632h2v2h-2zM832 632h2v2h-2zM856 632h2v2h-2zM888 632h2v2h-2zM908 632h2v2h-2zM944 632h2v2h-2zM960 632h2v2h-2zM968 632h2v2h-2zM988 632h2v2h-2zM1000 632h2v2h-2zM1012 632h2v2h-2zM1048 632h2v2h-2zM1076 632h2v2h-2zM1088 632h2v2h-2zM1112 632h2v2h-2zM1144 632h2v2h-2zM1164 632h2v2h-2zM1200 632h2v2h-2zM1224 632h2v2h-2zM1256 632h2v2h-2zM1344 632h2v2h-2zM1368 632h2v2h-2zM784 636h2v2h-2zM808 636h2v2h-2zM920 636h2v2h-2zM1028 636h2v2h-2zM1040 636h2v2h-2zM1064 636h2v2h-2zM1176 636h2v2h-2zM1296 636h2v2h-2zM1320 636h2v2h-2zM672 640h2v2h-2zM764 640h2v2h-2zM796 640h2v2h-2zM844 640h2v2h-2zM860 640h2v2h-2zM872 640h2v2h-2zM896 640h2v2h-2zM928 640h2v2h-2zM952 640h2v2h-2zM976 640h2v2h-2zM1020 640h2v2h-2zM1052 640h2v2h-2zM1072 640h2v2h-2zM1100 640h2v2h-2zM1116 640h2v2h-2zM1128 640h2v2h-2zM1152 640h2v2h-2zM1184 640h2v2h-2zM1208 640h2v2h-2zM1232 640h2v2h-2zM1276 640h2v2h-2zM732 644h2v2h-2zM748 644h2v2h-2zM828 644h2v2h-2zM884 644h2v2h-2zM960 644h2v2h-2zM988 644h2v2h-2zM996 644h2v2h-2zM1004 644h2v2h-2zM1016 644h2v2h-2zM1084 644h2v2h-2zM1140 644h2v2h-2zM1216 644h2v2h-2zM1244 644h2v2h-2zM1260 644h2v2h-2zM652 648h2v2h-2zM776 648h2v2h-2zM908 648h2v2h-2zM944 648h2v2h-2zM1032 648h2v2h-2zM1044 648h2v2h-2zM1064 648h2v2h-2zM1164 648h2v2h-2zM1200 648h2v2h-2zM1288 648h2v2h-2zM604 652h2v2h-2zM716 652h2v2h-2zM800 652h2v2h-2zM820 652h2v2h-2zM840 652h2v2h-2zM860 652h2v2h-2zM900 652h2v2h-2zM920 652h2v2h-2zM972 652h2v2h-2zM1008 652h2v2h-2zM1020 652h2v2h-2zM1036 652h2v2h-2zM1056 652h2v2h-2zM1076 652h2v2h-2zM1096 652h2v2h-2zM1108 652h2v2h-2zM1116 652h2v2h-2zM1136 652h2v2h-2zM1176 652h2v2h-2zM1228 652h2v2h-2zM1312 652h2v2h-2zM1332 652h2v2h-2zM1352 652h2v2h-2zM1372 652h2v2h-2zM636 656h2v2h-2zM676 656h2v2h-2zM696 656h2v2h-2zM872 656h2v2h-2zM892 656h2v2h-2zM912 656h2v2h-2zM932 656h2v2h-2zM952 656h2v2h-2zM988 656h2v2h-2zM1024 656h2v2h-2zM1088 656h2v2h-2zM1128 656h2v2h-2zM1148 656h2v2h-2zM1188 656h2v2h-2zM1208 656h2v2h-2zM1244 656h2v2h-2zM1404 656h2v2h-2zM744 660h2v2h-2zM756 660h2v2h-2zM784 660h2v2h-2zM808 660h2v2h-2zM940 660h2v2h-2zM968 660h2v2h-2zM1000 660h2v2h-2zM1012 660h2v2h-2zM1040 660h2v2h-2zM1048 660h2v2h-2zM1064 660h2v2h-2zM1256 660h2v2h-2zM1268 660h2v2h-2zM1296 660h2v2h-2zM820 664h2v2h-2zM832 664h2v2h-2zM848 664h2v2h-2zM904 664h2v2h-2zM980 664h2v2h-2zM1028 664h2v2h-2zM1076 664h2v2h-2zM1088 664h2v2h-2zM1104 664h2v2h-2zM1160 664h2v2h-2zM1236 664h2v2h-2zM1344 664h2v2h-2zM660 668h2v2h-2zM708 668h2v2h-2zM796 668h2v2h-2zM860 668h2v2h-2zM888 668h2v2h-2zM916 668h2v2h-2zM928 668h2v2h-2zM964 668h2v2h-2zM992 668h2v2h-2zM1008 668h2v2h-2zM1040 668h2v2h-2zM1052 668h2v2h-2zM1060 668h2v2h-2zM1116 668h2v2h-2zM1144 668h2v2h-2zM1172 668h2v2h-2zM1220 668h2v2h-2zM764 672h2v2h-2zM840 672h2v2h-2zM876 672h2v2h-2zM900 672h2v2h-2zM944 672h2v2h-2zM952 672h2v2h-2zM1020 672h2v2h-2zM1032 672h2v2h-2zM1096 672h2v2h-2zM1132 672h2v2h-2zM1208 672h2v2h-2zM1276 672h2v2h-2zM1388 672h2v2h-2zM680 676h2v2h-2zM732 676h2v2h-2zM788 676h2v2h-2zM816 676h2v2h-2zM936 676h2v2h-2zM976 676h2v2h-2zM988 676h2v2h-2zM1000 676h2v2h-2zM1012 676h2v2h-2zM1028 676h2v2h-2zM1044 676h2v2h-2zM1072 676h2v2h-2zM1088 676h2v2h-2zM1192 676h2v2h-2zM1244 676h2v2h-2zM1256 676h2v2h-2zM1300 676h2v2h-2zM1328 676h2v2h-2zM592 680h2v2h-2zM804 680h2v2h-2zM848 680h2v2h-2zM868 680h2v2h-2zM904 680h2v2h-2zM960 680h2v2h-2zM968 680h2v2h-2zM1060 680h2v2h-2zM1104 680h2v2h-2zM1124 680h2v2h-2zM1160 680h2v2h-2zM1224 680h2v2h-2zM1360 680h2v2h-2zM696 684h2v2h-2zM832 684h2v2h-2zM888 684h2v2h-2zM920 684h2v2h-2zM952 684h2v2h-2zM980 684h2v2h-2zM1004 684h2v2h-2zM1020 684h2v2h-2zM1036 684h2v2h-2zM1052 684h2v2h-2zM1068 684h2v2h-2zM1088 684h2v2h-2zM1112 684h2v2h-2zM1144 684h2v2h-2zM1176 684h2v2h-2zM1208 684h2v2h-2zM1344 684h2v2h-2zM1464 684h2v2h-2zM756 688h2v2h-2zM772 688h2v2h-2zM876 688h2v2h-2zM932 688h2v2h-2zM944 688h2v2h-2zM984 688h2v2h-2zM996 688h2v2h-2zM1012 688h2v2h-2zM1028 688h2v2h-2zM1076 688h2v2h-2zM1132 688h2v2h-2zM1188 688h2v2h-2zM1252 688h2v2h-2zM1268 688h2v2h-2zM1284 688h2v2h-2zM640 692h2v2h-2zM716 692h2v2h-2zM788 692h2v2h-2zM864 692h2v2h-2zM896 692h2v2h-2zM912 692h2v2h-2zM960 692h2v2h-2zM972 692h2v2h-2zM1044 692h2v2h-2zM1056 692h2v2h-2zM1120 692h2v2h-2zM1152 692h2v2h-2zM1168 692h2v2h-2zM1228 692h2v2h-2zM1376 692h2v2h-2zM1408 692h2v2h-2zM812 696h2v2h-2zM824 696h2v2h-2zM848 696h2v2h-2zM884 696h2v2h-2zM924 696h2v2h-2zM948 696h2v2h-2zM1008 696h2v2h-2zM1028 696h2v2h-2zM1068 696h2v2h-2zM1080 696h2v2h-2zM1096 696h2v2h-2zM1104 696h2v2h-2zM1324 696h2v2h-2zM680 700h2v2h-2zM732 700h2v2h-2zM936 700h2v2h-2zM960 700h2v2h-2zM976 700h2v2h-2zM988 700h2v2h-2zM996 700h2v2h-2zM1112 700h2v2h-2zM1192 700h2v2h-2zM1216 700h2v2h-2zM1244 700h2v2h-2zM764 704h2v2h-2zM792 704h2v2h-2zM880 704h2v2h-2zM908 704h2v2h-2zM1020 704h2v2h-2zM1036 704h2v2h-2zM1048 704h2v2h-2zM1056 704h2v2h-2zM1076 704h2v2h-2zM1136 704h2v2h-2zM1164 704h2v2h-2zM1276 704h2v2h-2zM1304 704h2v2h-2zM1392 704h2v2h-2zM744 708h2v2h-2zM836 708h2v2h-2zM860 708h2v2h-2zM892 708h2v2h-2zM920 708h2v2h-2zM948 708h2v2h-2zM980 708h2v2h-2zM1000 708h2v2h-2zM1012 708h2v2h-2zM1064 708h2v2h-2zM1092 708h2v2h-2zM1116 708h2v2h-2zM1148 708h2v2h-2zM1176 708h2v2h-2zM1204 708h2v2h-2zM1236 708h2v2h-2zM1256 708h2v2h-2zM712 712h2v2h-2zM776 712h2v2h-2zM824 712h2v2h-2zM848 712h2v2h-2zM936 712h2v2h-2zM956 712h2v2h-2zM968 712h2v2h-2zM1032 712h2v2h-2zM1080 712h2v2h-2zM1104 712h2v2h-2zM1192 712h2v2h-2zM1224 712h2v2h-2zM1288 712h2v2h-2zM1336 712h2v2h-2zM872 716h2v2h-2zM1052 716h2v2h-2zM1128 716h2v2h-2zM732 720h2v2h-2zM808 720h2v2h-2zM880 720h2v2h-2zM896 720h2v2h-2zM908 720h2v2h-2zM952 720h2v2h-2zM968 720h2v2h-2zM988 720h2v2h-2zM1000 720h2v2h-2zM1020 720h2v2h-2zM1044 720h2v2h-2zM1064 720h2v2h-2zM1072 720h2v2h-2zM1088 720h2v2h-2zM1136 720h2v2h-2zM1152 720h2v2h-2zM1164 720h2v2h-2zM1208 720h2v2h-2zM1244 720h2v2h-2zM1320 720h2v2h-2zM608 724h2v2h-2zM676 724h2v2h-2zM756 724h2v2h-2zM848 724h2v2h-2zM864 724h2v2h-2zM920 724h2v2h-2zM932 724h2v2h-2zM1012 724h2v2h-2zM1028 724h2v2h-2zM1104 724h2v2h-2zM1120 724h2v2h-2zM1176 724h2v2h-2zM1188 724h2v2h-2zM1268 724h2v2h-2zM1376 724h2v2h-2zM784 728h2v2h-2zM888 728h2v2h-2zM976 728h2v2h-2zM1040 728h2v2h-2zM1144 728h2v2h-2zM1296 728h2v2h-2zM708 732h2v2h-2zM800 732h2v2h-2zM820 732h2v2h-2zM836 732h2v2h-2zM872 732h2v2h-2zM900 732h2v2h-2zM948 732h2v2h-2zM964 732h2v2h-2zM992 732h2v2h-2zM1000 732h2v2h-2zM1056 732h2v2h-2zM1076 732h2v2h-2zM1092 732h2v2h-2zM1112 732h2v2h-2zM1128 732h2v2h-2zM1156 732h2v2h-2zM1204 732h2v2h-2zM1220 732h2v2h-2zM1256 732h2v2h-2zM912 736h2v2h-2zM924 736h2v2h-2zM956 736h2v2h-2zM980 736h2v2h-2zM1016 736h2v2h-2zM1032 736h2v2h-2zM1168 736h2v2h-2zM1180 736h2v2h-2zM1236 736h2v2h-2zM1272 736h2v2h-2zM864 740h2v2h-2zM892 740h2v2h-2zM940 740h2v2h-2zM1056 740h2v2h-2zM1080 740h2v2h-2zM1120 740h2v2h-2zM1148 740h2v2h-2zM1196 740h2v2h-2zM740 744h2v2h-2zM812 744h2v2h-2zM836 744h2v2h-2zM852 744h2v2h-2zM880 744h2v2h-2zM904 744h2v2h-2zM916 744h2v2h-2zM928 744h2v2h-2zM964 744h2v2h-2zM996 744h2v2h-2zM1040 744h2v2h-2zM1068 744h2v2h-2zM1092 744h2v2h-2zM1108 744h2v2h-2zM1136 744h2v2h-2zM1160 744h2v2h-2zM1252 744h2v2h-2zM1324 744h2v2h-2zM1348 744h2v2h-2zM772 748h2v2h-2zM976 748h2v2h-2zM1008 748h2v2h-2zM1028 748h2v2h-2zM1100 748h2v2h-2zM1232 748h2v2h-2zM1284 748h2v2h-2zM644 752h2v2h-2zM792 752h2v2h-2zM860 752h2v2h-2zM888 752h2v2h-2zM900 752h2v2h-2zM924 752h2v2h-2zM952 752h2v2h-2zM988 752h2v2h-2zM1048 752h2v2h-2zM1060 752h2v2h-2zM1084 752h2v2h-2zM1116 752h2v2h-2zM1144 752h2v2h-2zM1156 752h2v2h-2zM1180 752h2v2h-2zM1208 752h2v2h-2zM1304 752h2v2h-2zM1412 752h2v2h-2zM684 756h2v2h-2zM708 756h2v2h-2zM876 756h2v2h-2zM912 756h2v2h-2zM940 756h2v2h-2zM964 756h2v2h-2zM1036 756h2v2h-2zM1132 756h2v2h-2zM1168 756h2v2h-2zM1196 756h2v2h-2zM1220 756h2v2h-2zM804 760h2v2h-2zM820 760h2v2h-2zM836 760h2v2h-2zM868 760h2v2h-2zM980 760h2v2h-2zM1004 760h2v2h-2zM1024 760h2v2h-2zM1060 760h2v2h-2zM1076 760h2v2h-2zM1092 760h2v2h-2zM1104 760h2v2h-2zM1124 760h2v2h-2zM1236 760h2v2h-2zM1260 760h2v2h-2zM1280 760h2v2h-2zM1316 760h2v2h-2zM856 764h2v2h-2zM904 764h2v2h-2zM928 764h2v2h-2zM948 764h2v2h-2zM1112 764h2v2h-2zM1160 764h2v2h-2zM1184 764h2v2h-2zM1368 764h2v2h-2zM736 768h2v2h-2zM784 768h2v2h-2zM880 768h2v2h-2zM892 768h2v2h-2zM992 768h2v2h-2zM1040 768h2v2h-2zM1052 768h2v2h-2zM1136 768h2v2h-2zM1148 768h2v2h-2zM1248 768h2v2h-2zM1296 768h2v2h-2zM716 772h2v2h-2zM756 772h2v2h-2zM828 772h2v2h-2zM848 772h2v2h-2zM868 772h2v2h-2zM912 772h2v2h-2zM928 772h2v2h-2zM956 772h2v2h-2zM972 772h2v2h-2zM1012 772h2v2h-2zM1072 772h2v2h-2zM1084 772h2v2h-2zM1104 772h2v2h-2zM1124 772h2v2h-2zM1168 772h2v2h-2zM1212 772h2v2h-2zM1228 772h2v2h-2zM1268 772h2v2h-2zM1340 772h2v2h-2zM664 776h2v2h-2zM920 776h2v2h-2zM944 776h2v2h-2zM1024 776h2v2h-2zM1176 776h2v2h-2zM800 780h2v2h-2zM888 780h2v2h-2zM900 780h2v2h-2zM936 780h2v2h-2zM988 780h2v2h-2zM1044 780h2v2h-2zM1056 780h2v2h-2zM1096 780h2v2h-2zM1144 780h2v2h-2zM1156 780h2v2h-2zM1192 780h2v2h-2zM1312 780h2v2h-2zM624 784h2v2h-2zM852 784h2v2h-2zM864 784h2v2h-2zM880 784h2v2h-2zM912 784h2v2h-2zM960 784h2v2h-2zM976 784h2v2h-2zM1072 784h2v2h-2zM1108 784h2v2h-2zM1120 784h2v2h-2zM1136 784h2v2h-2zM1168 784h2v2h-2zM1216 784h2v2h-2zM1392 784h2v2h-2zM744 788h2v2h-2zM768 788h2v2h-2zM836 788h2v2h-2zM896 788h2v2h-2zM1000 788h2v2h-2zM1024 788h2v2h-2zM1092 788h2v2h-2zM1152 788h2v2h-2zM1256 788h2v2h-2zM1280 788h2v2h-2zM684 792h2v2h-2zM928 792h2v2h-2zM940 792h2v2h-2zM956 792h2v2h-2zM988 792h2v2h-2zM1184 792h2v2h-2zM1196 792h2v2h-2zM1244 792h2v2h-2zM716 796h2v2h-2zM792 796h2v2h-2zM812 796h2v2h-2zM844 796h2v2h-2zM876 796h2v2h-2zM888 796h2v2h-2zM972 796h2v2h-2zM1048 796h2v2h-2zM1068 796h2v2h-2zM1080 796h2v2h-2zM1100 796h2v2h-2zM1132 796h2v2h-2zM1144 796h2v2h-2zM1228 796h2v2h-2zM1304 796h2v2h-2zM1324 796h2v2h-2zM656 800h2v2h-2zM772 800h2v2h-2zM864 800h2v2h-2zM900 800h2v2h-2zM912 800h2v2h-2zM1028 800h2v2h-2zM1120 800h2v2h-2zM1156 800h2v2h-2zM1168 800h2v2h-2zM748 804h2v2h-2zM832 804h2v2h-2zM928 804h2v2h-2zM940 804h2v2h-2zM956 804h2v2h-2zM980 804h2v2h-2zM1004 804h2v2h-2zM1088 804h2v2h-2zM1184 804h2v2h-2zM1212 804h2v2h-2zM1260 804h2v2h-2zM1344 804h2v2h-2zM852 808h2v2h-2zM880 808h2v2h-2zM916 808h2v2h-2zM968 808h2v2h-2zM988 808h2v2h-2zM1064 808h2v2h-2zM1108 808h2v2h-2zM1136 808h2v2h-2zM1244 808h2v2h-2zM792 812h2v2h-2zM820 812h2v2h-2zM864 812h2v2h-2zM1048 812h2v2h-2zM1076 812h2v2h-2zM1120 812h2v2h-2zM1304 812h2v2h-2zM756 816h2v2h-2zM772 816h2v2h-2zM908 816h2v2h-2zM940 816h2v2h-2zM1012 816h2v2h-2zM1028 816h2v2h-2zM1164 816h2v2h-2zM1196 816h2v2h-2zM1284 816h2v2h-2zM700 820h2v2h-2zM740 820h2v2h-2zM840 820h2v2h-2zM888 820h2v2h-2zM900 820h2v2h-2zM924 820h2v2h-2zM956 820h2v2h-2zM968 820h2v2h-2zM996 820h2v2h-2zM1064 820h2v2h-2zM1096 820h2v2h-2zM1144 820h2v2h-2zM1180 820h2v2h-2zM1212 820h2v2h-2zM1252 820h2v2h-2zM876 824h2v2h-2zM932 824h2v2h-2zM948 824h2v2h-2zM980 824h2v2h-2zM1048 824h2v2h-2zM1132 824h2v2h-2zM820 828h2v2h-2zM992 828h2v2h-2zM1032 828h2v2h-2zM1076 828h2v2h-2zM644 832h2v2h-2zM760 832h2v2h-2zM804 832h2v2h-2zM852 832h2v2h-2zM888 832h2v2h-2zM900 832h2v2h-2zM916 832h2v2h-2zM940 832h2v2h-2zM964 832h2v2h-2zM1016 832h2v2h-2zM1060 832h2v2h-2zM1108 832h2v2h-2zM1156 832h2v2h-2zM1172 832h2v2h-2zM1196 832h2v2h-2zM1272 832h2v2h-2zM1364 832h2v2h-2zM724 836h2v2h-2zM980 836h2v2h-2zM1236 836h2v2h-2zM748 840h2v2h-2zM784 840h2v2h-2zM836 840h2v2h-2zM872 840h2v2h-2zM932 840h2v2h-2zM948 840h2v2h-2zM1004 840h2v2h-2zM1028 840h2v2h-2zM1040 840h2v2h-2zM1052 840h2v2h-2zM1092 840h2v2h-2zM1128 840h2v2h-2zM1296 840h2v2h-2zM704 844h2v2h-2zM892 844h2v2h-2zM908 844h2v2h-2zM924 844h2v2h-2zM960 844h2v2h-2zM992 844h2v2h-2zM1148 844h2v2h-2zM1164 844h2v2h-2zM1180 844h2v2h-2zM1216 844h2v2h-2zM812 848h2v2h-2zM1012 848h2v2h-2zM1068 848h2v2h-2zM1324 848h2v2h-2zM848 852h2v2h-2zM972 852h2v2h-2zM1052 852h2v2h-2zM1088 852h2v2h-2zM1104 852h2v2h-2zM740 856h2v2h-2zM864 856h2v2h-2zM884 856h2v2h-2zM940 856h2v2h-2zM952 856h2v2h-2zM996 856h2v2h-2zM1028 856h2v2h-2zM1076 856h2v2h-2zM1120 856h2v2h-2zM1140 856h2v2h-2zM1196 856h2v2h-2zM1252 856h2v2h-2zM756 860h2v2h-2zM788 860h2v2h-2zM924 860h2v2h-2zM964 860h2v2h-2zM984 860h2v2h-2zM1012 860h2v2h-2zM1044 860h2v2h-2zM1180 860h2v2h-2zM1220 860h2v2h-2zM1268 860h2v2h-2zM804 864h2v2h-2zM908 864h2v2h-2zM1060 864h2v2h-2zM1164 864h2v2h-2zM840 868h2v2h-2zM936 868h2v2h-2zM948 868h2v2h-2zM1096 868h2v2h-2zM1204 868h2v2h-2zM720 872h2v2h-2zM776 872h2v2h-2zM820 872h2v2h-2zM872 872h2v2h-2zM976 872h2v2h-2zM992 872h2v2h-2zM1032 872h2v2h-2zM1076 872h2v2h-2zM1128 872h2v2h-2zM1232 872h2v2h-2zM1288 872h2v2h-2zM660 876h2v2h-2zM796 876h2v2h-2zM896 876h2v2h-2zM916 876h2v2h-2zM960 876h2v2h-2zM1016 876h2v2h-2zM1052 876h2v2h-2zM1152 876h2v2h-2zM1172 876h2v2h-2zM1308 876h2v2h-2zM1064 880h2v2h-2zM980 884h2v2h-2zM1028 884h2v2h-2zM744 888h2v2h-2zM832 888h2v2h-2zM856 888h2v2h-2zM944 888h2v2h-2zM968 888h2v2h-2zM1000 888h2v2h-2zM1076 888h2v2h-2zM1088 888h2v2h-2zM1112 888h2v2h-2zM1200 888h2v2h-2zM1224 888h2v2h-2zM1256 888h2v2h-2zM1344 888h2v2h-2zM784 892h2v2h-2zM808 892h2v2h-2zM1040 892h2v2h-2zM1064 892h2v2h-2zM764 896h2v2h-2zM872 896h2v2h-2zM896 896h2v2h-2zM928 896h2v2h-2zM1020 896h2v2h-2zM1128 896h2v2h-2zM1184 896h2v2h-2zM1276 896h2v2h-2zM960 900h2v2h-2zM988 900h2v2h-2zM908 904h2v2h-2zM716 908h2v2h-2zM800 908h2v2h-2zM820 908h2v2h-2zM840 908h2v2h-2zM860 908h2v2h-2zM972 908h2v2h-2zM1056 908h2v2h-2zM1076 908h2v2h-2zM1096 908h2v2h-2zM1116 908h2v2h-2zM1228 908h2v2h-2zM1312 908h2v2h-2zM892 912h2v2h-2zM932 912h2v2h-2zM952 912h2v2h-2zM1148 912h2v2h-2zM1188 912h2v2h-2zM1208 912h2v2h-2zM1000 916h2v2h-2zM1040 916h2v2h-2zM1256 916h2v2h-2zM1088 920h2v2h-2zM916 924h2v2h-2zM964 924h2v2h-2zM1172 924h2v2h-2zM876 928h2v2h-2zM1020 928h2v2h-2zM1132 928h2v2h-2zM788 932h2v2h-2zM816 932h2v2h-2zM936 932h2v2h-2zM988 932h2v2h-2zM1044 932h2v2h-2zM1072 932h2v2h-2zM848 936h2v2h-2zM1104 936h2v2h-2zM1360 936h2v2h-2zM696 940h2v2h-2zM952 940h2v2h-2zM1088 940h2v2h-2zM1208 940h2v2h-2zM1012 944h2v2h-2zM1028 944h2v2h-2zM1268 944h2v2h-2zM896 948h2v2h-2zM972 948h2v2h-2zM1120 948h2v2h-2zM1152 948h2v2h-2zM1068 952h2v2h-2zM936 956h2v2h-2zM988 956h2v2h-2zM1244 956h2v2h-2zM792 960h2v2h-2zM1048 960h2v2h-2zM1136 960h2v2h-2zM920 964h2v2h-2zM968 968h2v2h-2zM1032 968h2v2h-2zM1080 968h2v2h-2zM988 976h2v2h-2zM1064 976h2v2h-2zM756 980h2v2h-2zM864 980h2v2h-2zM932 980h2v2h-2zM1012 980h2v2h-2zM1120 980h2v2h-2zM1188 980h2v2h-2zM1268 980h2v2h-2zM1040 984h2v2h-2zM964 988h2v2h-2zM1220 988h2v2h-2zM812 1000h2v2h-2zM996 1000h2v2h-2zM1068 1000h2v2h-2zM1092 1000h2v2h-2zM1028 1004h2v2h-2zM900 1008h2v2h-2zM1156 1008h2v2h-2zM940 1012h2v2h-2zM992 1024h2v2h-2zM1040 1024h2v2h-2zM1084 1028h2v2h-2zM880 1040h2v2h-2zM1136 1040h2v2h-2zM1048 1068h2v2h-2zM996 1076h2v2h-2z" fill="#282726"/>
<path d="M1003.9 729.7L1006.5 726.8L999.3 725.9L999.3 722.7L997.1 721.1L994.7 719.4L998.7 717.9L992.7 716L995.1 714.2L1002.5 710.7L1009.9 708.2L1007.8 707.2L1001.4 706.5L1002.1 703.6L1006.9 701.3L997.9 699.9L1001.9 698.2L1000.2 695.4L1006.6 693L998.4 692.8L1000.8 690.5L1000.3 689.3L1003.1 687.9L1001.7 685.1L996 683L997.9 680.9L998.4 679.5L1001.2 677.4L999.2 676L996.1 674.4L997.5 672.5L1001.8 671.6L999.9 670L998.6 667.6L1000 664.8L999.3 662.8L997.7 660.7L996.8 659.3L1000.1 657.5L1001.7 655.7L998.6 653.1L999.7 652.1L995.4 649.3L995.5 645.9L1002.7 644.9L1001.1 642.1L999.1 640L997.5 638.7L1002.5 638.1L1001.4 635.7L1001.7 632.6L994.1 629.2L1000.9 628.3L1004.2 626.4L1004.3 625.3L1004.7 622.6L1004.8 620L1004.8 618.9L1005 616.2L1005.1 614.6L1006.1 612.6L1007.5 609.8L1008.2 608.5L1010 606L1006.7 602.1L1008.2 600.9L1006.4 597.2L1008.4 595.5L1002.5 592.6L1007.2 591.2L1008 588.4L1008.4 585.4L1006.8 582.3L1008.5 581.2L1015 580.9L1016.6 578.7L1011.2 574.4L1018.8 574.5L1020.1 572.5L1020 570.9L1022.7 568.9L1025.9 569.3L1024.4 565.3L1021.8 560.8L1030.4 563.1L1024.1 557.6L1024.3 554.8L1027.2 554.4L1028.1 553.5L1029.1 551.3L1026.6 547.7L1030.8 546.5L1025.6 541.2L1033.9 543.7L1036.4 543.7L1030.7 537.5L1033.4 537.8L1035.6 537.4L1034.8 535L1038.4 534.2L1035.2 529.9L1038.1 528.8L1040.8 527.4L1043.7 527.1L1043.5 523.9L1047.4 523.7L1047.9 522.8L1046.9 520L1048.4 519.6L1048.8 518.6L1050.2 516.5L1051.4 513.8" fill="none" stroke="#575653" stroke-width="2" stroke-linejoin="round" stroke-linecap="round"/>
<path d="M1050.2 516.5L1051.4 513.8L1053.2 512.6L1054.2 511.5L1054.4 510.2L1055.5 509.3L1058.7 508.5L1059.8 506.4L1061.5 506.2L1062.8 504.5L1065.4 503.3L1066 500.2L1065.7 497.5L1067.4 496.2L1069.2 495.2L1069.2 493.3L1071.1 492.2L1073.4 492.7L1073.5 491.2L1075.6 491.5L1073.8 488.3L1075.9 488.6L1074.8 485.3L1079.8 487.6L1080.3 485.3L1081.7 485L1082.5 484.2L1084.3 482.6L1085.7 480.6L1090 484.2L1088.5 478.9L1091.5 478.6L1092.5 477.5L1094 475.9L1095.4 473.3L1097.9 474.6L1097.8 472.9L1098.7 471L1101.1 472.3L1101.7 471.1L1102.3 470.1L1103.2 466.5L1105.7 465.8L1109.4 467.2L1108.3 461L1113 466.5L1110.8 459.3L1112.2 459.2L1115.3 461.6L1113.3 453.4L1116.4 453.6L1121.5 458.5L1122.7 456.1L1123.3 454.3L1125.7 453.9L1129.1 457.8L1127 449.9L1129.2 450.1L1130.5 446.8L1132.6 445L1135.9 447.2L1137.8 446.9L1138.3 445.7L1140.9 446.8L1141 443.9L1143.9 447.4L1145.1 443.4L1148 443.8L1150.3 444.8L1151.4 442.1L1152.9 441.9L1154 441.5L1155.8 443.7L1157.5 441.7L1158.2 440.1L1159.3 439.3L1160.6 439.4L1162 439.7L1164.6 440.5L1166.7 438.3L1168.1 438.4L1170.5 437.2L1172.2 434.5L1174.9 436.6L1178.2 439.5L1178.1 435.3L1180.2 436.5L1182.3 435.6L1183.8 435.3L1185.7 435L1188.1 433.8L1190.2 434.2L1191.4 433.7L1192.9 433.8L1193.8 433L1195 433.5L1197.1 431.8L1199.2 433.1L1200.9 432.4L1203.1 432.3L1204.9 432.9L1206.9 432.8L1209.5 432L1211.6 433.1L1213.2 431.9L1215 430.8L1216 431.8L1217.5 429.3L1219.2 428.9L1221.2 434.3L1222.4 430L1224.7 434.9L1227.2 431.6L1229.8 432.6L1230.5 435.3L1232.6 433.3L1232.8 438L1235.6 433.8L1237 435.4L1238.8 436L1241.5 430.4L1242.9 429.9L1244.7 432.8L1246.4 430L1247.4 435.5L1249.3 436.5L1250.2 437.9L1251.6 439.2" fill="none" stroke="#575653" stroke-width="1.8" stroke-linejoin="round" stroke-linecap="round"/>
<path d="M1249.3 436.5L1250.2 437.9L1251.6 439.2L1254.1 433.8L1255 440.1L1258.3 436.2L1257.4 442L1260.3 439.2L1262.5 439.7L1263.1 440.6L1265.2 441.7L1266.5 440.3L1267.2 441.6L1269.4 439.6L1269.5 443.9L1272.6 441L1272.8 443.8L1274.5 443.2L1276.4 441.5L1276.7 443.9L1275 449.4L1276.7 450.2L1279.6 446.4L1284.9 441.1L1284.2 446.8L1285.5 446.7L1287.2 447.9L1288.5 448.2L1289.4 449.9L1293.1 445.6L1292.4 451.2L1293.5 451.1L1293.5 456.1L1295.2 455.3L1298.5 453.7L1301 454.1L1300.3 457.6L1302 457.7L1303.8 458.6L1304.7 459.6L1306.2 460L1308 461.5L1308.8 462.2L1309.4 463.5L1314.1 460.1L1314.3 463.4L1314.7 465L1315.7 466.5L1317.6 468L1319.6 469.2L1320.2 469.8L1321 471.1L1322.3 472.4L1323.9 472.9L1324.7 474.6L1325.3 475.8L1330.9 472.9L1330.5 476.8L1329.5 479.7L1329.7 481.2L1331.5 482.8L1332.7 483L1334.2 482.8L1335 483.4L1336.4 484.4L1335.8 486L1336.3 486.9L1338.5 487.3L1338.5 489L1339.2 489.6L1341.3 490.5L1343.4 491.4L1344.7 492.8L1345 495.2L1347.2 495L1349.7 495.9L1349.6 498.3L1344.8 502.7L1346.7 503.2L1348.6 503.6L1345.6 507.3L1349 508L1348.6 509.2L1352.4 508.1L1353.3 509.7L1352.3 511.6L1353.7 513.1L1355.7 514.4L1354.1 516.6L1356.2 517.7L1356.3 519.5L1355.3 520.9L1355.6 523.3L1360.4 523.2L1360.9 525.4L1363.1 526.8L1360.3 529.9L1363.1 530.4L1360.5 533.2L1359.8 534.9L1358 536.9L1358.7 538.3L1361.3 539.7L1363.2 540L1362.8 540.9L1362.6 542.5L1362.8 543.4L1367.2 543.9L1367.2 545.7L1364.1 548.4L1369.1 550.1L1366.8 551.1L1364.8 553L1366.2 554.3L1365.3 556L1363.2 557.8L1363.2 558.6L1367 558.9L1362.5 561.3L1367.8 561.4L1365 563.2L1365.8 564.5L1365.6 565.2L1364.9 566.4L1366.5 567.6L1366.8 569.4L1365.7 570.8L1366.7 572.6L1367.4 573.6L1367.4 575.6L1366.6 576.8L1366.8 578.1L1366 580L1365.1 582.1L1364.6 582.9L1364.7 584.5L1364.6 585.8L1365.4 587.9L1363.9 589.7L1363 590.8L1362.1 592.6L1362.3 594.8L1362.4 596.7L1363.8 598.2L1362 599.2L1362.9 600.9L1363.1 603.2L1361.4 604L1359.1 605" fill="none" stroke="#575653" stroke-width="1.6" stroke-linejoin="round" stroke-linecap="round"/>
<path d="M1363.1 603.2L1361.4 604L1359.1 605L1360.1 606.8L1358.5 607.7L1358.7 609.1L1357.9 611L1357.4 612.6L1357.1 614.1L1355.4 615.3L1353.1 616.6L1353.4 618.3L1354.3 620.8L1352.3 622.2L1351.1 623L1350.3 624.7L1349.9 625.9L1349 627.3L1348.4 628.9L1346.6 628.9L1346.5 629.9L1345 631.4L1345.4 633.7L1344.9 635L1341.8 634.5L1340.9 634.8L1340.8 637.1L1339.4 638.6L1337.4 638.3L1334.8 637.6L1338.7 644.3L1337.3 645.2L1332.2 642L1330.5 642.1L1329.7 644.4L1330.4 646.7L1329.5 648.2L1325.9 647L1326.6 650.9L1325.7 652L1322.8 649.6L1323.1 652.8L1323.8 655.4L1323.2 657.6L1319.7 655.2L1318.6 656.7L1318 658.3L1315.5 655.4L1313.4 655.1L1313.3 657.5L1311.7 658.8L1310 657.4L1309 657.4L1309.4 660.3L1307.7 659.8L1307.1 663.3L1305.2 660.4L1303.4 659.2L1302.3 660.7L1302.1 664.8L1300.5 664.2L1299.1 662.1L1297.8 661.2L1296.1 662.9L1295.5 663.5L1293.8 663.3L1292.3 664.1L1291.3 664.9L1290.1 665L1289.3 664.1L1287.7 664.4L1285.8 660.8L1285.4 662.5L1283.6 665.8L1281.7 663.5L1280.4 664.5L1279.6 665L1278.9 665.3L1278 665.3L1276.2 664L1274.3 667.1L1273 666L1271.9 663.3L1270.4 664.3L1268.7 662.5L1267.2 662.4L1265.7 663.3L1264.8 662.7L1264.1 662.6L1263.7 660.6L1262.4 661.8L1260.2 662.3L1258.8 661L1257.5 660.8L1256.7 659.8L1255.2 660.3L1254.9 659.3L1253 658.8L1252.1 659L1250.5 658.1L1248.9 656.8L1247.6 656.2L1246.8 655.7L1246.2 655.2L1245 654.5L1243.6 653.7L1241.9 652.7L1240.9 651.4L1239.6 650.8L1238.6 649.8L1237.3 648.8L1236.4 647.9L1236.1 647.2L1235.1 646.7L1234.3 646L1232.5 645.2L1232.7 644.1L1233.3 641.3L1232.5 640.8L1230.5 640.7L1228.8 639.9L1227.3 638.7L1226.7 638.3L1225.5 637.1L1227.3 635L1225.7 634.5L1226.1 632.7L1224.6 632.1L1226.6 629.8L1223.2 630.3L1225.8 627.5L1224.2 626.3L1225.6 624.8L1222.6 624.7L1222.2 623L1220.7 622.4L1221.5 620.6L1220.3 620.2L1222.6 618.8L1221.5 617.2L1220.8 615.7L1218.9 615.1L1220.2 613.6L1220.2 612.8L1220.1 611.8L1220.7 609.9L1219.7 608L1221.9 607.1L1219.9 605.5L1220 603.9L1221.2 602.5L1220.1 601.3L1221 600.8L1221.5 599.5L1222.4 597.9L1221.2 596.3L1220.9 595.6L1219.9 593.8L1222.6 593L1222.3 591.3L1226 591L1226.1 589.3L1224.7 587.3L1224.7 585.4L1227.1 585.4L1227.1 584.6" fill="none" stroke="#575653" stroke-width="1.4" stroke-linejoin="round" stroke-linecap="round"/>
<path d="M1276.5 443.8L1276.4 442.4L1277.1 441L1278 439.5L1279.4 438.5L1279.4 435.6L1280.2 433.1L1283.3 431.3L1283.1 429.7L1287.5 430.4L1291.3 430.7L1289.3 428.3L1287.1 426L1285.2 424.1L1286.2 422.2L1277.3 417.2L1290.2 419.5L1288.6 416.6L1284 413.5L1295.8 413.1L1287.4 409.8L1290.7 408.2L1285.1 404L1287.1 402.6L1291.3 401.2L1293.1 398.5L1293.1 395.6L1290.2 393.7L1292.4 392.8L1291.9 390.7L1295.3 388.8L1292.4 387.7L1292.7 385.3L1293.1 383.1L1289.9 381.7L1292.9 379.6L1292.2 378.1L1292.9 375.7L1299 374.7L1296.5 372.2L1298.3 369.5L1302 367.9L1302.5 366.8L1286.2 365.9L1286.5 364.2L1284 363.2L1280.1 361.7L1286.2 358.5L1296.6 354.8L1288.5 353.6L1283.8 351.9L1281.7 350.2L1284 349L1289 345.1L1282.2 344.5L1285.9 342.5L1282.6 342.3L1287.9 339.6L1288 337.2L1290.5 333.7L1287.1 332.2L1284.6 330.8L1285.1 329.1L1283.4 327.6L1284.9 326.1L1283.6 324.4L1285.6 321.7L1283.5 320.4L1279.7 319.3L1281 316L1279.4 313.7L1279.7 312.1L1277.1 311.2L1277.6 308.6L1276.9 306.5L1276.9 304.5L1272.7 305.2L1269.3 304L1278.1 297L1272.2 299.8" fill="none" stroke="#403E3C" stroke-width="2" stroke-linejoin="round" stroke-linecap="round"/>
<path d="M1269.3 304L1278.1 297L1272.2 299.8L1269.4 299.5L1268 297.3L1266.1 295.3L1265.4 292.9L1263.6 292.1L1261.5 291.4L1261.5 288.5L1260.2 286.4L1258.4 284.6L1254.9 284.4L1253.7 283.3L1251.9 282.3L1251.2 279.5L1250.4 276.5L1249.6 275.8L1246.9 277.6L1247.9 274.6L1246.5 274.9L1245.9 271.2L1246.7 268.3L1242 270.8L1245 265.1L1241 268.4L1238.9 268L1236.5 268.6L1234.5 267.4L1234.2 266L1235.6 261.1L1232 264.6L1231.5 263.4L1229.3 265.1L1228.6 263.8L1231.3 256.5L1229 256L1225.9 257.8L1224.2 257.4L1224.6 254L1220.5 258.2L1217.1 261.6L1216.8 258.1L1214.3 260.6L1213.9 254.9L1213.6 251.2L1212.3 248.9L1209.3 250.2L1205.8 252.5L1204.2 250.6L1202.6 248.3L1200.5 246.7L1199.1 249.5L1196.8 249.9L1195.7 246.2L1194.4 248.1L1191.9 248.4L1190.1 250.9L1188.4 247.2L1187.4 246.5L1185 248.7L1183.6 247.6L1181 247.8L1178.5 246.4L1176.2 245.5L1175.2 245.1L1174.1 242.8L1171.7 245L1170.7 247.7L1168.1 240.8L1165.9 244.6L1163.7 246.4L1162.6 246.5L1160 245.9L1159 248.4L1158 247.7L1156.2 249.8L1154.3 248.2L1151.8 248.4L1149.5 248.9L1147.8 249.8L1146.3 249.4L1144.1 250.5L1143.4 251.9L1140.3 246.6" fill="none" stroke="#403E3C" stroke-width="1.8" stroke-linejoin="round" stroke-linecap="round"/>
<path d="M1144.1 250.5L1143.4 251.9L1140.3 246.6L1139.4 250.2L1138.2 252.4L1137.5 253.7L1136.7 254.8L1134.3 254.9L1132.6 257.1L1132 257.7L1128.9 256.9L1128.8 258.5L1126.7 257.6L1125.4 258.7L1125 259.9L1122 257.9L1122.2 260.5L1123 264.9L1120.8 264.5L1117.4 263.7L1117.2 267L1116.5 269.5L1112.2 267.2L1111.7 270.1L1112.1 274L1108.4 271.8L1106.9 272.2L1105 272.2L1103.2 273.7L1103.2 276.5L1102.7 277.4L1102.2 279L1099.9 279.1L1099 281L1103.1 286.8L1099.1 286.1L1098.2 287.7L1093.7 286.4L1094.9 288.2L1093 288.9L1093.3 291L1095 294.1L1092.9 295.8L1091.4 296.9L1090.2 298.5L1092.6 301.3L1090.2 302.8L1092.3 304.9L1092 306.5L1089 307.7L1090.1 309.2L1088.7 310.4L1089.5 312.2L1090.2 314.5L1085.1 315.7L1082.5 317.5L1090.7 319.6L1087.3 320.9L1086.8 323L1084.7 324.8L1085.7 325.9L1083.7 328L1084.8 330.3L1083.6 331.7L1083.6 334.1L1083.9 336L1084.3 337.6L1085.5 339.2L1086.4 341.3L1087.5 342.4L1087.8 344.6L1088.1 345.6L1088.7 347.5L1089.2 348.9L1090.1 349.8L1089.6 350.8L1090.5 351.9L1090.9 353.6L1091.8 354.8L1092.3 355.9L1093.1 356.9L1093.1 358.5L1094.3 360.3L1095.6 360.7L1096 362.8L1096.9 364.8L1097.5 366L1097.9 368.3L1098.9 369.2L1102.3 369.3L1102.4 370.6L1102.1 371.9" fill="none" stroke="#403E3C" stroke-width="1.6" stroke-linejoin="round" stroke-linecap="round"/>
<path d="M1102.3 369.3L1102.4 370.6L1102.1 371.9L1104 371.1L1104.1 372.9L1103.5 374.7L1104 376L1107 375.7L1107.8 376.5L1107.5 379L1109.3 380.6L1111.2 381.4L1113.7 379.3L1113.4 381.5L1114.5 381.4L1114.8 383.5L1116.7 383.9L1118 383.5L1120 384.1L1121.1 384.7L1121.7 385.8L1124 385.2L1125.6 387L1127.6 387.7L1129.2 386.9L1131.2 387.2L1131.7 390.4L1134 387.8L1135 390.7L1136.7 390.5L1137.7 390.8L1138.7 390.3L1140.3 389L1141.7 389.4L1143 389L1143.7 385.2L1144.6 386.6L1146.3 389.9L1147.4 389.1L1148.1 385.9L1148.5 384L1150.7 386.7L1153.4 389.7L1154.6 388.7L1155.2 385.1L1156 385.7L1157.9 388.1L1158.6 388L1160.1 387.3L1160.4 385.7L1161.3 383.5L1163.2 383.7L1165.5 385.1L1167.1 384.3L1167.2 382.7L1167.9 382.1L1169.6 383.4L1172.2 382.7L1170.6 378.9L1170.7 377.7L1172.1 377.2L1173.3 377L1174.1 376.6L1175.2 375.2L1176.2 374.9L1179 375.3L1178.6 372.5L1178.2 370.6L1179.7 370L1180.6 369.2L1180.5 368.3L1180.9 367.3L1181.9 365.8L1183.6 365.3L1182.9 363.6L1182.4 362.1L1184.6 362.3L1183.6 359.8L1184.1 359L1183.9 357.7L1185 356.3L1185.1 355.3L1185.7 353.8L1184.4 352.3L1185.4 351.5L1184.7 350.8L1185.9 350.2L1184.7 349.5L1183.4 348.8L1185.6 347.7L1184.3 346.2L1182.6 344.6L1184.6 342.6L1183.8 342L1184.7 341.1L1183.1 340.4L1183.9 339.5L1182.9 338.9L1182.5 338.3L1183 336.6L1182.5 336.1L1180.5 335.2L1180.2 334.4L1179.2 333L1179.3 331.1L1178.6 330.6L1178.1 329.6L1176.8 328.9L1175.7 327.5L1175.3 326.9L1174.1 326.2L1173.6 325.3L1173 324.5L1170.4 327L1170 324.4L1169 323.6L1168.2 322.7L1167.4 321.9L1166.9 319.5L1164.7 320.3L1164.2 320.8" fill="none" stroke="#403E3C" stroke-width="1.4" stroke-linejoin="round" stroke-linecap="round"/>
<path d="M1017.8 574.2L1015.2 573.8L1013.3 574.6L1009.3 576.8L1009.3 572.2L1005.7 578.2L1003.3 575.7L1003.2 569.3L1001.8 568L1001.6 560.1L993.7 574.6L994.5 568.1L996.5 557.9L994 558.8L989.8 562L987.9 562.9L985.1 561.7L982.9 563.7L982.1 559.8L980.1 558.2L976.2 561.8L974.1 559.7L971.8 560.5L970.7 560.2L968.1 559.2L965.5 558.2L964.4 557.9L963 556.8L961.6 558L959.4 558.4L958.2 557.2L956.1 554.8L954.8 555.8L952.9 554.2L950.5 556L948.1 555.6L945.4 563.7L942.9 559.5L942.1 556.1L939.7 556.2L938.3 557.5L934.7 547.2L933.1 552.8L930.6 552.4L929.8 557.7L926.8 554L924.9 549.5L923.2 553.6L921.3 558.2L919.3 559.4L917.5 558.4L916.1 557.2L914.8 558.3L913.4 555.5L910.4 554.1L909.3 558.5L906.5 557.1L905.7 563.1L902.5 561.2L899.9 555.2L898.9 558.7L897.1 564L894.7 559.9L891.5 557.4L891.6 565.1L889.8 564.2L886 558.6L889.8 573.1L885.5 570.2L882.8 566L881 564.8L880.3 569.1L877.4 568.5L876 569.5L873.8 570.4L870.3 568" fill="none" stroke="#403E3C" stroke-width="2" stroke-linejoin="round" stroke-linecap="round"/>
<path d="M870.3 568L868.1 569.8L867.6 572.2L866.3 572.1L862.9 569.7L863.3 575.8L860 573.4L859.6 578L858.3 578L856.2 577.3L854.4 578.9L853.9 580.5L853 581.7L850.8 582.9L850.8 585.2L848.1 584.9L846.1 584.7L844.8 587.3L842.3 586.7L841.9 588.5L840.9 589.2L840.2 591.7L838.7 591.4L835.3 589.9L833.3 591.4L832.2 592.7L831.3 595L830.6 596.2L829.8 599L829.7 600.6L828.4 603L826.3 603.4L823.7 604L823.3 606.6L822.7 608.4L819.7 608.4L818.9 609.6L819.5 612.9L817 612.5L815.7 614.4L815.4 615.6L814.4 616.3L814 618.4L812.4 620L812.9 621.7L811.9 623.3L810.2 624.2L807.2 625.4L806.7 626.6L809.6 630.2L808.5 631L807 632.6L806.8 633.8L798.2 632.5L800.7 635.8L796.6 635.3L798.6 638.4L798.7 640.6L798.5 642.9L798.8 645.7L796.7 647.2L796.6 649.3L798.4 651.4L800 653.6L793.6 654.1L800.1 657L791.3 656.4L789.8 657.8L792.9 659.9L795.9 661.6L793.3 663.5L793.1 664.9L795.5 666.9L789.5 668.5L800 671.4L795.8 672.4L796.6 673.6L797.4 674.9L796.1 676.5L794.4 678.2L792.4 680.6L794.5 682.7L793.7 683.7L797.3 686L798.8 688.4L796.1 690.5" fill="none" stroke="#403E3C" stroke-width="1.8" stroke-linejoin="round" stroke-linecap="round"/>
<path d="M798.8 688.4L796.1 690.5L796.5 691.9L796.1 693.3L799.1 694.5L798.8 695.9L789.6 698.8L796.6 699.6L791.2 701.4L799 701.6L793.7 704.8L795.8 706L796.1 707.2L794.5 709.2L799 709.5L797.1 711.7L793.2 715.1L797.7 715.9L799.2 716.5L800.7 718.3L800 720.3L801.2 721.5L801.5 723.3L802.1 725.5L802 727.5L802.5 728.2L803.4 728.7L803.4 730L803.9 731L809.7 729.6L807.3 732L807.6 734.2L807.7 736.3L808.1 737.6L809.2 738.8L809.6 739.6L810.8 740L811.3 741.2L812.1 742.3L813.7 743.6L814.2 745.6L813.9 748.5L815.7 749.7L816.9 751.2L818.9 751L819.8 751.3L819.2 755.1L822.7 754.3L823.3 755.4L827.1 753.6L827.2 756.2L825.3 759.6L828.9 758.3L829.7 760.8L830.8 761.6L831.4 762L831.6 765.2L834.2 764.6L836.3 764.3L837.5 764.1L838.6 765.4L841.8 764.3L841.1 769.5L843 770.1L844.6 770.5L845.2 774.3L846.9 774.1L848.8 772.2L849.3 773.8L851.4 771.6L852.5 774.3L853.4 774.3L855.4 773.8L856.2 775.3L858.4 773.7L859.4 774.4L860 775.2L861.8 772.4L862.5 772.3L863.6 778.4L866.6 773.5L867.3 778.4L869.6 773.3L870.6 774.6L871.7 771.3L873.9 776L874.6 777.1L875.7 777.4L877.6 781.8L879.4 777.9L881.3 777.8L883.1 777.3L884.1 777.5L886.7 781L887.6 780.6L888.6 778.3L890.2 774.6L891.2 774.5L892.7 776.4L893.4 776.1L894.6 772.9" fill="none" stroke="#403E3C" stroke-width="1.6" stroke-linejoin="round" stroke-linecap="round"/>
<path d="M892.7 776.4L893.4 776.1L894.6 772.9L896.6 773.7L897.9 772.9L900.1 773.3L900.7 772.9L902.2 771.5L904.1 771.7L905.5 771.6L906.6 771.2L907.5 769.7L909 769.6L910.4 769L911.8 768.8L913.1 767L913.9 765.4L915 763.9L915.8 763.4L917.3 763.9L919.1 762.8L919.8 760.4L921 759.8L921.6 757.5L923.9 758.5L923.9 756.9L923.8 754.6L925.6 753.9L926.3 753L926.8 752.3L928.3 752L927.9 749.5L928.5 748.5L928.6 746.1L931 745.7L930.6 744.6L932.4 743.9L931.9 743L932.3 741.2L932.3 739.2L931 737.8L933.8 737.2L936 736.9L934.7 734.8L935.8 733.2L932.1 731.1L935.4 729.9L936 728.7L936.1 727L936.6 725.7L937 723.7L935.8 722.2L936.7 720.3L935.5 718.4L936 716.4L936.4 714.2L935.1 712.9L932.4 712.2L933.2 710.1L933.1 709.1L931.2 708.1L931 706.9L931.7 705.1L931.6 703.8L931.6 702.1L930 701.8L929 700.6L929.5 698.6L927.3 698.6L929.1 695.4L926.9 695.6L924.7 696.3L927.1 692.5L923.8 693.2L922.9 691.2L921.2 691.3L919.8 691L918.3 690.9L915.3 693.1L918 686.7L916.2 685.6L913.3 687.7L911.8 688.6L911.1 687.6L910.2 688.5L909.4 686.9L907.5 688.5L907 685.4L905.1 685.1L903.8 685.2L902.6 685.9L902 686.5L900.2 687.9L898.5 686.1L897.9 686.5L897.1 686.8L895.6 686.3L894.5 686.4L892.9 686.1L892.1 687L890.5 687.7L889.1 688.9L888.2 688.8L886.6 689.4L885.7 689.9L884.7 691.5L883.7 692.7L884.5 694.4L881.8 693.9L881.7 694.4" fill="none" stroke="#403E3C" stroke-width="1.4" stroke-linejoin="round" stroke-linecap="round"/>
<path d="M793.3 679.2L792.3 673.5L789 679.6L787.2 686.6L784.5 682.4L782.1 680.6L780.1 679.5L778.7 677.6L775.9 682.8L774.1 684.5L770.6 672.1L767.9 666.5L767 669.9L765.4 681.1L764.1 679.6L762.4 681.6L759.8 679.2L757.3 681.8L756 681.4L752 673.9L751.6 677L753.3 689.8L750.7 685.6L748.2 684.9L744.8 680.7L743.2 681.9L740.7 681L739.7 685.2L735 679.4L733.9 681.4L733.8 687.7L731.1 684.7L730.7 687.7L729.4 687.7L729.4 691.2L727.7 692.9L723.4 690L723.4 692.6L721.9 692.9L719.9 693.2L718.7 695.7L718.1 696.5L714.8 696.7L713.2 696.2L711.7 699.2L706.5 695.6L707.4 701.1L706.1 703.4L704.8 705.5L703.9 706.1" fill="none" stroke="#403E3C" stroke-width="2" stroke-linejoin="round" stroke-linecap="round"/>
<path d="M703.9 706.1L701.4 707.3L700.2 708.5L699.7 710.2L697.9 711.8L696.6 712.9L696.6 714.5L695.6 716L693.3 716.2L691 716L691.4 719.6L690.2 720.1L688.1 719.9L691.7 724.4L686.4 723.1L687.2 725.9L686.3 728.2L682.1 728.4L684.9 731.6L680.8 732.5L687.8 738L681.5 736.2L678.1 737.6L677.7 739.4L678.9 741.7L679.7 744.2L677.1 745L674.6 746.5L677.4 748.4L681.7 751L673.1 750.9L676.9 753.1L676.4 755.2L673.9 756.5L674.6 758.2L675.9 760.5L675.1 761.5L671.4 762L668.4 764.1L676.7 765.7L676.3 767.1L677.6 768.4L674.5 770.2L672.7 771.9L675.6 774L674.2 774.9L676 775.8L673.1 777.8L677.3 779.1L678.6 779.8L676.5 781.7L674.8 782.8L673.2 785.5L672.9 787.2L669.5 789L669.7 790.1L675.3 790.8L675.4 792L677.1 792.9" fill="none" stroke="#403E3C" stroke-width="1.8" stroke-linejoin="round" stroke-linecap="round"/>
<path d="M677.1 792.9L676.1 795.5L679.8 796.7L680.3 797.6L680.1 799.2L678.2 801.6L679.9 802.2L679.3 804.2L680.2 805.7L682.8 806.7L684 807.7L685.1 809L684.9 810.1L686.4 811.3L687.3 812.5L687.4 813.4L687.8 815L688 816.5L689.5 816.8L689.2 818.2L690.4 820L692.1 819.7L692.3 821.5L694.2 822L694.5 824.3L697 823.9L696.1 826.7L697.4 828.1L699 829.9L700.8 829.8L702.8 829.4L704.1 829.8L705.2 830.5L704 835.4L707.4 834.6L708.8 833.4L711.3 832.6L712.6 834.1L713.7 834.1L714.3 834.8L715.8 836.9L717.6 839.1L719.6 835.8L721.5 836.7L723.4 837.3L724.5 837.5L726 837.2L727.9 837.5L728.9 838.2L730 837.4L732.2 836.7L733.9 836.7L735.6 836.9L736.7 837.3L739.2 839.4L740.4 836.2L741.9 834.4L744.1 837L745.6 837.5L746.2 835.4L746.7 834L749.7 836.9L749.2 831.7L752.9 835.4" fill="none" stroke="#403E3C" stroke-width="1.6" stroke-linejoin="round" stroke-linecap="round"/>
<path d="M752.9 835.4L751.5 828.5L754.5 830.9L755.4 829.3L754.3 826.6L756.4 827.9L758.2 827.6L760.4 829.3L762.5 828.4L763.4 827.5L765.2 826.5L766.7 825.5L764.2 820.7L765.7 819.2L766.9 818.4L767.2 817.3L768.1 816.7L770.4 816.9L771.7 815.7L773.5 814.2L771.7 812.3L772.7 811.7L772.3 810.8L768.9 808.5L772.8 807.8L773.3 806.2L772.6 805L774.5 804.4L771.5 802.5L772.3 801.8L773.3 800L773.1 799L773.3 797L773.8 795L773.6 794.1L772.7 792.8L772.4 791.2L768.4 791.4L769.5 789.5L771.7 787.4L771.4 785.8L769.2 786.4L767.2 785.5L767.6 783.6L765.5 783.8L764.6 783.2L765.3 780.5L765.6 777.4L762.5 778.7L760.9 777.7L759.8 778L760.4 773.3L758.9 774.5L756.5 776.3L754.8 776.2L753.8 774.6L753.1 774.1L752.2 775.1L751.7 774.1L750.8 774.7L749.6 773.8L748.7 774.6L747.8 774.7L747 775.3L746.1 774.9L744.6 774L743.6 775.5L742.8 776.7L741.8 776.7L741.1 776.8L740.1 777.2L739.3 777.7L738.1 778.3L737.4 779.2L736.6 780.2L736.3 780.9" fill="none" stroke="#403E3C" stroke-width="1.4" stroke-linejoin="round" stroke-linecap="round"/>
<path d="M889.4 562.8L890.1 560.9L888.3 558.7L887.5 556.4L887.4 554.5L885.8 551.7L884.5 550.1L882 547.8L882.6 544.5L883.7 542.8L884.2 540.2L880.6 539.3L879.1 537.2L877.6 535.6L873.9 534.1L873.4 531.7L873.9 530.1L876.9 527L871.5 526.7L870.6 524.1L868.6 523.6L868.9 521.6L867.8 519.5L872 514.6L867.6 515.9L871.6 511L870.3 510.1L870.7 508.5L864.1 509.5L863.6 507.2L857.9 510.3L856.9 508.1L857.4 505.9L857.1 502.3L856.4 500.9L854.2 501L854.6 498.6L848.3 502.6L850.8 498.1L852.2 494L850.7 493.7L849.3 491.1L842 498.7L846.9 489.6L847.8 485.5L848.5 482.3L837.3 493.5L838.8 487.7L836 488.3L836.5 482.1L834.1 481.3L833.2 478L825.6 489.5L826.4 483.3" fill="none" stroke="#403E3C" stroke-width="2" stroke-linejoin="round" stroke-linecap="round"/>
<path d="M826.4 483.3L824.3 482.5L822.6 482.4L820.8 481.2L819.6 480.3L817.7 481.5L814.7 484L814 477.4L811.1 478.6L810 476.1L809 476.2L808.7 472L806.1 474.1L804.5 474.5L803.7 472.2L801.5 473L799.6 473.5L797.3 471.9L794.7 472.3L793.2 473.4L792.2 471.3L790.7 473.4L788.2 472.1L786.3 471.6L784.1 470.5L782.5 474.7L780 473.4L778.4 476.6L776.3 474.8L773.4 470L772.2 472.6L769.7 471.1L768.1 472L766.7 470.1L765.1 474.6L762.8 473.4L762.5 476.2L759.9 475.7L755.8 470L755.7 473.8L753.9 475.5L752.2 477.4L749.6 477.7L748.9 478.6L748.7 480.3L746.6 480.8L744.6 480.4L742.6 481.3L742.8 485.8L739 484.1L737.6 484.1L738.9 488.6L734.1 485.1L732.6 487L732.1 490.2L731.8 492.2L726.7 490.2" fill="none" stroke="#403E3C" stroke-width="1.8" stroke-linejoin="round" stroke-linecap="round"/>
<path d="M726.7 490.2L723.6 490.1L722.3 492.1L722.5 494.5L718.1 493.9L716.9 496.6L717 498.8L717 501.8L716.8 503.2L716.6 505.2L720.2 509.4L716.1 508.5L715 510.7L715.5 513.4L713.9 513.5L710.9 513.5L707.9 514.5L710.6 517.6L711.9 519.4L709.2 520.8L705.8 521.8L704 522.7L705.4 524.6L707.3 526.2L709.9 529.1L707.7 530.1L709 531.4L710.3 533.5L702.8 533.4L705.1 536L706.4 538.1L706.6 539.1L706.7 540.3L701 542.1L707.3 543.5L704.7 545.7L705.2 547L704.6 549L704.1 551.3L701.2 553.7L704.9 554L707 554.5L707.3 556.6L707.7 557.7L708.7 558.9L708 560.8L709.2 562.3L709.9 564.5L710.8 566.5L711.2 567.4L712.4 568.5L712.1 570.3L713.5 571.7L714.9 573.5L716.2 574.1L717.2 575.6L718.3 576.2L720.1 577.5L720 579.1L721 579.6L722.2 579.5L723 580.7L723.6 581.7L724.7 583.3L726.2 583.4" fill="none" stroke="#403E3C" stroke-width="1.6" stroke-linejoin="round" stroke-linecap="round"/>
<path d="M724.7 583.3L726.2 583.4L727.8 583.5L728.7 585.8L730.5 585.4L731.7 586.7L733.1 588.4L734.2 590.4L736.1 588.3L736.8 588.8L738.6 588.9L740.6 588.2L741.1 591.6L743.2 590.9L745.3 591.3L747.4 589.8L749.3 591.7L751.3 590.1L753.3 594L754.2 589.8L756.2 589.3L757.2 588L758.5 587.1L759.9 587.4L761.6 588.8L763.6 588.4L764.8 589.1L764.1 583.5L766.2 585.4L768.6 586.8L769.3 585.1L770.4 584.6L771.2 584L771.7 581.8L773.1 581.1L774.2 581.1L773.8 579.8L775.2 578.8L774.3 576.8L778 577.2L777.5 574.8L777.5 573L778.5 572.7L780.2 571.7L780.3 570L779.8 568.9L782.2 568.7L781.9 567.5L782.1 565.5L782.7 564L782.8 562.2L781.7 560.7L779.7 560.2L780.2 559.3L784.4 557.7L781.8 556.4L781.9 554.9L779.1 554.2L778.3 553.3L779.2 551L777.1 551L778.1 549.5L776.7 548.9L777.2 547.6L775.2 547.1L773.7 547.5L772.6 547.2L772 545.1L771.1 543.1L769 543.3L767.2 542.8L766 542.5L765.1 542.9L763.5 542L762 542.1L760.8 541.9" fill="none" stroke="#403E3C" stroke-width="1.4" stroke-linejoin="round" stroke-linecap="round"/>
<path d="M847.5 771.8L850.1 774.4L850 776.1L844.5 775.1L840.2 776.4L836.5 777.5L840 781.5L844 785L835.4 784L835.8 786.3L842 789.8L838.6 790.1L839.3 791.4L842.3 794.5L846.1 797.8L843.1 799.6L839.3 801.4L840.5 804L835 804.2L844.7 807.7L841.1 809.6L838.1 811L842.4 813.2L836.4 813.9L833.1 816.5L836.9 819.4L839 820.6L833.2 821.8L843.6 823.7L838 826.9L838.1 829.6L837.4 832L837.1 834.1L836.5 835.4L835.6 838L837.1 839.7L838.6 842L836.4 844.4L837.3 847L842 848.4L838.7 851.5L839.1 852.8L839.3 855.3L840.4 856.3L843.8 856.2L844.7 858.9L841.4 861.2L843.1 862.7L843.1 864L844.6 864.3L843.4 867.4L846.3 868.9" fill="none" stroke="#403E3C" stroke-width="2" stroke-linejoin="round" stroke-linecap="round"/>
<path d="M846.3 868.9L847.6 870.4L847.6 872L848.5 872.8L854 871L852.4 874.8L851.7 877.1L851 880.1L852.5 880.6L855.1 881L860.9 878.9L859.6 883.3L856.8 886.6L856.8 887.8L860.6 887.2L860.6 890.1L862.4 891.3L858.4 897.1L863.7 894.9L864.5 896.1L867.8 896.2L868.2 899.2L865.8 905.8L870.7 903.4L870.3 906.7L877.1 900.8L876.8 906.3L881 902.5L878.6 910.5L880.4 909.3L884.7 906.5L887.2 906.1L886.6 911.6L890 909.2L890.6 912.8L891.3 917.3L894.1 914.4L897.9 911.7L898.9 912.9L899.6 915.5L901.1 914.7L903.3 910.2L904.5 914.8L906.9 914.1L908.7 916.2L910.9 914.3L912.9 917.7L914.7 916.1L916.3 913.9L918.5 916.6L920.4 918.5L922.1 914.6L923.4 915.6L925.7 921L927.5 917" fill="none" stroke="#403E3C" stroke-width="1.8" stroke-linejoin="round" stroke-linecap="round"/>
<path d="M927.5 917L929 914.1L930.5 915.2L932.1 914.5L933.7 916.3L934.4 913.4L935.2 913L937.9 915L939.4 910.9L940.4 909.7L942.9 909.8L943.3 907.9L944.5 908.4L945.8 907.2L947.4 906.2L949.5 908.2L951 906.7L953.4 907L954.5 906.8L954.9 905.4L955.3 904.1L957.2 903.5L958.4 901.8L959.8 901.2L961 900.6L962.5 899.7L963.3 898.4L963.6 896.9L964.2 895.6L966.6 895L967.3 894.3L969.2 893.2L969.2 890.9L970.5 889.5L970.6 887.4L968.7 883.7L970.7 884L973 884.6L972.6 883.4L971.8 880.8L972.6 880L973.7 879.4L977.8 879.1L979 878.6L981.7 877.5L980.3 875.4L982.5 875.1L980.6 872.3L979.7 870.5L979.4 868.6L981.2 867.9L979.6 866.7L978.7 864.4L981.3 862.3L979.9 860.5L980.8 858.4L979.1 856.6L980.3 854.7L979.5 852.8L981.9 851.5L983.9 850L980.9 849.3L978.6 847.8L978.5 846.6L977.8 845L977.1 843.6" fill="none" stroke="#403E3C" stroke-width="1.6" stroke-linejoin="round" stroke-linecap="round"/>
<path d="M977.8 845L977.1 843.6L974.8 842.3L975 840.9L976.4 838.3L973.3 838.5L975.8 835.6L974.2 835.2L974 833L971.3 832.5L969.7 832.8L972 827.7L964.6 831.6L968.3 825.9L966.5 826.5L963.3 827.1L959.6 829.1L961.6 823.7L958.5 825.4L957.7 824.3L956.2 825.5L957 820.2L956 819.8L954 822.3L954.8 818L952.3 819.2L950.7 818.2L949.5 817L947.7 819.2L946.2 819.3L944.7 818.1L943.6 818.7L942.1 819.7L941.4 818.7L939.9 817.6L938.1 818.6L936.4 819.4L935.5 819.9L933.4 819.9L931.9 820.2L930.6 820.3L929.4 821.1L928.2 822.2L926.4 822.9L925 824.1L924 825.3L922.1 826.1L921.3 827.6L920.5 829.2L919.6 829.9L918.3 830.8L917.4 831.9L916.9 833.7L915.9 834.2L915.3 834.7L916.7 837L916.7 838.6L915 840L913.7 841.1L913.9 842.6L914.1 844.1L915.5 845.2L915.1 846.1L916.7 847.2L913 848.7L915.5 849L916.3 850.4L915.3 852L917.7 852.9L918 854.8L917.9 855.8" fill="none" stroke="#403E3C" stroke-width="1.4" stroke-linejoin="round" stroke-linecap="round"/>
<path d="M1276.5 443.8L1276.4 442.4L1277.1 441L1278 439.5L1279.4 438.5L1279.4 435.6L1280.2 433.1L1283.3 431.3L1283.1 429.7L1287.5 430.4L1291.3 430.7L1289.3 428.3L1287.1 426L1285.2 424.1L1286.2 422.2L1277.3 417.2L1290.2 419.5L1288.6 416.6L1284 413.5L1295.8 413.1L1287.4 409.8L1290.7 408.2L1285.1 404L1287.1 402.6L1291.3 401.2L1293.1 398.5L1293.1 395.6L1290.2 393.7L1292.4 392.8L1291.9 390.7L1295.3 388.8L1292.4 387.7L1292.7 385.3L1293.1 383.1L1289.9 381.7L1292.9 379.6L1292.2 378.1L1292.9 375.7L1299 374.7L1296.5 372.2L1298.3 369.5L1302 367.9L1302.5 366.8L1286.2 365.9L1286.5 364.2L1284 363.2L1280.1 361.7L1286.2 358.5L1296.6 354.8L1288.5 353.6L1283.8 351.9L1281.7 350.2L1284 349L1289 345.1L1282.2 344.5L1285.9 342.5L1282.6 342.3L1287.9 339.6L1288 337.2L1290.5 333.7L1287.1 332.2L1284.6 330.8L1285.1 329.1L1283.4 327.6L1284.9 326.1L1283.6 324.4L1285.6 321.7L1283.5 320.4L1279.7 319.3L1281 316L1279.4 313.7L1279.7 312.1L1277.1 311.2L1277.6 308.6L1276.9 306.5L1276.9 304.5L1272.7 305.2L1269.3 304L1278.1 297L1272.2 299.8L1269.4 299.5L1268 297.3L1266.1 295.3L1265.4 292.9L1263.6 292.1" fill="none" stroke="#71311E" stroke-width="2" stroke-linejoin="round" stroke-linecap="round"/>
<path d="M1265.4 292.9L1263.6 292.1L1261.5 291.4L1261.5 288.5L1260.2 286.4L1258.4 284.6L1254.9 284.4L1253.7 283.3L1251.9 282.3L1251.2 279.5L1250.4 276.5L1249.6 275.8L1246.9 277.6L1247.9 274.6L1246.5 274.9L1245.9 271.2L1246.7 268.3L1242 270.8L1245 265.1L1241 268.4L1238.9 268L1236.5 268.6L1234.5 267.4L1234.2 266L1235.6 261.1L1232 264.6L1231.5 263.4L1229.3 265.1L1228.6 263.8L1231.3 256.5L1229 256L1225.9 257.8L1224.2 257.4L1224.6 254L1220.5 258.2L1217.1 261.6L1216.8 258.1L1214.3 260.6L1213.9 254.9L1213.6 251.2L1212.3 248.9L1209.3 250.2L1205.8 252.5L1204.2 250.6L1202.6 248.3L1200.5 246.7L1199.1 249.5L1196.8 249.9L1195.7 246.2L1194.4 248.1L1191.9 248.4L1190.1 250.9L1188.4 247.2L1187.4 246.5L1185 248.7" fill="none" stroke="#A1462B" stroke-width="2" stroke-linejoin="round" stroke-linecap="round"/>
<path d="M1185 248.7L1183.6 247.6L1181 247.8L1178.5 246.4L1176.2 245.5L1175.2 245.1L1174.1 242.8L1171.7 245L1170.7 247.7L1168.1 240.8L1165.9 244.6L1163.7 246.4L1162.6 246.5L1160 245.9L1159 248.4L1158 247.7L1156.2 249.8L1154.3 248.2L1151.8 248.4L1149.5 248.9L1147.8 249.8L1146.3 249.4L1144.1 250.5L1143.4 251.9L1140.3 246.6L1139.4 250.2L1138.2 252.4L1137.5 253.7L1136.7 254.8L1134.3 254.9L1132.6 257.1L1132 257.7L1128.9 256.9L1128.8 258.5L1126.7 257.6L1125.4 258.7L1125 259.9L1122 257.9" fill="none" stroke="#CF6A4C" stroke-width="2" stroke-linejoin="round" stroke-linecap="round"/>
<path d="M1125.1 259.5L1122.7 258.2L1122 255.5L1120.6 255.1L1119.7 253.9L1118.8 250.9L1118.8 248.9L1117 247.8L1116.4 245.8L1114.8 243.8L1112.8 242.2L1110.7 240.6L1110.8 238.1L1110 234.9L1106.3 234.7L1101.4 237.2L1104 230.2L1096.7 236.8L1097.1 234.2L1100.6 225.8L1101.4 221.5L1095.4 224.1L1092.1 225.5L1092.3 223.3L1093.3 216.6L1089.6 217.1L1085.1 219.8L1085.9 215L1083.1 214.6L1081.2 216L1080.1 212.8L1080.9 208.6L1077.7 212.9L1076.9 210L1075.3 208.4L1072.6 210.2L1067.8 216L1069.2 210.6L1067.3 210.1L1064.8 212.1L1062.7 211.7L1064 199.9L1060.6 203.7" fill="none" stroke="#CF6A4C" stroke-width="2.1" stroke-linejoin="round" stroke-linecap="round"/>
<path d="M1060.6 203.7L1057.9 205.5L1056.6 204.3L1055.6 202.3L1053.6 209.9L1053.1 204L1051 208.2L1048.7 211L1047.1 201.8L1045.2 203.3L1043.8 206.5L1042.9 211.8L1041.7 204.4L1039.7 206.8L1038.7 205.4L1035.9 204L1033.6 201L1032.1 203.6L1030.3 205.3L1027.6 204.3L1025.2 205.4L1022.7 204.5L1020.6 207.3L1018.5 207.2L1015.9 207.7L1014.8 208.6L1012.4 209.5L1011.1 210L1009.4 211.1L1007.8 211.6L1005.9 211.5L1004.2 213.2L1003.5 214.5L1000.5 212.6L999.9 214.6L998.5 217.1L994.1 213.3L995.9 217.6L995.1 218.9L989.9 215.1L989.5 218.9L987.7 220.8L989.3 224.1L983.9 221.7L984.7 225.7L981.6 226.6L982.7 228.6L981.6 229.4L980.8 231.5" fill="none" stroke="#CF6A4C" stroke-width="1.9" stroke-linejoin="round" stroke-linecap="round"/>
<path d="M980.8 231.5L980.5 233.5L980.1 235.2L977.8 236L977 238.2L976.4 239.6L976.1 241.2L976 243.2L974.1 245L970.9 245.1L968.4 246.3L977.4 251.3L973 251.8L971.5 252.9L975.9 256.3L972 256.6L972 258.1L966 259.7L966.8 262.3L974.9 263.5L973.7 265.1L969.3 266.4L968.2 267.4L966.2 269.4L966.7 271L971.2 272.4L975 273.9L972.9 275.4L967.8 279L972.1 280.2L972.3 282.3L972.7 283.5L977 282.9L969.8 288.4L974.5 288L973.7 290.8L977.2 291.3L976.4 293.9L977.6 295.1L978.3 296.2L981.2 296.5L980.7 298.7L983.5 299.2L984.2 300.6L985.6 300.8L987.4 300.7L987.6 302.8L989.4 303.1L990.1 304.1L991.4 305.6L992.2 306.3L992.8 307.7" fill="none" stroke="#CF6A4C" stroke-width="1.7" stroke-linejoin="round" stroke-linecap="round"/>
<path d="M992.8 307.7L994.3 309.1L995.8 308.5L996.8 311.1L998.3 312.8L1001.5 308.6L1003.1 308.7L1004 308.9L1005.7 311.6L1007 313.9L1007.9 312.5L1009.4 310.9L1011.2 311.9L1012.9 312.5L1013.3 308.9L1014.7 311.2L1016 310.8L1017.8 311.8L1019.6 310.8L1020.4 309.5L1021.2 308.7L1021.6 307.7L1023.8 308L1024.9 306.8L1025.4 306.2L1026.4 305.2L1028 305.6L1028.7 304L1029.3 303.4L1028 300.3L1031.2 300.9L1032.5 300.8L1033.1 299.8L1033.1 298.3L1033.8 297.8L1034.3 296.8L1034.9 296.2L1035.5 295.6L1035.9 294L1036.7 292.4L1036.4 291.3L1037.4 289.4L1037.4 288.4L1036.6 286.6L1036.4 285.5L1036.9 284.6L1038.4 282.6L1038.1 281.9L1036.1 280.9L1036.4 279L1034.1 278.4L1032.7 277.7L1036.6 274.5L1034 274.1L1033.8 272.6L1031.6 272.9L1031.1 270.5L1029.7 270.8L1027 272.5L1026.8 271.3L1024.7 272.8L1024.6 268.6L1022.6 270.4L1021.3 271.1L1020.3 268.2" fill="none" stroke="#CF6A4C" stroke-width="1.5" stroke-linejoin="round" stroke-linecap="round"/>
</svg>
