<svg xmlns="http://www.w3.org/2000/svg" viewBox="0 0 1920 1080" width="1920" height="1080">
<rect x="0" y="0" width="1920" height="1080" fill="#1C1B1A"/>
<path d="M1278 474h48v6h-48zM1296 486h12v6h-12zM1296 492h12v6h-12zM1278 534h48v6h-48zM1278 600h48v6h-48z" fill="#181716"/>
<path d="M1188 414h6v6h-6zM1194 420h6v6h-6zM1302 420h6v6h-6zM1200 426h6v6h-6zM1302 426h6v6h-6zM1200 432h6v6h-6zM1308 432h6v6h-6zM1194 438h6v6h-6zM1308 438h6v6h-6zM1188 444h6v6h-6zM1314 444h6v6h-6zM1182 450h6v6h-6zM1314 450h6v6h-6zM1182 456h6v6h-6zM1314 456h6v6h-6zM1188 462h6v6h-6zM1320 462h6v6h-6zM1194 468h6v6h-6zM1320 468h6v6h-6zM1200 474h6v6h-6zM1200 480h6v6h-6zM1320 480h6v6h-6zM1194 486h6v6h-6zM1320 486h6v6h-6zM1188 492h6v6h-6zM1320 492h6v6h-6zM1182 498h6v6h-6zM1320 498h6v6h-6zM1320 504h6v6h-6zM1188 510h6v6h-6zM1320 510h6v6h-6zM1194 516h6v6h-6zM1320 516h6v6h-6zM1200 522h6v6h-6zM1320 522h6v6h-6zM1200 528h6v6h-6zM1320 528h6v6h-6zM1194 534h6v6h-6zM1188 540h6v6h-6zM1320 540h6v6h-6zM1182 546h6v6h-6zM1320 546h6v6h-6zM1182 552h6v6h-6zM1320 552h6v6h-6zM1188 558h6v6h-6zM1320 558h6v6h-6zM1194 564h6v6h-6zM1320 564h6v6h-6zM1200 570h6v6h-6zM1320 570h12v6h-12zM1200 576h6v6h-6zM1320 576h12v6h-12zM1194 582h6v6h-6zM1320 582h18v6h-18zM1188 588h6v6h-6zM1320 588h18v6h-18zM1182 594h6v6h-6zM1320 594h24v6h-24zM1332 600h12v6h-12zM1188 606h6v6h-6zM1308 606h12v6h-12zM1338 606h6v6h-6zM1194 612h6v6h-6zM1308 612h18v6h-18zM1200 618h6v6h-6zM1200 624h6v6h-6zM1194 630h6v6h-6zM1188 636h6v6h-6zM1182 642h6v6h-6zM1182 648h6v6h-6zM1188 654h6v6h-6zM1194 660h6v6h-6zM1200 666h6v6h-6zM1200 672h6v6h-6zM1194 678h6v6h-6zM1188 684h6v6h-6zM1182 690h6v6h-6zM1182 696h6v6h-6zM1188 702h6v6h-6zM1194 708h6v6h-6zM1200 714h6v6h-6zM1200 720h6v6h-6zM1194 726h6v6h-6zM1188 732h6v6h-6zM1182 738h6v6h-6zM1182 744h6v6h-6zM1188 750h6v6h-6zM1194 756h6v6h-6zM1200 762h6v6h-6zM1200 768h6v6h-6zM1194 774h6v6h-6zM1188 780h6v6h-6zM1182 786h6v6h-6zM1182 792h6v6h-6zM1188 798h6v6h-6zM1194 804h6v6h-6zM1218 804h24v6h-24zM1308 804h48v6h-48zM1206 810h42v6h-42zM1260 810h24v6h-24zM1296 810h72v6h-72zM1194 816h48v6h-48zM1254 816h24v6h-24zM1290 816h72v6h-72zM1374 816h24v6h-24zM1188 822h48v6h-48zM1248 822h102v6h-102zM1362 822h48v6h-48zM1188 828h156v6h-156zM1350 828h66v6h-66zM1170 834h240v6h-240zM1164 840h174v6h-174zM1344 840h60v6h-60zM1410 840h30v6h-30zM1158 846h72v6h-72zM1236 846h30v6h-30zM1302 846h18v6h-18zM1356 846h42v6h-42zM1404 846h48v6h-48zM1122 852h24v6h-24zM1152 852h66v6h-66zM1230 852h6v6h-6zM1254 852h6v6h-6zM1266 852h36v6h-36zM1320 852h36v6h-36zM1362 852h18v6h-18zM1398 852h60v6h-60zM1116 858h30v6h-30zM1152 858h6v6h-6zM1188 858h18v6h-18zM1218 858h36v6h-36zM1260 858h48v6h-48zM1314 858h48v6h-48zM1380 858h18v6h-18zM1410 858h48v6h-48zM1086 864h12v6h-12zM1110 864h6v6h-6zM1128 864h24v6h-24zM1158 864h30v6h-30zM1194 864h108v6h-108zM1308 864h54v6h-54zM1368 864h42v6h-42zM1416 864h24v6h-24zM1464 864h30v6h-30zM1074 870h30v6h-30zM1116 870h12v6h-12zM1140 870h6v6h-6zM1152 870h42v6h-42zM1206 870h228v6h-228zM1440 870h18v6h-18zM1470 870h18v6h-18zM1518 870h12v6h-12zM1038 876h24v6h-24zM1086 876h18v6h-18zM1110 876h30v6h-30zM1146 876h282v6h-282zM1434 876h48v6h-48zM1488 876h18v6h-18zM1512 876h30v6h-30zM1032 882h24v6h-24zM1062 882h414v6h-414zM1482 882h54v6h-54zM1542 882h24v6h-24zM1032 888h540v6h-540zM1038 894h528v6h-528z" fill="#282726"/>
<path d="M786 72h6v6h-6zM1830 108h6v6h-6zM240 120h6v6h-6zM1500 150h6v6h-6zM528 264h6v6h-6zM960 360h6v6h-6zM1188 390h6v6h-6zM1188 396h6v6h-6zM1188 402h6v6h-6zM1176 408h36v6h-36zM1176 414h6v6h-6zM1206 414h6v6h-6zM1176 420h6v6h-6zM1206 420h6v6h-6zM1740 420h6v6h-6zM1176 426h6v6h-6zM1206 426h6v6h-6zM1176 432h6v6h-6zM1206 432h6v6h-6zM1302 432h6v6h-6zM1176 438h6v6h-6zM1206 438h6v6h-6zM1302 438h6v6h-6zM1176 444h6v6h-6zM1206 444h6v6h-6zM1302 444h12v6h-12zM1176 450h6v6h-6zM1206 450h6v6h-6zM1302 450h12v6h-12zM1176 456h6v6h-6zM1206 456h6v6h-6zM1302 456h12v6h-12zM1176 462h6v6h-6zM1206 462h6v6h-6zM1302 462h18v6h-18zM1176 468h6v6h-6zM1206 468h6v6h-6zM1302 468h18v6h-18zM1176 474h6v6h-6zM1206 474h6v6h-6zM1176 480h6v6h-6zM1206 480h6v6h-6zM1302 480h18v6h-18zM1176 486h6v6h-6zM1206 486h6v6h-6zM1308 486h12v6h-12zM1176 492h6v6h-6zM1206 492h6v6h-6zM1308 492h12v6h-12zM1176 498h6v6h-6zM1206 498h6v6h-6zM1302 498h18v6h-18zM1176 504h36v6h-36zM1176 510h6v6h-6zM1206 510h6v6h-6zM1302 510h18v6h-18zM1176 516h6v6h-6zM1206 516h6v6h-6zM1302 516h18v6h-18zM1176 522h6v6h-6zM1206 522h6v6h-6zM1302 522h18v6h-18zM1176 528h6v6h-6zM1206 528h6v6h-6zM1302 528h18v6h-18zM1176 534h6v6h-6zM1206 534h6v6h-6zM1176 540h6v6h-6zM1206 540h6v6h-6zM1302 540h18v6h-18zM1176 546h6v6h-6zM1206 546h6v6h-6zM1302 546h18v6h-18zM1176 552h6v6h-6zM1206 552h6v6h-6zM1302 552h18v6h-18zM1176 558h6v6h-6zM1206 558h6v6h-6zM1302 558h18v6h-18zM1176 564h6v6h-6zM1206 564h6v6h-6zM1302 564h18v6h-18zM120 570h6v6h-6zM1176 570h6v6h-6zM1206 570h6v6h-6zM1272 570h6v6h-6zM1302 570h18v6h-18zM1176 576h6v6h-6zM1206 576h6v6h-6zM1272 576h6v6h-6zM1302 576h18v6h-18zM1176 582h6v6h-6zM1206 582h6v6h-6zM1266 582h12v6h-12zM1302 582h18v6h-18zM1176 588h6v6h-6zM1206 588h6v6h-6zM1266 588h12v6h-12zM1302 588h18v6h-18zM1176 594h6v6h-6zM1206 594h6v6h-6zM1260 594h18v6h-18zM1302 594h18v6h-18zM1176 600h36v6h-36zM1260 600h12v6h-12zM1176 606h6v6h-6zM1206 606h6v6h-6zM1260 606h6v6h-6zM1290 606h18v6h-18zM1176 612h6v6h-6zM1206 612h6v6h-6zM1290 612h18v6h-18zM1176 618h6v6h-6zM1206 618h6v6h-6zM1176 624h6v6h-6zM1206 624h6v6h-6zM1176 630h6v6h-6zM1206 630h6v6h-6zM1176 636h6v6h-6zM1206 636h6v6h-6zM1176 642h6v6h-6zM1206 642h6v6h-6zM1176 648h6v6h-6zM1206 648h6v6h-6zM1176 654h6v6h-6zM1206 654h6v6h-6zM420 660h6v6h-6zM1176 660h6v6h-6zM1206 660h6v6h-6zM1650 660h6v6h-6zM1176 666h6v6h-6zM1206 666h6v6h-6zM1176 672h6v6h-6zM1206 672h6v6h-6zM1176 678h6v6h-6zM1206 678h6v6h-6zM1176 684h6v6h-6zM1206 684h6v6h-6zM1176 690h6v6h-6zM1206 690h6v6h-6zM1176 696h6v6h-6zM1206 696h6v6h-6zM1176 702h6v6h-6zM1206 702h6v6h-6zM1176 708h6v6h-6zM1206 708h6v6h-6zM1176 714h6v6h-6zM1206 714h6v6h-6zM1176 720h6v6h-6zM1206 720h6v6h-6zM1176 726h6v6h-6zM1206 726h6v6h-6zM1176 732h6v6h-6zM1206 732h6v6h-6zM1176 738h6v6h-6zM1206 738h6v6h-6zM1176 744h6v6h-6zM1206 744h6v6h-6zM1176 750h6v6h-6zM1206 750h6v6h-6zM1176 756h6v6h-6zM1206 756h6v6h-6zM1176 762h6v6h-6zM1206 762h6v6h-6zM1176 768h6v6h-6zM1206 768h6v6h-6zM1176 774h6v6h-6zM1206 774h6v6h-6zM1176 780h6v6h-6zM1206 780h6v6h-6zM1176 786h6v6h-6zM1206 786h6v6h-6zM1176 792h6v6h-6zM1206 792h6v6h-6zM1176 798h6v6h-6zM1206 798h6v6h-6zM1218 798h24v6h-24zM1176 804h6v6h-6zM1206 804h12v6h-12zM1242 804h12v6h-12zM1176 810h6v6h-6zM1194 810h12v6h-12zM1374 810h24v6h-24zM1176 816h6v6h-6zM1188 816h6v6h-6zM1362 816h12v6h-12zM1398 816h12v6h-12zM1176 822h6v6h-6zM1350 822h12v6h-12zM1410 822h6v6h-6zM1170 828h18v6h-18zM1344 828h6v6h-6zM1416 828h6v6h-6zM1164 834h6v6h-6zM1410 834h30v6h-30zM1158 840h6v6h-6zM1338 840h6v6h-6zM1404 840h6v6h-6zM1440 840h12v6h-12zM1122 846h24v6h-24zM1152 846h6v6h-6zM1230 846h6v6h-6zM1266 846h36v6h-36zM1320 846h36v6h-36zM1398 846h6v6h-6zM1452 846h6v6h-6zM1116 852h6v6h-6zM1146 852h6v6h-6zM1218 852h12v6h-12zM1236 852h18v6h-18zM1260 852h6v6h-6zM1302 852h18v6h-18zM1356 852h6v6h-6zM1380 852h18v6h-18zM1086 858h12v6h-12zM1110 858h6v6h-6zM1146 858h6v6h-6zM1158 858h30v6h-30zM1206 858h12v6h-12zM1254 858h6v6h-6zM1308 858h6v6h-6zM1362 858h18v6h-18zM1398 858h12v6h-12zM1464 858h30v6h-30zM1074 864h12v6h-12zM1098 864h12v6h-12zM1116 864h12v6h-12zM1152 864h6v6h-6zM1188 864h6v6h-6zM1302 864h6v6h-6zM1362 864h6v6h-6zM1410 864h6v6h-6zM1440 864h24v6h-24zM1494 864h6v6h-6zM1518 864h12v6h-12zM1038 870h24v6h-24zM1104 870h12v6h-12zM1128 870h12v6h-12zM1146 870h6v6h-6zM1194 870h12v6h-12zM1434 870h6v6h-6zM1458 870h12v6h-12zM1488 870h18v6h-18zM1512 870h6v6h-6zM1530 870h12v6h-12zM1032 876h6v6h-6zM1062 876h24v6h-24zM1104 876h6v6h-6zM1140 876h6v6h-6zM1428 876h6v6h-6zM1482 876h6v6h-6zM1506 876h6v6h-6zM1542 876h24v6h-24zM1056 882h6v6h-6zM1476 882h6v6h-6zM1536 882h6v6h-6zM0 900h1920v6h-1920z" fill="#343331"/>
<path d="M1296 432h6v6h-6zM1296 438h6v6h-6zM1290 444h12v6h-12zM1290 450h12v6h-12zM1290 456h12v6h-12zM1284 462h18v6h-18zM1284 468h18v6h-18zM1284 480h18v6h-18zM1284 486h12v6h-12zM1284 492h12v6h-12zM1284 498h18v6h-18zM1284 510h18v6h-18zM1284 516h18v6h-18zM1284 522h18v6h-18zM1284 528h18v6h-18zM1284 540h18v6h-18zM1284 546h18v6h-18zM1284 552h18v6h-18zM1284 558h18v6h-18zM1284 564h18v6h-18zM1284 570h18v6h-18zM1284 576h18v6h-18zM1284 582h18v6h-18zM1284 588h18v6h-18zM1284 594h18v6h-18zM1284 606h6v6h-6zM1278 612h12v6h-12z" fill="#403E3C"/>
<path d="M1296 420h6v6h-6zM1296 426h6v6h-6zM1290 432h6v6h-6zM1290 438h6v6h-6zM1284 444h6v6h-6zM1284 450h6v6h-6zM1284 456h6v6h-6zM1278 462h6v6h-6zM1278 468h6v6h-6zM1278 480h6v6h-6zM1278 486h6v6h-6zM1278 492h6v6h-6zM1278 498h6v6h-6zM1278 504h6v6h-6zM1278 510h6v6h-6zM1278 516h6v6h-6zM1278 522h6v6h-6zM1278 528h6v6h-6zM1278 540h6v6h-6zM1278 546h6v6h-6zM1278 552h6v6h-6zM1278 558h6v6h-6zM1278 564h6v6h-6zM1278 570h6v6h-6zM1278 576h6v6h-6zM1278 582h6v6h-6zM1278 588h6v6h-6zM1278 594h6v6h-6z" fill="#575653"/>
<path d="M1308 798h48v6h-48zM1260 804h30v6h-30zM1296 804h12v6h-12zM1356 804h12v6h-12zM1254 810h6v6h-6zM1290 810h6v6h-6zM1368 810h6v6h-6zM1248 816h6v6h-6zM1284 816h6v6h-6zM1242 822h6v6h-6z" fill="#40211B"/>
<path d="M1308 792h48v6h-48zM1260 798h48v6h-48zM1356 798h12v6h-12zM1254 804h6v6h-6zM1290 804h6v6h-6zM1368 804h6v6h-6zM1248 810h6v6h-6zM1284 810h6v6h-6zM1242 816h6v6h-6zM1278 816h6v6h-6zM1236 822h6v6h-6z" fill="#55291F"/>
<path d="M1284 678h6v6h-6zM1308 678h6v6h-6zM1284 684h6v6h-6zM1308 684h6v6h-6zM1284 690h6v6h-6zM1308 690h6v6h-6zM1290 750h6v6h-6zM1302 750h6v6h-6zM1290 756h6v6h-6zM1302 756h6v6h-6zM1290 762h6v6h-6zM1302 762h6v6h-6zM1290 768h6v6h-6zM1302 768h6v6h-6zM1290 774h6v6h-6zM1302 774h6v6h-6zM1290 780h6v6h-6zM1302 780h6v6h-6zM1290 786h6v6h-6zM1302 786h6v6h-6zM1290 792h6v6h-6zM1302 792h6v6h-6z" fill="#71311E"/>
<path d="M1284 630h6v6h-6zM1308 630h6v6h-6zM1284 636h6v6h-6zM1308 636h6v6h-6zM1284 642h6v6h-6zM1308 642h6v6h-6zM1284 648h6v6h-6zM1308 648h6v6h-6zM1284 654h6v6h-6zM1308 654h6v6h-6zM1284 660h6v6h-6zM1308 660h6v6h-6zM1284 666h6v6h-6zM1308 666h6v6h-6zM1284 672h6v6h-6zM1308 672h6v6h-6zM1290 678h6v6h-6zM1302 678h6v6h-6zM1290 684h6v6h-6zM1302 684h6v6h-6zM1290 690h6v6h-6zM1302 690h6v6h-6zM1290 696h6v6h-6zM1302 696h6v6h-6zM1290 702h6v6h-6zM1302 702h6v6h-6zM1290 708h6v6h-6zM1302 708h6v6h-6zM1290 714h6v6h-6zM1302 714h6v6h-6zM1290 720h6v6h-6zM1302 720h6v6h-6zM1290 726h6v6h-6zM1302 726h6v6h-6zM1290 732h6v6h-6zM1302 732h6v6h-6zM1290 738h6v6h-6zM1302 738h6v6h-6zM1290 744h6v6h-6zM1302 744h6v6h-6zM1296 750h6v6h-6zM1296 756h6v6h-6zM1296 762h6v6h-6zM1296 768h6v6h-6zM1296 774h6v6h-6zM1296 780h6v6h-6zM1296 786h6v6h-6zM1296 792h6v6h-6z" fill="#B14D2F"/>
<path d="M1290 618h6v6h-6zM1302 618h6v6h-6zM1290 624h6v6h-6zM1302 624h6v6h-6zM1290 630h6v6h-6zM1302 630h6v6h-6zM1290 636h6v6h-6zM1302 636h6v6h-6zM1290 642h6v6h-6zM1302 642h6v6h-6zM1290 648h6v6h-6zM1302 648h6v6h-6zM1290 654h6v6h-6zM1302 654h6v6h-6zM1290 660h6v6h-6zM1302 660h6v6h-6zM1290 666h6v6h-6zM1302 666h6v6h-6zM1290 672h6v6h-6zM1302 672h6v6h-6zM1296 678h6v6h-6zM1296 684h6v6h-6zM1296 690h6v6h-6zM1296 696h6v6h-6zM1296 702h6v6h-6zM1296 708h6v6h-6zM1296 714h6v6h-6zM1296 720h6v6h-6zM1296 726h6v6h-6zM1296 732h6v6h-6zM1296 738h6v6h-6zM1296 744h6v6h-6z" fill="#CF6A4C"/>
<path d="M1296 618h6v6h-6zM1296 624h6v6h-6zM1296 630h6v6h-6zM1296 636h6v6h-6zM1296 642h6v6h-6zM1296 648h6v6h-6zM1296 654h6v6h-6zM1296 660h6v6h-6zM1296 666h6v6h-6zM1296 672h6v6h-6z" fill="#E08A6E"/>
<path d="M1284 504h36v6h-36z" fill="#2E1C19"/>
</svg>
