<svg xmlns="http://www.w3.org/2000/svg" viewBox="0 0 1920 1080" width="1920" height="1080">
<defs><linearGradient id="lg1" x1="0" y1="0" x2="1920" y2="0" gradientUnits="userSpaceOnUse"><stop offset="0" stop-color="#fff" stop-opacity="0.35"/><stop offset="0.75" stop-color="#fff" stop-opacity="1"/></linearGradient><radialGradient id="rg2" cx="1120" cy="4150" r="3670" gradientUnits="userSpaceOnUse"><stop offset="0.981" stop-color="#55291F"/><stop offset="1" stop-color="#1C1B1A" stop-opacity="0"/></radialGradient><mask id="m3" maskUnits="userSpaceOnUse" x="0" y="0" width="1920" height="1080"><rect width="1920" height="1080" fill="url(#lg1)"/></mask><linearGradient id="lg4" x1="0" y1="550" x2="0" y2="1080" gradientUnits="userSpaceOnUse"><stop offset="0" stop-color="#fff"/><stop offset="1" stop-color="#fff" stop-opacity="0.25"/></linearGradient><mask id="m5" maskUnits="userSpaceOnUse" x="0" y="0" width="1920" height="1080"><rect width="1920" height="1080" fill="url(#lg4)"/></mask><linearGradient id="lg6" x1="0" y1="0" x2="1920" y2="0" gradientUnits="userSpaceOnUse"><stop offset="0" stop-color="#A1462B"/><stop offset="0.7" stop-color="#CF6A4C"/></linearGradient></defs>
<rect x="0" y="0" width="1920" height="1080" fill="#1C1B1A"/>
<g mask="url(#m3)">
<circle cx="1120" cy="4150" r="3670" fill="url(#rg2)"/>
</g>
<circle cx="1120" cy="4150" r="3600" fill="none" stroke="#55291F" stroke-width="2.5" stroke-opacity="0.2"/>
<circle cx="1120" cy="4150" r="3600" fill="none" stroke="#55291F" stroke-width="5" stroke-opacity="0.2"/>
<circle cx="1120" cy="4150" r="3600" fill="none" stroke="#55291F" stroke-width="7.5" stroke-opacity="0.2"/>
<circle cx="1120" cy="4150" r="3600" fill="none" stroke="#55291F" stroke-width="10" stroke-opacity="0.2"/>
<circle cx="1120" cy="4150" r="3600" fill="none" stroke="#55291F" stroke-width="12.5" stroke-opacity="0.2"/>
<circle cx="1120" cy="4150" r="3600" fill="none" stroke="#55291F" stroke-width="15" stroke-opacity="0.2"/>
<circle cx="1120" cy="4150" r="3600" fill="none" stroke="#55291F" stroke-width="17.5" stroke-opacity="0.2"/>
<circle cx="1120" cy="4150" r="3600" fill="none" stroke="#55291F" stroke-width="20" stroke-opacity="0.2"/>
<circle cx="1120" cy="4150" r="3600" fill="#181716"/>
<g mask="url(#m5)">
<path d="M-13.6 734.9L-4.8 731.8L4.1 728.8L12.9 725.8L21.8 722.9L30.7 719.9L39.6 717L48.6 714.1L57.5 711.2L66.5 708.4L75.5 705.6L84.6 702.8L93.6 700L102.7 697.3L111.8 694.5L120.9 691.8L130 689.2L139.1 686.5L148.3 683.9L157.5 681.3L166.7 678.7L175.9 676.2L185.1 673.6L194.4 671.1L203.6 668.7L212.9 666.2L222.2 663.8L231.5 661.4L240.9 659L250.2 656.7L259.6 654.3L269 652M-11.8 739L-3.3 736L5.1 733L13.6 730L22.1 727L30.7 724.1L39.3 721.2L47.8 718.3L56.4 715.4L65.1 712.6L73.7 709.7L82.4 706.9L91 704.2L99.8 701.4L108.5 698.7L117.2 696L126 693.3L134.8 690.6L143.6 688L152.4 685.4L161.2 682.8L170.1 680.2L178.9 677.7L187.8 675.2L196.7 672.7L205.7 670.2L214.6 667.8L223.6 665.3L232.5 662.9L241.5 660.6L250.5 658.2L259.6 655.9L268.6 653.6L277.7 651.3L286.7 649.1L295.8 646.8L304.9 644.6L314.1 642.4L323.2 640.3L332.4 638.2L341.5 636.1L350.7 634L359.9 631.9L369.1 629.9L378.3 627.9L387.6 625.9L396.8 623.9L406.1 622L415.4 620.1L424.7 618.2L434 616.4L443.3 614.5L452.7 612.7L462 610.9L471.4 609.2L480.7 607.5L490.1 605.8L499.5 604.1L508.9 602.4L518.3 600.8L527.8 599.2L537.2 597.6L546.7 596.1L556.1 594.5L565.6 593L575.1 591.5L584.6 590.1L594.1 588.7L603.6 587.3L613.1 585.9L622.7 584.5L632.2 583.2L641.8 581.9L651.3 580.6L660.9 579.4L670.5 578.2L680.1 577L689.7 575.8M1545.5 575.2L1555.1 576.4L1564.7 577.6L1574.3 578.8L1583.9 580L1593.4 581.3L1603 582.6L1612.5 583.9L1622.1 585.2L1631.6 586.6L1641.1 588L1650.7 589.4L1660.2 590.8L1669.6 592.3L1679.1 593.8L1688.6 595.3L1698.1 596.8L1707.5 598.4L1716.9 600L1726.4 601.6L1735.8 603.2L1745.2 604.9L1754.6 606.6L1764 608.3L1773.3 610.1L1782.7 611.8L1792 613.6L1801.3 615.4L1810.7 617.3L1820 619.2L1829.3 621.1L1838.5 623L1847.8 624.9L1857 626.9L1866.3 628.9L1875.5 630.9L1884.7 632.9L1893.9 635L1903.1 637.1L1912.2 639.2L1921.4 641.4L1930.5 643.5L1939.6 645.7M-14.7 748.1L-6.7 745.1L1.4 742.1L9.5 739.1L17.7 736.1L25.8 733.2L34 730.2L42.2 727.3L50.4 724.4L58.7 721.6L66.9 718.7L75.2 715.9L83.5 713.1L91.8 710.3L100.1 707.6L108.5 704.8L116.9 702.1L125.3 699.5L133.7 696.8L142.1 694.1L150.6 691.5L159 688.9L167.5 686.4L176 683.8L184.5 681.3L193.1 678.8L201.6 676.3L210.2 673.9L218.8 671.4L227.4 669L236.1 666.6L244.7 664.3L253.4 661.9L262 659.6L270.7 657.3L279.4 655L288.2 652.8L296.9 650.6L305.7 648.4L314.4 646.2L323.2 644L332 641.9L340.9 639.8L349.7 637.7L358.5 635.6L367.4 633.6L376.3 631.6L385.2 629.6L394.1 627.6L403 625.7L411.9 623.8L420.9 621.9L429.8 620L438.8 618.2L447.8 616.4L456.8 614.6L465.8 612.8L474.8 611.1L483.9 609.3L492.9 607.6L502 606L511.1 604.3L520.1 602.7L529.2 601.1L538.3 599.5L547.5 598L556.6 596.4L565.7 594.9L574.9 593.5L584 592L593.2 590.6L602.4 589.2L611.6 587.8L620.8 586.4L630 585.1L639.2 583.8L648.4 582.5L657.7 581.3L666.9 580L676.2 578.8L685.4 577.7L694.7 576.5L704 575.4L713.3 574.3L722.6 573.2L731.9 572.1L741.2 571.1L750.5 570.1L759.8 569.1L769.2 568.2L778.5 567.2L787.9 566.3L797.2 565.4L806.6 564.6L815.9 563.8L825.3 562.9L834.7 562.2L844.1 561.4L853.4 560.7L862.8 560L872.2 559.3L881.6 558.6L891 558L900.4 557.4L909.8 556.8L919.3 556.3L928.7 555.8L938.1 555.3L947.5 554.8L957 554.3L966.4 553.9L975.8 553.5L985.3 553.1L994.7 552.8L1004.2 552.5L1013.6 552.2L1023.1 551.9L1032.5 551.6L1042 551.4L1051.4 551.2L1060.9 551L1070.3 550.9L1079.8 550.8L1089.3 550.7L1098.7 550.6L1108.2 550.6L1117.6 550.5L1127.1 550.6L1136.6 550.6L1146 550.6L1155.5 550.7L1164.9 550.8L1174.4 551L1183.8 551.1L1193.3 551.3L1202.8 551.5L1212.2 551.8L1221.7 552L1231.1 552.3L1240.6 552.6L1250 553L1259.4 553.3L1268.9 553.7L1278.3 554.1L1287.7 554.6L1297.2 555L1306.6 555.5L1316 556L1325.4 556.6L1334.9 557.1L1344.3 557.7L1353.7 558.3L1363.1 559L1372.5 559.6L1381.9 560.3L1391.3 561L1400.6 561.8L1410 562.6L1419.4 563.3L1428.8 564.2L1438.1 565L1447.5 565.9L1456.8 566.8L1466.2 567.7L1475.5 568.6L1484.8 569.6L1494.1 570.6L1503.5 571.6L1512.8 572.6L1522.1 573.7L1531.4 574.8L1540.6 575.9L1549.9 577.1L1559.2 578.2L1568.4 579.4L1577.7 580.7L1586.9 581.9L1596.2 583.2L1605.4 584.5L1614.6 585.8L1623.8 587.1L1633 588.5L1642.2 589.9L1651.4 591.3L1660.5 592.7L1669.7 594.2L1678.8 595.7L1688 597.2L1697.1 598.7L1706.2 600.3L1715.3 601.9L1724.4 603.5L1733.5 605.1L1742.5 606.8L1751.6 608.5L1760.6 610.2L1769.7 611.9L1778.7 613.7L1787.7 615.5L1796.7 617.3L1805.7 619.1L1814.6 621L1823.6 622.8L1832.5 624.7L1841.5 626.7L1850.4 628.6L1859.3 630.6L1868.2 632.6L1877 634.6L1885.9 636.7L1894.7 638.7L1903.6 640.8L1912.4 643L1921.2 645.1L1929.9 647.3L1938.7 649.5M-13.5 759.1L-5.9 756L1.8 753L9.6 750L17.3 747L25.1 744.1L32.9 741.1L40.7 738.2L48.5 735.3L56.3 732.5L64.2 729.6L72.1 726.8L80 724L87.9 721.2L95.9 718.4L103.9 715.7L111.8 713L119.8 710.3L127.9 707.6L135.9 704.9L144 702.3L152.1 699.7L160.2 697.1L168.3 694.5L176.4 692L184.6 689.5L192.7 687L200.9 684.5L209.1 682L217.4 679.6L225.6 677.2L233.9 674.8L242.1 672.4L250.4 670.1L258.7 667.7L267.1 665.4L275.4 663.1L283.8 660.9L292.1 658.6L300.5 656.4L308.9 654.2L317.4 652.1L325.8 649.9L334.2 647.8L342.7 645.7L351.2 643.6L359.7 641.6L368.2 639.5L376.7 637.5L385.3 635.5L393.8 633.6L402.4 631.6L411 629.7L419.5 627.8L428.2 626L436.8 624.1L445.4 622.3L454.1 620.5L462.7 618.7L471.4 616.9L480.1 615.2L488.8 613.5L497.5 611.8L506.2 610.2L514.9 608.5L523.7 606.9L532.4 605.3L541.2 603.7L550 602.2L558.8 600.7L567.6 599.2L576.4 597.7L585.2 596.3L594 594.8L602.8 593.4L611.7 592.1L620.6 590.7L629.4 589.4L638.3 588.1L647.2 586.8L656.1 585.5L665 584.3L673.9 583.1L682.8 581.9L691.8 580.7L700.7 579.6L709.6 578.5L718.6 577.4L727.6 576.3L736.5 575.3L745.5 574.2L754.5 573.3L763.5 572.3L772.5 571.3L781.5 570.4L790.5 569.5L799.5 568.6L808.5 567.8L817.6 567L826.6 566.2L835.6 565.4L844.7 564.6L853.7 563.9L862.8 563.2L871.8 562.5L880.9 561.9L890 561.2L899.1 560.6L908.1 560.1L917.2 559.5L926.3 559L935.4 558.5L944.5 558L953.6 557.5L962.7 557.1L971.8 556.7L980.9 556.3L990 555.9L999.1 555.6L1008.2 555.3L1017.4 555L1026.5 554.7L1035.6 554.5L1044.7 554.3L1053.8 554.1L1063 553.9L1072.1 553.8L1081.2 553.6L1090.3 553.6L1099.5 553.5L1108.6 553.4L1117.7 553.4L1126.8 553.4L1136 553.5L1145.1 553.5L1154.2 553.6L1163.4 553.7L1172.5 553.8L1181.6 554L1190.7 554.2L1199.9 554.4L1209 554.6L1218.1 554.8L1227.2 555.1L1236.3 555.4L1245.4 555.7L1254.5 556.1L1263.7 556.5L1272.8 556.9L1281.9 557.3L1291 557.7L1300.1 558.2L1309.1 558.7L1318.2 559.2L1327.3 559.8L1336.4 560.3L1345.5 560.9L1354.6 561.6L1363.6 562.2L1372.7 562.9L1381.7 563.6L1390.8 564.3L1399.8 565L1408.9 565.8L1417.9 566.6L1427 567.4L1436 568.2L1445 569.1L1454 570L1463 570.9L1472 571.8L1481 572.8L1490 573.7L1499 574.8L1508 575.8L1516.9 576.8L1525.9 577.9L1534.8 579L1543.8 580.1L1552.7 581.3L1561.6 582.5L1570.6 583.7L1579.5 584.9L1588.4 586.1L1597.3 587.4L1606.1 588.7L1615 590L1623.9 591.4L1632.7 592.7L1641.6 594.1L1650.4 595.5L1659.2 597L1668 598.4L1676.8 599.9L1685.6 601.4L1694.4 603L1703.2 604.5L1712 606.1L1720.7 607.7L1729.4 609.3L1738.2 611L1746.9 612.7L1755.6 614.4L1764.3 616.1L1773 617.8L1781.6 619.6L1790.3 621.4L1798.9 623.2L1807.5 625L1816.1 626.9L1824.7 628.8L1833.3 630.7L1841.9 632.6L1850.5 634.6L1859 636.5L1867.5 638.5L1876.1 640.5L1884.6 642.6L1893.1 644.7L1901.5 646.7L1910 648.9L1918.4 651L1926.9 653.2L1935.3 655.3M-15.5 774.7L-8.2 771.7L-0.9 768.7L6.4 765.7L13.7 762.7L21.1 759.7L28.4 756.8L35.8 753.9L43.3 751L50.7 748.1L58.2 745.2L65.6 742.4L73.1 739.5L80.6 736.7L88.2 733.9L95.7 731.2L103.3 728.4L110.9 725.7L118.5 723L126.2 720.3L133.8 717.7L141.5 715L149.2 712.4L156.9 709.8L164.6 707.2L172.4 704.7L180.1 702.1L187.9 699.6L195.7 697.1L203.5 694.7L211.4 692.2L219.2 689.8L227.1 687.4L235 685L242.9 682.6L250.8 680.3L258.7 677.9L266.7 675.6L274.7 673.3L282.6 671.1L290.6 668.8L298.7 666.6L306.7 664.4L314.7 662.2L322.8 660.1L330.9 658L339 655.8L347.1 653.8L355.2 651.7L363.3 649.6L371.5 647.6L379.7 645.6L387.8 643.6L396 641.7L404.3 639.8L412.5 637.8L420.7 635.9L429 634.1L437.2 632.2L445.5 630.4L453.8 628.6L462.1 626.8L470.4 625.1L478.7 623.3L487.1 621.6L495.4 619.9L503.8 618.3L512.1 616.6L520.5 615L528.9 613.4L537.3 611.8L545.8 610.3L554.2 608.7L562.6 607.2L571.1 605.7L579.5 604.3L588 602.8L596.5 601.4L605 600L613.5 598.6L622 597.3L630.5 596L639.1 594.7L647.6 593.4L656.1 592.1L664.7 590.9L673.3 589.7L681.8 588.5L690.4 587.3L699 586.2L707.6 585.1L716.2 584L724.8 582.9L733.5 581.8L742.1 580.8L750.7 579.8L759.4 578.8L768 577.9L776.7 576.9L785.3 576L794 575.1L802.7 574.3L811.4 573.4L820.1 572.6L828.8 571.8L837.5 571L846.2 570.3L854.9 569.6L863.6 568.9L872.3 568.2L881 567.5L889.8 566.9L898.5 566.3L907.2 565.7L916 565.2L924.7 564.6L933.5 564.1L942.2 563.6L951 563.1L959.8 562.7L968.5 562.3L977.3 561.9L986.1 561.5L994.8 561.2L1003.6 560.8L1012.4 560.5L1021.2 560.3L1029.9 560L1038.7 559.8L1047.5 559.6L1056.3 559.4L1065.1 559.2L1073.9 559.1L1082.6 559L1091.4 558.9L1100.2 558.8L1109 558.8L1117.8 558.8L1126.6 558.8L1135.4 558.8L1144.2 558.9L1153 558.9L1161.7 559L1170.5 559.2L1179.3 559.3L1188.1 559.5L1196.9 559.7L1205.7 559.9L1214.5 560.1L1223.2 560.4L1232 560.7L1240.8 561L1249.6 561.3L1258.3 561.7L1267.1 562.1L1275.9 562.5L1284.6 562.9L1293.4 563.4L1302.1 563.9L1310.9 564.4L1319.6 564.9L1328.4 565.4L1337.1 566L1345.9 566.6L1354.6 567.2L1363.3 567.9L1372 568.5L1380.8 569.2L1389.5 569.9L1398.2 570.7L1406.9 571.4L1415.6 572.2L1424.3 573L1433 573.8L1441.6 574.7L1450.3 575.6L1459 576.5L1467.6 577.4L1476.3 578.3L1484.9 579.3L1493.6 580.3L1502.2 581.3L1510.8 582.4L1519.5 583.4L1528.1 584.5L1536.7 585.6L1545.3 586.7L1553.9 587.9L1562.4 589.1L1571 590.3L1579.6 591.5L1588.1 592.7L1596.7 594L1605.2 595.3L1613.7 596.6L1622.3 598L1630.8 599.3L1639.3 600.7L1647.7 602.1L1656.2 603.5L1664.7 605L1673.1 606.5L1681.6 608L1690 609.5L1698.5 611L1706.9 612.6L1715.3 614.2L1723.7 615.8L1732 617.4L1740.4 619.1L1748.8 620.8L1757.1 622.5L1765.4 624.2L1773.8 625.9L1782.1 627.7L1790.4 629.5L1798.6 631.3L1806.9 633.2L1815.2 635L1823.4 636.9L1831.6 638.8L1839.9 640.7L1848.1 642.7L1856.2 644.6L1864.4 646.6L1872.6 648.6L1880.7 650.7L1888.9 652.7L1897 654.8L1905.1 656.9L1913.2 659L1921.2 661.2L1929.3 663.3L1937.3 665.5M-19.3 795.1L-12.5 792L-5.6 789L1.2 786L8.1 783L15.1 780L22 777L29 774.1L36 771.2L43 768.3L50 765.4L57 762.5L64.1 759.7L71.2 756.8L78.3 754L85.4 751.2L92.6 748.5L99.7 745.7L106.9 743L114.1 740.3L121.3 737.6L128.6 734.9L135.8 732.2L143.1 729.6L150.4 727L157.7 724.4L165.1 721.8L172.4 719.3L179.8 716.7L187.2 714.2L194.6 711.7L202 709.2L209.5 706.8L216.9 704.3L224.4 701.9L231.9 699.5L239.4 697.1L246.9 694.8L254.5 692.4L262 690.1L269.6 687.8L277.2 685.6L284.8 683.3L292.5 681.1L300.1 678.9L307.8 676.7L315.4 674.5L323.1 672.3L330.8 670.2L338.5 668.1L346.3 666L354 663.9L361.8 661.9L369.6 659.9L377.3 657.8L385.2 655.9L393 653.9L400.8 652L408.7 650L416.5 648.1L424.4 646.2L432.3 644.4L440.2 642.5L448.1 640.7L456 638.9L464 637.2L471.9 635.4L479.9 633.7L487.8 632L495.8 630.3L503.8 628.6L511.8 627L519.9 625.3L527.9 623.7L535.9 622.2L544 620.6L552.1 619.1L560.2 617.5L568.2 616.1L576.3 614.6L584.5 613.1L592.6 611.7L600.7 610.3L608.8 608.9L617 607.5L625.2 606.2L633.3 604.9L641.5 603.6L649.7 602.3L657.9 601.1L666.1 599.8L674.3 598.6L682.5 597.4L690.8 596.3L699 595.1L707.2 594L715.5 592.9L723.8 591.8L732 590.8L740.3 589.7L748.6 588.7L756.9 587.7L765.2 586.8L773.5 585.8L781.8 584.9L790.1 584L798.4 583.1L806.8 582.3L815.1 581.5L823.5 580.7L831.8 579.9L840.2 579.1L848.5 578.4L856.9 577.6L865.3 576.9L873.6 576.3L882 575.6L890.4 575L898.8 574.4L907.2 573.8L915.6 573.2L924 572.7L932.4 572.2L940.8 571.7L949.2 571.2L957.6 570.8L966 570.4L974.4 569.9L982.9 569.6L991.3 569.2L999.7 568.9L1008.2 568.6L1016.6 568.3L1025 568L1033.5 567.8L1041.9 567.5L1050.3 567.3L1058.8 567.2L1067.2 567L1075.7 566.9L1084.1 566.8L1092.6 566.7L1101 566.6L1109.4 566.6L1117.9 566.6L1126.3 566.6L1134.8 566.6L1143.2 566.7L1151.7 566.7L1160.1 566.8L1168.6 566.9L1177 567.1L1185.4 567.3L1193.9 567.4L1202.3 567.7L1210.8 567.9L1219.2 568.1L1227.6 568.4L1236.1 568.7L1244.5 569L1252.9 569.4L1261.3 569.8L1269.8 570.1L1278.2 570.6L1286.6 571L1295 571.5L1303.4 571.9L1311.8 572.4L1320.2 573L1328.6 573.5L1337 574.1L1345.4 574.7L1353.8 575.3L1362.2 575.9L1370.6 576.6L1378.9 577.3L1387.3 578L1395.7 578.7L1404 579.5L1412.4 580.3L1420.7 581.1L1429.1 581.9L1437.4 582.7L1445.7 583.6L1454 584.5L1462.4 585.4L1470.7 586.3L1479 587.3L1487.3 588.2L1495.5 589.2L1503.8 590.3L1512.1 591.3L1520.4 592.4L1528.6 593.5L1536.9 594.6L1545.1 595.7L1553.4 596.8L1561.6 598L1569.8 599.2L1578 600.4L1586.2 601.7L1594.4 602.9L1602.6 604.2L1610.8 605.5L1618.9 606.9L1627.1 608.2L1635.2 609.6L1643.4 611L1651.5 612.4L1659.6 613.9L1667.7 615.3L1675.8 616.8L1683.9 618.3L1692 619.8L1700 621.4L1708.1 622.9L1716.1 624.5L1724.1 626.2L1732.2 627.8L1740.2 629.4L1748.2 631.1L1756.1 632.8L1764.1 634.5L1772.1 636.3L1780 638L1788 639.8L1795.9 641.6L1803.8 643.5L1811.7 645.3L1819.6 647.2L1827.4 649.1L1835.3 651L1843.1 652.9L1850.9 654.9L1858.8 656.8L1866.6 658.8L1874.3 660.9L1882.1 662.9L1889.9 665L1897.6 667L1905.3 669.1L1913 671.3L1920.7 673.4L1928.4 675.6L1936.1 677.8M-17.4 816.8L-11 813.8L-4.6 810.8L1.9 807.8L8.3 804.8L14.8 801.8L21.3 798.8L27.9 795.9L34.4 792.9L41 790L47.6 787.1L54.2 784.3L60.8 781.4L67.5 778.6L74.2 775.8L80.9 773L87.6 770.2L94.3 767.4L101.1 764.7L107.8 761.9L114.6 759.2L121.5 756.5L128.3 753.8L135.1 751.2L142 748.5L148.9 745.9L155.8 743.3L162.7 740.7L169.7 738.2L176.6 735.6L183.6 733.1L190.6 730.6L197.6 728.1L204.6 725.6L211.7 723.2L218.8 720.8L225.8 718.3L232.9 716L240.1 713.6L247.2 711.2L254.3 708.9L261.5 706.6L268.7 704.3L275.9 702L283.1 699.7L290.3 697.5L297.6 695.3L304.9 693.1L312.1 690.9L319.4 688.7L326.7 686.6L334.1 684.5L341.4 682.4L348.8 680.3L356.1 678.2L363.5 676.2L370.9 674.1L378.3 672.1L385.8 670.2L393.2 668.2L400.6 666.2L408.1 664.3L415.6 662.4L423.1 660.5L430.6 658.7L438.1 656.8L445.7 655L453.2 653.2L460.8 651.4L468.3 649.7L475.9 647.9L483.5 646.2L491.1 644.5L498.8 642.8L506.4 641.2L514 639.5L521.7 637.9L529.4 636.3L537 634.7L544.7 633.2L552.4 631.6L560.1 630.1L567.9 628.6L575.6 627.1L583.3 625.7L591.1 624.3L598.9 622.9L606.6 621.5L614.4 620.1L622.2 618.7L630 617.4L637.8 616.1L645.7 614.8L653.5 613.6L661.3 612.3L669.2 611.1L677 609.9L684.9 608.7L692.8 607.6L700.7 606.4L708.5 605.3L716.4 604.2L724.3 603.1L732.3 602.1L740.2 601L748.1 600L756 599L764 598.1L771.9 597.1L779.9 596.2L787.9 595.3L795.8 594.4L803.8 593.6L811.8 592.7L819.8 591.9L827.8 591.1L835.7 590.3L843.8 589.6L851.8 588.8L859.8 588.1L867.8 587.4L875.8 586.8L883.8 586.1L891.9 585.5L899.9 584.9L907.9 584.3L916 583.8L924 583.2L932.1 582.7L940.2 582.2L948.2 581.7L956.3 581.3L964.3 580.9L972.4 580.5L980.5 580.1L988.6 579.7L996.6 579.4L1004.7 579L1012.8 578.7L1020.9 578.5L1029 578.2L1037 578L1045.1 577.8L1053.2 577.6L1061.3 577.4L1069.4 577.3L1077.5 577.1L1085.6 577L1093.7 576.9L1101.8 576.9L1109.9 576.9L1118 576.8L1126.1 576.8L1134.2 576.9L1142.3 576.9L1150.4 577L1158.5 577.1L1166.5 577.2L1174.6 577.3L1182.7 577.5L1190.8 577.7L1198.9 577.9L1207 578.1L1215.1 578.3L1223.2 578.6L1231.3 578.9L1239.3 579.2L1247.4 579.5L1255.5 579.9L1263.6 580.3L1271.6 580.7L1279.7 581.1L1287.8 581.5L1295.8 582L1303.9 582.5L1311.9 583L1320 583.5L1328 584L1336.1 584.6L1344.1 585.2L1352.1 585.8L1360.2 586.5L1368.2 587.1L1376.2 587.8L1384.2 588.5L1392.2 589.2L1400.3 589.9L1408.3 590.7L1416.2 591.5L1424.2 592.3L1432.2 593.1L1440.2 594L1448.2 594.9L1456.1 595.7L1464.1 596.7L1472 597.6L1480 598.6L1487.9 599.5L1495.9 600.5L1503.8 601.6L1511.7 602.6L1519.6 603.7L1527.5 604.7L1535.4 605.9L1543.3 607L1551.2 608.1L1559 609.3L1566.9 610.5L1574.8 611.7L1582.6 612.9L1590.4 614.2L1598.3 615.5L1606.1 616.8L1613.9 618.1L1621.7 619.4L1629.5 620.8L1637.2 622.2L1645 623.6L1652.8 625L1660.5 626.4L1668.3 627.9L1676 629.4L1683.7 630.9L1691.4 632.4L1699.1 633.9L1706.8 635.5L1714.5 637.1L1722.1 638.7L1729.8 640.3L1737.4 642L1745.1 643.7L1752.7 645.3L1760.3 647.1L1767.9 648.8L1775.4 650.5L1783 652.3L1790.6 654.1L1798.1 655.9L1805.6 657.7L1813.2 659.6L1820.7 661.5L1828.1 663.4L1835.6 665.3L1843.1 667.2L1850.5 669.2L1858 671.1L1865.4 673.1L1872.8 675.2L1880.2 677.2L1887.6 679.2L1894.9 681.3L1902.3 683.4L1909.6 685.5L1916.9 687.7L1924.2 689.8L1931.5 692L1938.8 694.2M-15.7 842.9L-9.7 839.9L-3.8 836.9L2.2 833.8L8.3 830.8L14.3 827.9L20.4 824.9L26.4 822L32.5 819L38.7 816.1L44.8 813.2L51 810.3L57.2 807.5L63.4 804.6L69.6 801.8L75.8 799L82.1 796.2L88.4 793.4L94.7 790.6L101 787.9L107.3 785.1L113.7 782.4L120.1 779.7L126.5 777L132.9 774.4L139.4 771.7L145.8 769.1L152.3 766.5L158.8 763.9L165.3 761.3L171.8 758.8L178.4 756.2L184.9 753.7L191.5 751.2L198.1 748.7L204.8 746.3L211.4 743.8L218 741.4L224.7 739L231.4 736.6L238.1 734.2L244.8 731.8L251.6 729.5L258.3 727.1L265.1 724.8L271.9 722.6L278.7 720.3L285.5 718L292.4 715.8L299.2 713.6L306.1 711.4L313 709.2L319.9 707L326.8 704.9L333.7 702.8L340.6 700.7L347.6 698.6L354.6 696.5L361.6 694.5L368.6 692.4L375.6 690.4L382.6 688.4L389.7 686.5L396.7 684.5L403.8 682.6L410.9 680.7L418 678.8L425.1 676.9L432.2 675L439.4 673.2L446.5 671.4L453.7 669.6L460.9 667.8L468.1 666L475.3 664.3L482.5 662.6L489.7 660.9L497 659.2L504.2 657.5L511.5 655.9L518.7 654.2L526 652.6L533.3 651L540.6 649.5L548 647.9L555.3 646.4L562.6 644.9L570 643.4L577.4 641.9L584.7 640.5L592.1 639.1L599.5 637.6L606.9 636.3L614.3 634.9L621.7 633.5L629.2 632.2L636.6 630.9L644.1 629.6L651.5 628.3L659 627.1L666.5 625.9L674 624.7L681.5 623.5L689 622.3L696.5 621.1L704 620L711.5 618.9L719.1 617.8L726.6 616.8L734.2 615.7L741.7 614.7L749.3 613.7L756.9 612.7L764.4 611.7L772 610.8L779.6 609.9L787.2 608.9L794.8 608.1L802.4 607.2L810.1 606.4L817.7 605.5L825.3 604.7L832.9 603.9L840.6 603.2L848.2 602.4L855.9 601.7L863.5 601L871.2 600.3L878.9 599.7L886.5 599L894.2 598.4L901.9 597.8L909.6 597.3L917.3 596.7L925 596.2L932.6 595.7L940.3 595.2L948 594.7L955.8 594.2L963.5 593.8L971.2 593.4L978.9 593L986.6 592.6L994.3 592.3L1002 592L1009.8 591.7L1017.5 591.4L1025.2 591.1L1033 590.9L1040.7 590.6L1048.4 590.4L1056.2 590.3L1063.9 590.1L1071.6 589.9L1079.4 589.8L1087.1 589.7L1094.8 589.7L1102.6 589.6L1110.3 589.6L1118.1 589.5L1125.8 589.5L1133.5 589.6L1141.3 589.6L1149 589.7L1156.8 589.8L1164.5 589.9L1172.2 590L1180 590.2L1187.7 590.3L1195.4 590.5L1203.2 590.7L1210.9 591L1218.6 591.2L1226.4 591.5L1234.1 591.8L1241.8 592.1L1249.5 592.5L1257.3 592.8L1265 593.2L1272.7 593.6L1280.4 594L1288.1 594.5L1295.8 594.9L1303.5 595.4L1311.2 595.9L1318.9 596.4L1326.6 597L1334.3 597.5L1342 598.1L1349.6 598.7L1357.3 599.4L1365 600L1372.6 600.7L1380.3 601.4L1387.9 602.1L1395.6 602.8L1403.2 603.6L1410.9 604.3L1418.5 605.1L1426.1 605.9L1433.8 606.8L1441.4 607.6L1449 608.5L1456.6 609.4L1464.2 610.3L1471.8 611.2L1479.4 612.2L1486.9 613.2L1494.5 614.2L1502.1 615.2L1509.6 616.2L1517.2 617.3L1524.7 618.4L1532.2 619.5L1539.8 620.6L1547.3 621.7L1554.8 622.9L1562.3 624.1L1569.8 625.3L1577.3 626.5L1584.7 627.7L1592.2 629L1599.7 630.3L1607.1 631.6L1614.5 632.9L1622 634.2L1629.4 635.6L1636.8 636.9L1644.2 638.3L1651.6 639.8L1659 641.2L1666.3 642.7L1673.7 644.1L1681 645.6L1688.4 647.2L1695.7 648.7L1703 650.3L1710.3 651.8L1717.6 653.4L1724.9 655L1732.2 656.7L1739.4 658.3L1746.7 660L1753.9 661.7L1761.1 663.4L1768.3 665.2L1775.5 666.9L1782.7 668.7L1789.9 670.5L1797.1 672.3L1804.2 674.1L1811.3 676L1818.5 677.8L1825.6 679.7L1832.7 681.6L1839.7 683.5L1846.8 685.5L1853.9 687.5L1860.9 689.4L1867.9 691.4L1874.9 693.5L1881.9 695.5L1888.9 697.6L1895.9 699.6L1902.8 701.7L1909.8 703.8L1916.7 706L1923.6 708.1L1930.5 710.3L1937.4 712.5M-18.4 876.1L-12.9 873.1L-7.4 870L-1.9 867L3.6 864L9.2 861L14.7 858L20.3 855.1L26 852.1L31.6 849.2L37.2 846.3L42.9 843.4L48.6 840.5L54.3 837.6L60.1 834.7L65.8 831.9L71.6 829.1L77.4 826.3L83.2 823.5L89.1 820.7L94.9 817.9L100.8 815.2L106.7 812.5L112.6 809.7L118.5 807L124.5 804.4L130.5 801.7L136.5 799L142.5 796.4L148.5 793.8L154.5 791.2L160.6 788.6L166.7 786L172.8 783.5L178.9 780.9L185.1 778.4L191.2 775.9L197.4 773.4L203.6 770.9L209.8 768.5L216 766L222.3 763.6L228.5 761.2L234.8 758.8L241.1 756.5L247.4 754.1L253.7 751.8L260.1 749.4L266.4 747.1L272.8 744.9L279.2 742.6L285.6 740.3L292.1 738.1L298.5 735.9L304.9 733.7L311.4 731.5L317.9 729.3L324.4 727.2L330.9 725.1L337.5 722.9L344 720.9L350.6 718.8L357.2 716.7L363.7 714.7L370.4 712.6L377 710.6L383.6 708.7L390.3 706.7L396.9 704.7L403.6 702.8L410.3 700.9L417 699L423.7 697.1L430.4 695.2L437.2 693.4L443.9 691.6L450.7 689.8L457.5 688L464.3 686.2L471.1 684.4L477.9 682.7L484.8 681L491.6 679.3L498.5 677.6L505.3 675.9L512.2 674.3L519.1 672.7L526 671.1L532.9 669.5L539.8 667.9L546.8 666.4L553.7 664.8L560.7 663.3L567.6 661.8L574.6 660.4L581.6 658.9L588.6 657.5L595.6 656L602.6 654.6L609.7 653.3L616.7 651.9L623.8 650.6L630.8 649.2L637.9 647.9L645 646.6L652.1 645.4L659.2 644.1L666.3 642.9L673.4 641.7L680.5 640.5L687.6 639.3L694.8 638.2L701.9 637L709.1 635.9L716.2 634.8L723.4 633.7L730.6 632.7L737.8 631.7L744.9 630.6L752.1 629.6L759.4 628.7L766.6 627.7L773.8 626.8L781 625.8L788.2 624.9L795.5 624.1L802.7 623.2L810 622.3L817.2 621.5L824.5 620.7L831.8 619.9L839 619.2L846.3 618.4L853.6 617.7L860.9 617L868.2 616.3L875.5 615.6L882.8 615L890.1 614.4L897.4 613.8L904.7 613.2L912.1 612.6L919.4 612L926.7 611.5L934 611L941.4 610.5L948.7 610L956.1 609.6L963.4 609.2L970.8 608.8L978.1 608.4L985.5 608L992.8 607.6L1000.2 607.3L1007.5 607L1014.9 606.7L1022.3 606.4L1029.6 606.2L1037 605.9L1044.4 605.7L1051.8 605.5L1059.1 605.4L1066.5 605.2L1073.9 605.1L1081.3 605L1088.6 604.9L1096 604.8L1103.4 604.7L1110.8 604.7L1118.2 604.7L1125.5 604.7L1132.9 604.7L1140.3 604.8L1147.7 604.8L1155.1 604.9L1162.4 605L1169.8 605.1L1177.2 605.3L1184.6 605.5L1191.9 605.6L1199.3 605.8L1206.7 606.1L1214 606.3L1221.4 606.6L1228.8 606.8L1236.1 607.2L1243.5 607.5L1250.9 607.8L1258.2 608.2L1265.6 608.6L1272.9 609L1280.3 609.4L1287.6 609.8L1295 610.3L1302.3 610.8L1309.6 611.3L1317 611.8L1324.3 612.3L1331.6 612.9L1338.9 613.5L1346.2 614.1L1353.6 614.7L1360.9 615.3L1368.2 616L1375.5 616.6L1382.7 617.3L1390 618.1L1397.3 618.8L1404.6 619.6L1411.9 620.3L1419.1 621.1L1426.4 621.9L1433.6 622.8L1440.9 623.6L1448.1 624.5L1455.4 625.4L1462.6 626.3L1469.8 627.2L1477 628.2L1484.3 629.1L1491.5 630.1L1498.7 631.1L1505.8 632.2L1513 633.2L1520.2 634.3L1527.4 635.4L1534.5 636.5L1541.7 637.6L1548.8 638.7L1555.9 639.9L1563.1 641.1L1570.2 642.3L1577.3 643.5L1584.4 644.7L1591.5 646L1598.6 647.3L1605.6 648.6L1612.7 649.9L1619.8 651.2L1626.8 652.6L1633.8 653.9L1640.9 655.3L1647.9 656.7L1654.9 658.2L1661.9 659.6L1668.9 661.1L1675.8 662.6L1682.8 664.1L1689.8 665.6L1696.7 667.1L1703.6 668.7L1710.6 670.3L1717.5 671.9L1724.4 673.5L1731.2 675.1L1738.1 676.8L1745 678.4L1751.8 680.1L1758.7 681.8L1765.5 683.6L1772.3 685.3L1779.1 687.1L1785.9 688.9L1792.7 690.7L1799.4 692.5L1806.2 694.3L1812.9 696.2L1819.7 698L1826.4 699.9L1833.1 701.8L1839.7 703.8L1846.4 705.7L1853.1 707.7L1859.7 709.6L1866.3 711.6L1873 713.7L1879.6 715.7L1886.1 717.7L1892.7 719.8L1899.3 721.9L1905.8 724L1912.3 726.1L1918.8 728.3L1925.3 730.4L1931.8 732.6L1938.3 734.8M-17.7 913.1L-12.7 910L-7.7 907L-2.7 904L2.3 900.9L7.3 897.9L12.4 895L17.5 892L22.6 889L27.7 886.1L32.9 883.2L38.1 880.2L43.3 877.3L48.5 874.5L53.7 871.6L59 868.7L64.2 865.9L69.5 863.1L74.9 860.2L80.2 857.4L85.5 854.6L90.9 851.9L96.3 849.1L101.7 846.4L107.2 843.6L112.6 840.9L118.1 838.2L123.6 835.5L129.1 832.9L134.6 830.2L140.2 827.6L145.7 824.9L151.3 822.3L156.9 819.7L162.5 817.1L168.2 814.6L173.8 812L179.5 809.5L185.2 807L190.9 804.5L196.7 802L202.4 799.5L208.2 797L214 794.6L219.8 792.2L225.6 789.8L231.4 787.4L237.3 785L243.1 782.6L249 780.3L254.9 777.9L260.8 775.6L266.8 773.3L272.7 771L278.7 768.8L284.7 766.5L290.7 764.3L296.7 762.1L302.7 759.8L308.8 757.7L314.8 755.5L320.9 753.3L327 751.2L333.1 749.1L339.2 747L345.4 744.9L351.5 742.8L357.7 740.7L363.9 738.7L370 736.7L376.3 734.7L382.5 732.7L388.7 730.7L395 728.7L401.2 726.8L407.5 724.9L413.8 723L420.1 721.1L426.4 719.2L432.8 717.4L439.1 715.5L445.5 713.7L451.8 711.9L458.2 710.1L464.6 708.3L471 706.6L477.5 704.8L483.9 703.1L490.3 701.4L496.8 699.7L503.3 698.1L509.7 696.4L516.2 694.8L522.7 693.2L529.3 691.6L535.8 690L542.3 688.4L548.9 686.9L555.4 685.4L562 683.9L568.6 682.4L575.2 680.9L581.8 679.4L588.4 678L595 676.6L601.7 675.2L608.3 673.8L615 672.4L621.6 671.1L628.3 669.7L635 668.4L641.7 667.1L648.4 665.9L655.1 664.6L661.8 663.4L668.5 662.1L675.3 660.9L682 659.7L688.8 658.6L695.5 657.4L702.3 656.3L709.1 655.2L715.8 654.1L722.6 653L729.4 651.9L736.2 650.9L743.1 649.9L749.9 648.9L756.7 647.9L763.5 646.9L770.4 646L777.2 645L784.1 644.1L790.9 643.2L797.8 642.4L804.7 641.5L811.6 640.7L818.5 639.9L825.3 639.1L832.2 638.3L839.1 637.5L846.1 636.8L853 636L859.9 635.3L866.8 634.6L873.7 634L880.7 633.3L887.6 632.7L894.6 632.1L901.5 631.5L908.5 630.9L915.4 630.3L922.4 629.8L929.3 629.3L936.3 628.8L943.3 628.3L950.2 627.8L957.2 627.4L964.2 626.9L971.2 626.5L978.2 626.1L985.1 625.8L992.1 625.4L999.1 625.1L1006.1 624.8L1013.1 624.5L1020.1 624.2L1027.1 623.9L1034.1 623.7L1041.1 623.5L1048.1 623.3L1055.1 623.1L1062.1 622.9L1069.2 622.8L1076.2 622.6L1083.2 622.5L1090.2 622.4L1097.2 622.4L1104.2 622.3L1111.2 622.3L1118.2 622.3L1125.3 622.3L1132.3 622.3L1139.3 622.3L1146.3 622.4L1153.3 622.5L1160.3 622.6L1167.3 622.7L1174.3 622.8L1181.4 623L1188.4 623.2L1195.4 623.4L1202.4 623.6L1209.4 623.8L1216.4 624.1L1223.4 624.3L1230.4 624.6L1237.4 624.9L1244.4 625.2L1251.4 625.6L1258.3 625.9L1265.3 626.3L1272.3 626.7L1279.3 627.1L1286.3 627.6L1293.3 628L1300.2 628.5L1307.2 629L1314.2 629.5L1321.1 630.1L1328.1 630.6L1335 631.2L1342 631.8L1348.9 632.4L1355.9 633L1362.8 633.6L1369.7 634.3L1376.6 635L1383.6 635.7L1390.5 636.4L1397.4 637.1L1404.3 637.9L1411.2 638.7L1418.1 639.4L1425 640.3L1431.9 641.1L1438.7 641.9L1445.6 642.8L1452.5 643.7L1459.3 644.6L1466.2 645.5L1473 646.5L1479.9 647.4L1486.7 648.4L1493.5 649.4L1500.4 650.4L1507.2 651.4L1514 652.5L1520.8 653.5L1527.6 654.6L1534.3 655.7L1541.1 656.9L1547.9 658L1554.6 659.2L1561.4 660.3L1568.1 661.5L1574.8 662.7L1581.6 664L1588.3 665.2L1595 666.5L1601.7 667.8L1608.4 669.1L1615 670.4L1621.7 671.7L1628.4 673.1L1635 674.5L1641.7 675.9L1648.3 677.3L1654.9 678.7L1661.5 680.2L1668.1 681.6L1674.7 683.1L1681.3 684.6L1687.8 686.1L1694.4 687.7L1700.9 689.2L1707.5 690.8L1714 692.4L1720.5 694L1727 695.6L1733.5 697.2L1740 698.9L1746.4 700.6L1752.9 702.3L1759.3 704L1765.8 705.7L1772.2 707.4L1778.6 709.2L1785 711L1791.3 712.8L1797.7 714.6L1804.1 716.4L1810.4 718.3L1816.7 720.1L1823 722L1829.3 723.9L1835.6 725.8L1841.9 727.8L1848.2 729.7L1854.4 731.7L1860.6 733.7L1866.8 735.7L1873.1 737.7L1879.2 739.7L1885.4 741.8L1891.6 743.8L1897.7 745.9L1903.8 748L1910 750.1L1916.1 752.3L1922.1 754.4L1928.2 756.6L1934.3 758.8M-16.8 956.4L-12.3 953.4L-7.9 950.3L-3.4 947.3L1.1 944.3L5.6 941.3L10.1 938.3L14.7 935.3L19.2 932.3L23.8 929.4L28.5 926.4L33.1 923.5L37.8 920.6L42.4 917.7L47.1 914.8L51.8 911.9L56.6 909.1L61.4 906.2L66.1 903.4L70.9 900.5L75.8 897.7L80.6 894.9L85.5 892.1L90.3 889.4L95.2 886.6L100.2 883.9L105.1 881.1L110.1 878.4L115 875.7L120 873L125 870.3L130.1 867.7L135.1 865L140.2 862.4L145.3 859.7L150.4 857.1L155.5 854.5L160.7 851.9L165.9 849.4L171 846.8L176.2 844.3L181.5 841.7L186.7 839.2L191.9 836.7L197.2 834.2L202.5 831.8L207.8 829.3L213.1 826.8L218.5 824.4L223.8 822L229.2 819.6L234.6 817.2L240 814.8L245.5 812.5L250.9 810.1L256.4 807.8L261.8 805.5L267.3 803.2L272.8 800.9L278.4 798.6L283.9 796.4L289.5 794.1L295 791.9L300.6 789.7L306.2 787.5L311.9 785.3L317.5 783.2L323.1 781L328.8 778.9L334.5 776.8L340.2 774.7L345.9 772.6L351.6 770.5L357.4 768.4L363.1 766.4L368.9 764.4L374.7 762.4L380.5 760.4L386.3 758.4L392.1 756.4L398 754.5L403.8 752.5L409.7 750.6L415.6 748.7L421.5 746.8L427.4 745L433.3 743.1L439.2 741.3L445.2 739.5L451.1 737.6L457.1 735.9L463.1 734.1L469.1 732.3L475.1 730.6L481.1 728.9L487.2 727.1L493.2 725.5L499.3 723.8L505.3 722.1L511.4 720.5L517.5 718.8L523.6 717.2L529.7 715.6L535.9 714.1L542 712.5L548.1 711L554.3 709.4L560.5 707.9L566.7 706.4L572.9 704.9L579.1 703.5L585.3 702L591.5 700.6L597.7 699.2L604 697.8L610.2 696.4L616.5 695L622.8 693.7L629.1 692.4L635.3 691.1L641.6 689.8L648 688.5L654.3 687.2L660.6 686L666.9 684.8L673.3 683.6L679.6 682.4L686 681.2L692.4 680L698.8 678.9L705.1 677.8L711.5 676.7L717.9 675.6L724.4 674.5L730.8 673.4L737.2 672.4L743.6 671.4L750.1 670.4L756.5 669.4L763 668.4L769.4 667.5L775.9 666.5L782.4 665.6L788.9 664.7L795.3 663.8L801.8 663L808.3 662.1L814.8 661.3L821.4 660.5L827.9 659.7L834.4 658.9L840.9 658.2L847.5 657.4L854 656.7L860.5 656L867.1 655.3L873.6 654.6L880.2 654L886.8 653.3L893.3 652.7L899.9 652.1L906.5 651.5L913 651L919.6 650.4L926.2 649.9L932.8 649.4L939.4 648.9L946 648.4L952.6 648L959.2 647.5L965.8 647.1L972.4 646.7L979 646.3L985.7 645.9L992.3 645.6L998.9 645.2L1005.5 644.9L1012.1 644.6L1018.8 644.3L1025.4 644.1L1032 643.8L1038.7 643.6L1045.3 643.4L1051.9 643.2L1058.6 643L1065.2 642.9L1071.8 642.7L1078.5 642.6L1085.1 642.5L1091.8 642.4L1098.4 642.4L1105.1 642.3L1111.7 642.3L1118.3 642.3L1125 642.3L1131.6 642.3L1138.3 642.3L1144.9 642.4L1151.6 642.5L1158.2 642.6L1164.8 642.7L1171.5 642.8L1178.1 643L1184.8 643.1L1191.4 643.3L1198 643.5L1204.7 643.7L1211.3 644L1217.9 644.2L1224.5 644.5L1231.2 644.8L1237.8 645.1L1244.4 645.4L1251 645.7L1257.7 646.1L1264.3 646.5L1270.9 646.9L1277.5 647.3L1284.1 647.7L1290.7 648.2L1297.3 648.6L1303.9 649.1L1310.5 649.6L1317.1 650.2L1323.7 650.7L1330.2 651.3L1336.8 651.8L1343.4 652.4L1350 653L1356.5 653.7L1363.1 654.3L1369.6 655L1376.2 655.6L1382.7 656.3L1389.3 657.1L1395.8 657.8L1402.3 658.5L1408.9 659.3L1415.4 660.1L1421.9 660.9L1428.4 661.7L1434.9 662.6L1441.4 663.4L1447.9 664.3L1454.4 665.2L1460.9 666.1L1467.3 667L1473.8 667.9L1480.3 668.9L1486.7 669.9L1493.1 670.9L1499.6 671.9L1506 672.9L1512.4 674L1518.9 675L1525.3 676.1L1531.7 677.2L1538 678.3L1544.4 679.5L1550.8 680.6L1557.2 681.8L1563.5 683L1569.9 684.2L1576.2 685.4L1582.6 686.6L1588.9 687.9L1595.2 689.1L1601.5 690.4L1607.8 691.7L1614.1 693L1620.4 694.4L1626.6 695.7L1632.9 697.1L1639.1 698.5L1645.4 699.9L1651.6 701.3L1657.8 702.7L1664 704.2L1670.2 705.7L1676.4 707.2L1682.6 708.7L1688.8 710.2L1694.9 711.7L1701.1 713.3L1707.2 714.8L1713.3 716.4L1719.4 718L1725.5 719.7L1731.6 721.3L1737.7 722.9L1743.8 724.6L1749.8 726.3L1755.9 728L1761.9 729.7L1767.9 731.4L1773.9 733.2L1779.9 735L1785.9 736.7L1791.9 738.5L1797.8 740.4L1803.7 742.2L1809.7 744L1815.6 745.9L1821.5 747.8L1827.4 749.7L1833.3 751.6L1839.1 753.5L1845 755.4L1850.8 757.4L1856.6 759.4L1862.4 761.4L1868.2 763.4L1874 765.4L1879.8 767.4L1885.5 769.5L1891.2 771.5L1897 773.6L1902.7 775.7L1908.3 777.8L1914 780L1919.7 782.1L1925.3 784.2L1931 786.4L1936.6 788.6M-16.5 1008.6L-12.7 1005.5L-8.8 1002.5L-5 999.5L-1.1 996.5L2.9 993.4L6.8 990.4L10.8 987.5L14.8 984.5L18.8 981.5L22.8 978.6L26.9 975.6L30.9 972.7L35 969.8L39.1 966.9L43.3 964L47.4 961.1L51.6 958.2L55.8 955.3L60 952.5L64.3 949.6L68.5 946.8L72.8 944L77.1 941.2L81.4 938.4L85.7 935.6L90.1 932.8L94.5 930L98.9 927.3L103.3 924.5L107.7 921.8L112.2 919.1L116.7 916.4L121.1 913.7L125.7 911L130.2 908.4L134.7 905.7L139.3 903.1L143.9 900.4L148.5 897.8L153.1 895.2L157.8 892.6L162.4 890L167.1 887.5L171.8 884.9L176.5 882.4L181.2 879.8L186 877.3L190.8 874.8L195.5 872.3L200.4 869.9L205.2 867.4L210 864.9L214.9 862.5L219.7 860.1L224.6 857.7L229.5 855.3L234.5 852.9L239.4 850.5L244.4 848.1L249.3 845.8L254.3 843.5L259.3 841.1L264.4 838.8L269.4 836.5L274.5 834.3L279.5 832L284.6 829.7L289.7 827.5L294.9 825.3L300 823.1L305.1 820.9L310.3 818.7L315.5 816.5L320.7 814.4L325.9 812.2L331.1 810.1L336.4 808L341.6 805.9L346.9 803.8L352.2 801.7L357.5 799.7L362.8 797.6L368.2 795.6L373.5 793.6L378.9 791.6L384.2 789.6L389.6 787.6L395 785.7L400.4 783.7L405.9 781.8L411.3 779.9L416.8 778L422.2 776.1L427.7 774.2L433.2 772.4L438.7 770.5L444.3 768.7L449.8 766.9L455.3 765.1L460.9 763.3L466.5 761.6L472.1 759.8L477.7 758.1L483.3 756.4L488.9 754.7L494.5 753L500.2 751.3L505.8 749.6L511.5 748L517.2 746.4L522.9 744.8L528.6 743.2L534.3 741.6L540 740L545.8 738.5L551.5 736.9L557.3 735.4L563.1 733.9L568.9 732.4L574.6 730.9L580.4 729.5L586.3 728L592.1 726.6L597.9 725.2L603.8 723.8L609.6 722.4L615.5 721.1L621.3 719.7L627.2 718.4L633.1 717.1L639 715.8L644.9 714.5L650.9 713.2L656.8 711.9L662.7 710.7L668.7 709.5L674.6 708.3L680.6 707.1L686.6 705.9L692.5 704.8L698.5 703.6L704.5 702.5L710.5 701.4L716.5 700.3L722.5 699.2L728.6 698.2L734.6 697.1L740.7 696.1L746.7 695.1L752.8 694.1L758.8 693.1L764.9 692.1L771 691.2L777 690.3L783.1 689.3L789.2 688.4L795.3 687.6L801.4 686.7L807.6 685.9L813.7 685L819.8 684.2L825.9 683.4L832.1 682.6L838.2 681.9L844.4 681.1L850.5 680.4L856.7 679.7L862.8 679L869 678.3L875.2 677.6L881.4 677L887.5 676.3L893.7 675.7L899.9 675.1L906.1 674.5L912.3 674L918.5 673.4L924.7 672.9L930.9 672.4L937.2 671.9L943.4 671.4L949.6 670.9L955.8 670.5L962.1 670L968.3 669.6L974.5 669.2L980.8 668.8L987 668.5L993.2 668.1L999.5 667.8L1005.7 667.5L1012 667.2L1018.2 666.9L1024.5 666.6L1030.7 666.4L1037 666.1L1043.3 665.9L1049.5 665.7L1055.8 665.6L1062 665.4L1068.3 665.2L1074.6 665.1L1080.8 665L1087.1 664.9L1093.4 664.8L1099.6 664.8L1105.9 664.7L1112.2 664.7L1118.4 664.7L1124.7 664.7L1131 664.7L1137.2 664.7L1143.5 664.8L1149.8 664.9L1156 664.9L1162.3 665.1L1168.6 665.2L1174.8 665.3L1181.1 665.5L1187.4 665.6L1193.6 665.8L1199.9 666L1206.1 666.3L1212.4 666.5L1218.6 666.8L1224.9 667L1231.1 667.3L1237.4 667.6L1243.6 668L1249.9 668.3L1256.1 668.7L1262.4 669L1268.6 669.4L1274.8 669.8L1281.1 670.2L1287.3 670.7L1293.5 671.1L1299.7 671.6L1305.9 672.1L1312.2 672.6L1318.4 673.1L1324.6 673.7L1330.8 674.2L1337 674.8L1343.2 675.4L1349.4 676L1355.5 676.6L1361.7 677.3L1367.9 677.9L1374.1 678.6L1380.2 679.3L1386.4 680L1392.6 680.7L1398.7 681.5L1404.9 682.2L1411 683L1417.1 683.8L1423.3 684.6L1429.4 685.4L1435.5 686.3L1441.6 687.1L1447.7 688L1453.8 688.9L1459.9 689.8L1466 690.7L1472.1 691.7L1478.1 692.6L1484.2 693.6L1490.3 694.6L1496.3 695.6L1502.4 696.6L1508.4 697.6L1514.4 698.7L1520.5 699.8L1526.5 700.8L1532.5 701.9L1538.5 703.1L1544.5 704.2L1550.5 705.3L1556.4 706.5L1562.4 707.7L1568.4 708.9L1574.3 710.1L1580.3 711.3L1586.2 712.6L1592.1 713.8L1598 715.1L1603.9 716.4L1609.8 717.7L1615.7 719L1621.6 720.4L1627.5 721.7L1633.3 723.1L1639.2 724.5L1645 725.9L1650.8 727.3L1656.6 728.7L1662.5 730.2L1668.3 731.7L1674 733.1L1679.8 734.6L1685.6 736.2L1691.3 737.7L1697.1 739.2L1702.8 740.8L1708.5 742.4L1714.3 744L1720 745.6L1725.6 747.2L1731.3 748.8L1737 750.5L1742.6 752.1L1748.3 753.8L1753.9 755.5L1759.5 757.2L1765.1 758.9L1770.7 760.7L1776.3 762.4L1781.9 764.2L1787.4 766L1793 767.8L1798.5 769.6L1804 771.5L1809.5 773.3L1815 775.2L1820.5 777L1826 778.9L1831.4 780.8L1836.8 782.8L1842.3 784.7L1847.7 786.6L1853.1 788.6L1858.5 790.6L1863.8 792.6L1869.2 794.6L1874.5 796.6L1879.8 798.6L1885.2 800.7L1890.4 802.7L1895.7 804.8L1901 806.9L1906.2 809L1911.5 811.1L1916.7 813.3L1921.9 815.4L1927.1 817.6L1932.3 819.8L1937.4 822M-18.7 1074.9L-15.5 1071.8L-12.3 1068.8L-9.1 1065.7L-5.9 1062.7L-2.6 1059.7L0.6 1056.7L3.9 1053.7L7.3 1050.7L10.6 1047.7L13.9 1044.7L17.3 1041.7L20.7 1038.8L24.1 1035.8L27.6 1032.9L31.1 1029.9L34.5 1027L38 1024.1L41.6 1021.2L45.1 1018.3L48.7 1015.4L52.3 1012.6L55.9 1009.7L59.5 1006.8L63.1 1004L66.8 1001.2L70.5 998.3L74.2 995.5L77.9 992.7L81.7 989.9L85.5 987.1L89.2 984.3L93 981.6L96.9 978.8L100.7 976.1L104.6 973.3L108.5 970.6L112.4 967.9L116.3 965.2L120.2 962.5L124.2 959.8L128.2 957.2L132.2 954.5L136.2 951.8L140.2 949.2L144.3 946.6L148.4 944L152.5 941.4L156.6 938.8L160.7 936.2L164.8 933.6L169 931L173.2 928.5L177.4 925.9L181.6 923.4L185.9 920.9L190.1 918.4L194.4 915.9L198.7 913.4L203 911L207.3 908.5L211.7 906L216 903.6L220.4 901.2L224.8 898.8L229.2 896.4L233.6 894L238.1 891.6L242.5 889.2L247 886.9L251.5 884.5L256 882.2L260.6 879.9L265.1 877.6L269.7 875.3L274.2 873L278.8 870.8L283.5 868.5L288.1 866.3L292.7 864L297.4 861.8L302.1 859.6L306.7 857.4L311.4 855.2L316.2 853.1L320.9 850.9L325.7 848.8L330.4 846.6L335.2 844.5L340 842.4L344.8 840.3L349.6 838.3L354.5 836.2L359.3 834.1L364.2 832.1L369.1 830.1L374 828.1L378.9 826.1L383.8 824.1L388.8 822.1L393.7 820.1L398.7 818.2L403.7 816.3L408.7 814.4L413.7 812.4L418.7 810.6L423.7 808.7L428.8 806.8L433.8 805L438.9 803.1L444 801.3L449.1 799.5L454.2 797.7L459.4 795.9L464.5 794.1L469.6 792.4L474.8 790.6L480 788.9L485.2 787.2L490.4 785.5L495.6 783.8L500.8 782.1L506.1 780.5L511.3 778.8L516.6 777.2L521.8 775.6L527.1 774L532.4 772.4L537.7 770.8L543 769.3L548.4 767.7L553.7 766.2L559 764.7L564.4 763.2L569.8 761.7L575.2 760.2L580.6 758.8L586 757.3L591.4 755.9L596.8 754.5L602.2 753.1L607.7 751.7L613.1 750.3L618.6 749L624 747.6L629.5 746.3L635 745L640.5 743.7L646 742.4L651.5 741.2L657.1 739.9L662.6 738.7L668.1 737.4L673.7 736.2L679.3 735.1L684.8 733.9L690.4 732.7L696 731.6L701.6 730.4L707.2 729.3L712.8 728.2L718.4 727.1L724 726.1L729.7 725L735.3 724L741 722.9L746.6 721.9L752.3 720.9L757.9 719.9L763.6 719L769.3 718L775 717.1L780.7 716.2L786.4 715.3L792.1 714.4L797.8 713.5L803.5 712.6L809.3 711.8L815 711L820.7 710.2L826.5 709.4L832.2 708.6L838 707.8L843.7 707.1L849.5 706.3L855.3 705.6L861.1 704.9L866.8 704.2L872.6 703.5L878.4 702.9L884.2 702.2L890 701.6L895.8 701L901.6 700.4L907.4 699.8L913.3 699.3L919.1 698.7L924.9 698.2L930.7 697.7L936.6 697.2L942.4 696.7L948.2 696.2L954.1 695.8L959.9 695.3L965.8 694.9L971.6 694.5L977.5 694.1L983.3 693.7L989.2 693.4L995.1 693L1000.9 692.7L1006.8 692.4L1012.7 692.1L1018.5 691.8L1024.4 691.5L1030.3 691.3L1036.1 691.1L1042 690.8L1047.9 690.6L1053.8 690.5L1059.7 690.3L1065.5 690.1L1071.4 690L1077.3 689.9L1083.2 689.8L1089.1 689.7L1095 689.6L1100.9 689.5L1106.8 689.5L1112.6 689.5L1118.5 689.5L1124.4 689.5L1130.3 689.5L1136.2 689.5L1142.1 689.6L1148 689.6L1153.9 689.7L1159.7 689.8L1165.6 689.9L1171.5 690.1L1177.4 690.2L1183.3 690.4L1189.2 690.6L1195 690.7L1200.9 691L1206.8 691.2L1212.7 691.4L1218.5 691.7L1224.4 692L1230.3 692.2L1236.2 692.5L1242 692.9L1247.9 693.2L1253.7 693.6L1259.6 693.9L1265.5 694.3L1271.3 694.7L1277.2 695.1L1283 695.5L1288.8 696L1294.7 696.5L1300.5 696.9L1306.4 697.4L1312.2 697.9L1318 698.5L1323.8 699L1329.7 699.6L1335.5 700.1L1341.3 700.7L1347.1 701.3L1352.9 701.9L1358.7 702.6L1364.5 703.2L1370.3 703.9L1376.1 704.6L1381.8 705.3L1387.6 706L1393.4 706.7L1399.1 707.4L1404.9 708.2L1410.6 709L1416.4 709.8L1422.1 710.6L1427.9 711.4L1433.6 712.2L1439.3 713.1L1445 713.9L1450.8 714.8L1456.5 715.7L1462.2 716.6L1467.9 717.6L1473.5 718.5L1479.2 719.5L1484.9 720.4L1490.6 721.4L1496.2 722.4L1501.9 723.4L1507.5 724.5L1513.1 725.5L1518.8 726.6L1524.4 727.7L1530 728.8L1535.6 729.9L1541.2 731L1546.8 732.1L1552.4 733.3L1558 734.5L1563.5 735.6L1569.1 736.8L1574.6 738.1L1580.2 739.3L1585.7 740.5L1591.2 741.8L1596.7 743.1L1602.2 744.4L1607.7 745.7L1613.2 747L1618.7 748.3L1624.2 749.7L1629.6 751L1635.1 752.4L1640.5 753.8L1645.9 755.2L1651.3 756.6L1656.7 758.1L1662.1 759.5L1667.5 761L1672.9 762.4L1678.3 763.9L1683.6 765.4L1689 767L1694.3 768.5L1699.6 770.1L1704.9 771.6L1710.2 773.2L1715.5 774.8L1720.8 776.4L1726.1 778L1731.3 779.7L1736.6 781.3L1741.8 783L1747 784.7L1752.2 786.4L1757.4 788.1L1762.6 789.8L1767.8 791.5L1772.9 793.3L1778.1 795L1783.2 796.8L1788.3 798.6L1793.4 800.4L1798.5 802.2L1803.6 804L1808.7 805.9L1813.7 807.7L1818.8 809.6L1823.8 811.5L1828.8 813.4L1833.8 815.3L1838.8 817.2L1843.8 819.2L1848.8 821.1L1853.7 823.1L1858.6 825.1L1863.6 827.1L1868.5 829.1L1873.4 831.1L1878.2 833.1L1883.1 835.2L1887.9 837.2L1892.8 839.3L1897.6 841.4L1902.4 843.5L1907.2 845.6L1912 847.7L1916.7 849.8L1921.5 852L1926.2 854.2L1930.9 856.3L1935.6 858.5M35.3 1097.2L38.2 1094.2L41 1091.3L43.9 1088.4L46.7 1085.6L49.6 1082.7L52.5 1079.8L55.5 1076.9L58.4 1074.1L61.4 1071.2L64.4 1068.4L67.4 1065.6L70.5 1062.7L73.5 1059.9L76.6 1057.1L79.7 1054.3L82.8 1051.5L86 1048.7L89.1 1045.9L92.3 1043.2L95.5 1040.4L98.7 1037.7L102 1034.9L105.2 1032.2L108.5 1029.5L111.8 1026.8L115.1 1024.1L118.5 1021.4L121.8 1018.7L125.2 1016L128.6 1013.3L132 1010.7L135.4 1008L138.9 1005.4L142.3 1002.7L145.8 1000.1L149.3 997.5L152.8 994.9L156.4 992.3L159.9 989.7L163.5 987.1L167.1 984.6L170.7 982L174.4 979.5L178 976.9L181.7 974.4L185.4 971.9L189.1 969.4L192.8 966.9L196.5 964.4L200.3 961.9L204.1 959.4L207.8 957L211.7 954.5L215.5 952.1L219.3 949.7L223.2 947.3L227.1 944.9L231 942.5L234.9 940.1L238.8 937.7L242.7 935.3L246.7 933L250.7 930.6L254.7 928.3L258.7 926L262.7 923.7L266.8 921.4L270.8 919.1L274.9 916.8L279 914.6L283.1 912.3L287.2 910.1L291.4 907.8L295.5 905.6L299.7 903.4L303.9 901.2L308.1 899L312.3 896.8L316.5 894.7L320.8 892.5L325.1 890.4L329.3 888.2L333.6 886.1L337.9 884L342.3 881.9L346.6 879.8L351 877.7L355.3 875.7L359.7 873.6L364.1 871.6L368.5 869.6L373 867.6L377.4 865.6L381.8 863.6L386.3 861.6L390.8 859.6L395.3 857.7L399.8 855.7L404.3 853.8L408.9 851.9L413.4 850L418 848.1L422.6 846.2L427.2 844.3L431.8 842.5L436.4 840.6L441 838.8L445.7 837L450.3 835.2L455 833.4L459.7 831.6L464.4 829.8L469.1 828.1L473.8 826.3L478.5 824.6L483.3 822.9L488 821.2L492.8 819.5L497.6 817.8L502.4 816.1L507.2 814.5L512 812.8L516.8 811.2L521.7 809.6L526.5 808L531.4 806.4L536.3 804.8L541.1 803.3L546 801.7L550.9 800.2L555.9 798.7L560.8 797.2L565.7 795.7L570.7 794.2L575.6 792.7L580.6 791.2L585.6 789.8L590.6 788.4L595.6 787L600.6 785.6L605.6 784.2L610.6 782.8L615.7 781.4L620.7 780.1L625.8 778.7L630.9 777.4L635.9 776.1L641 774.8L646.1 773.5L651.2 772.3L656.3 771L661.5 769.8L666.6 768.5L671.7 767.3L676.9 766.1L682.1 765L687.2 763.8L692.4 762.6L697.6 761.5L702.8 760.4L708 759.2L713.2 758.1L718.4 757.1L723.6 756L728.8 754.9L734.1 753.9L739.3 752.8L744.6 751.8L749.8 750.8L755.1 749.8L760.4 748.9L765.6 747.9L770.9 747L776.2 746L781.5 745.1L786.8 744.2L792.1 743.3L797.5 742.4L802.8 741.6L808.1 740.7L813.5 739.9L818.8 739.1L824.1 738.3L829.5 737.5L834.9 736.7L840.2 736L845.6 735.2L851 734.5L856.4 733.8L861.7 733.1L867.1 732.4L872.5 731.7L877.9 731.1L883.3 730.4L888.7 729.8L894.1 729.2L899.6 728.6L905 728L910.4 727.4L915.8 726.9L921.3 726.3L926.7 725.8L932.2 725.3L937.6 724.8L943.1 724.3L948.5 723.8L954 723.4L959.4 722.9L964.9 722.5L970.3 722.1L975.8 721.7L981.3 721.3L986.8 721L992.2 720.6L997.7 720.3L1003.2 720L1008.7 719.7L1014.2 719.4L1019.6 719.1L1025.1 718.8L1030.6 718.6L1036.1 718.3L1041.6 718.1L1047.1 717.9L1052.6 717.7L1058.1 717.6L1063.6 717.4L1069.1 717.3L1074.6 717.1L1080.1 717L1085.6 716.9L1091.1 716.8L1096.6 716.8L1102.1 716.7L1107.6 716.7L1113.1 716.6L1118.6 716.6L1124.1 716.6L1129.6 716.6L1135.1 716.7L1140.6 716.7L1146.1 716.8L1151.6 716.9L1157.2 717L1162.7 717.1L1168.2 717.2L1173.7 717.3L1179.2 717.5L1184.7 717.6L1190.2 717.8L1195.6 718L1201.1 718.2L1206.6 718.5L1212.1 718.7L1217.6 718.9L1223.1 719.2L1228.6 719.5L1234.1 719.8L1239.6 720.1L1245 720.4L1250.5 720.8L1256 721.1L1261.5 721.5L1266.9 721.9L1272.4 722.3L1277.8 722.7L1283.3 723.2L1288.8 723.6L1294.2 724.1L1299.7 724.5L1305.1 725L1310.6 725.5L1316 726.1L1321.4 726.6L1326.9 727.1L1332.3 727.7L1337.7 728.3L1343.1 728.9L1348.6 729.5L1354 730.1L1359.4 730.7L1364.8 731.4L1370.2 732.1L1375.6 732.7L1381 733.4L1386.3 734.1L1391.7 734.9L1397.1 735.6L1402.5 736.4L1407.8 737.1L1413.2 737.9L1418.5 738.7L1423.9 739.5L1429.2 740.3L1434.5 741.2L1439.9 742L1445.2 742.9L1450.5 743.8L1455.8 744.7L1461.1 745.6L1466.4 746.5L1471.7 747.4L1477 748.4L1482.3 749.4L1487.5 750.3L1492.8 751.3L1498.1 752.3L1503.3 753.4L1508.5 754.4L1513.8 755.5L1519 756.5L1524.2 757.6L1529.4 758.7L1534.6 759.8L1539.8 760.9L1545 762.1L1550.2 763.2L1555.4 764.4L1560.5 765.5L1565.7 766.7L1570.8 767.9L1576 769.2L1581.1 770.4L1586.2 771.6L1591.3 772.9L1596.4 774.2L1601.5 775.5L1606.6 776.8L1611.7 778.1L1616.7 779.4L1621.8 780.7L1626.8 782.1L1631.9 783.5L1636.9 784.9L1641.9 786.3L1646.9 787.7L1651.9 789.1L1656.9 790.5L1661.9 792L1666.8 793.4L1671.8 794.9L1676.7 796.4L1681.7 797.9L1686.6 799.4L1691.5 800.9L1696.4 802.5L1701.3 804L1706.2 805.6L1711 807.2L1715.9 808.8L1720.7 810.4L1725.6 812L1730.4 813.7L1735.2 815.3L1740 817L1744.8 818.6L1749.6 820.3L1754.3 822L1759.1 823.7L1763.8 825.5L1768.6 827.2L1773.3 828.9L1778 830.7L1782.7 832.5L1787.3 834.3L1792 836.1L1796.7 837.9L1801.3 839.7L1805.9 841.5L1810.5 843.4L1815.1 845.3L1819.7 847.1L1824.3 849L1828.8 850.9L1833.4 852.8L1837.9 854.8L1842.4 856.7L1846.9 858.6L1851.4 860.6L1855.9 862.6L1860.4 864.6L1864.8 866.6L1869.3 868.6L1873.7 870.6L1878.1 872.6L1882.5 874.7L1886.9 876.7L1891.2 878.8L1895.6 880.9L1899.9 883L1904.2 885.1L1908.5 887.2L1912.8 889.3L1917.1 891.4L1921.3 893.6L1925.6 895.7L1929.8 897.9L1934 900.1L1938.2 902.3M111.7 1099.9L114.3 1097.2L116.9 1094.5L119.6 1091.8L122.2 1089.1L124.9 1086.4L127.6 1083.8L130.4 1081.1L133.1 1078.4L135.9 1075.8L138.7 1073.2L141.5 1070.5L144.3 1067.9L147.2 1065.3L150 1062.7L152.9 1060.1L155.8 1057.5L158.7 1054.9L161.7 1052.3L164.6 1049.7L167.6 1047.2L170.6 1044.6L173.6 1042.1L176.6 1039.5L179.7 1037L182.7 1034.5L185.8 1031.9L188.9 1029.4L192 1026.9L195.2 1024.4L198.3 1022L201.5 1019.5L204.7 1017L207.9 1014.6L211.1 1012.1L214.4 1009.7L217.6 1007.3L220.9 1004.8L224.2 1002.4L227.5 1000L230.8 997.6L234.2 995.2L237.5 992.9L240.9 990.5L244.3 988.1L247.7 985.8L251.1 983.4L254.6 981.1L258 978.8L261.5 976.5L265 974.2L268.5 971.9L272 969.6L275.6 967.3L279.1 965.1L282.7 962.8L286.3 960.6L289.9 958.3L293.5 956.1L297.1 953.9L300.8 951.7L304.5 949.5L308.1 947.3L311.8 945.1L315.6 942.9L319.3 940.8L323 938.6L326.8 936.5L330.6 934.4L334.4 932.2L338.2 930.1L342 928L345.8 926L349.7 923.9L353.5 921.8L357.4 919.8L361.3 917.7L365.2 915.7L369.1 913.7L373.1 911.6L377 909.6L381 907.7L385 905.7L389 903.7L393 901.7L397 899.8L401 897.9L405.1 895.9L409.1 894L413.2 892.1L417.3 890.2L421.4 888.3L425.5 886.5L429.6 884.6L433.8 882.7L437.9 880.9L442.1 879.1L446.3 877.3L450.5 875.5L454.7 873.7L458.9 871.9L463.1 870.1L467.4 868.3L471.6 866.6L475.9 864.9L480.2 863.1L484.5 861.4L488.8 859.7L493.1 858L497.4 856.3L501.8 854.7L506.1 853L510.5 851.4L514.9 849.7L519.3 848.1L523.7 846.5L528.1 844.9L532.5 843.3L536.9 841.8L541.4 840.2L545.8 838.6L550.3 837.1L554.8 835.6L559.3 834.1L563.8 832.6L568.3 831.1L572.8 829.6L577.3 828.1L581.9 826.7L586.4 825.2L591 823.8L595.6 822.4L600.1 821L604.7 819.6L609.3 818.2L613.9 816.9L618.6 815.5L623.2 814.2L627.8 812.8L632.5 811.5L637.1 810.2L641.8 808.9L646.5 807.6L651.2 806.4L655.9 805.1L660.6 803.9L665.3 802.7L670 801.4L674.7 800.2L679.5 799L684.2 797.9L689 796.7L693.7 795.5L698.5 794.4L703.3 793.3L708.1 792.2L712.9 791.1L717.7 790L722.5 788.9L727.3 787.8L732.1 786.8L737 785.8L741.8 784.7L746.6 783.7L751.5 782.7L756.4 781.7L761.2 780.8L766.1 779.8L771 778.9L775.9 777.9L780.8 777L785.7 776.1L790.6 775.2L795.5 774.3L800.4 773.5L805.3 772.6L810.3 771.8L815.2 771L820.2 770.1L825.1 769.3L830.1 768.6L835 767.8L840 767L845 766.3L849.9 765.5L854.9 764.8L859.9 764.1L864.9 763.4L869.9 762.8L874.9 762.1L879.9 761.4L884.9 760.8L889.9 760.2L895 759.6L900 759L905 758.4L910 757.8L915.1 757.2L920.1 756.7L925.2 756.2L930.2 755.7L935.3 755.2L940.3 754.7L945.4 754.2L950.4 753.7L955.5 753.3L960.6 752.8L965.6 752.4L970.7 752L975.8 751.6L980.9 751.2L986 750.9L991 750.5L996.1 750.2L1001.2 749.8L1006.3 749.5L1011.4 749.2L1016.5 749L1021.6 748.7L1026.7 748.4L1031.8 748.2L1036.9 747.9L1042 747.7L1047.1 747.5L1052.2 747.3L1057.3 747.2L1062.5 747L1067.6 746.9L1072.7 746.7L1077.8 746.6L1082.9 746.5L1088 746.4L1093.1 746.3L1098.3 746.3L1103.4 746.2L1108.5 746.2L1113.6 746.1L1118.7 746.1L1123.8 746.1L1129 746.2L1134.1 746.2L1139.2 746.2L1144.3 746.3L1149.4 746.4L1154.5 746.4L1159.7 746.5L1164.8 746.7L1169.9 746.8L1175 746.9L1180.1 747.1L1185.2 747.3L1190.3 747.4L1195.4 747.6L1200.5 747.8L1205.6 748.1L1210.7 748.3L1215.8 748.6L1220.9 748.8L1226 749.1L1231.1 749.4L1236.2 749.7L1241.3 750L1246.4 750.3L1251.5 750.7L1256.6 751L1261.7 751.4L1266.7 751.8L1271.8 752.2L1276.9 752.6L1282 753.1L1287 753.5L1292.1 754L1297.2 754.4L1302.2 754.9L1307.3 755.4L1312.3 755.9L1317.4 756.4L1322.4 757L1327.4 757.5L1332.5 758.1L1337.5 758.7L1342.5 759.3L1347.6 759.9L1352.6 760.5L1357.6 761.1L1362.6 761.8L1367.6 762.4L1372.6 763.1L1377.6 763.8L1382.6 764.5L1387.6 765.2L1392.6 765.9L1397.5 766.7L1402.5 767.4L1407.5 768.2L1412.4 769L1417.4 769.7L1422.3 770.6L1427.3 771.4L1432.2 772.2L1437.1 773L1442 773.9L1447 774.8L1451.9 775.7L1456.8 776.6L1461.7 777.5L1466.6 778.4L1471.5 779.3L1476.3 780.3L1481.2 781.3L1486.1 782.2L1490.9 783.2L1495.8 784.2L1500.6 785.2L1505.5 786.3L1510.3 787.3L1515.1 788.4L1519.9 789.4L1524.7 790.5L1529.5 791.6L1534.3 792.7L1539.1 793.8L1543.9 795L1548.6 796.1L1553.4 797.3L1558.2 798.5L1562.9 799.6L1567.6 800.8L1572.4 802L1577.1 803.3L1581.8 804.5L1586.5 805.7L1591.2 807L1595.9 808.3L1600.5 809.6L1605.2 810.9L1609.8 812.2L1614.5 813.5L1619.1 814.8L1623.8 816.2L1628.4 817.5L1633 818.9L1637.6 820.3L1642.2 821.7L1646.7 823.1L1651.3 824.5L1655.9 826L1660.4 827.4L1664.9 828.9L1669.5 830.3L1674 831.8L1678.5 833.3L1683 834.8L1687.5 836.3L1691.9 837.9L1696.4 839.4L1700.8 841L1705.3 842.5L1709.7 844.1L1714.1 845.7L1718.5 847.3L1722.9 848.9L1727.3 850.6L1731.7 852.2L1736 853.8L1740.4 855.5L1744.7 857.2L1749 858.9L1753.4 860.6L1757.7 862.3L1761.9 864L1766.2 865.7L1770.5 867.5L1774.7 869.2L1779 871L1783.2 872.8L1787.4 874.6L1791.6 876.4L1795.8 878.2L1800 880L1804.1 881.8L1808.3 883.7L1812.4 885.5L1816.5 887.4L1820.7 889.3L1824.8 891.2L1828.8 893.1L1832.9 895L1837 896.9L1841 898.8L1845 900.8L1849 902.7L1853 904.7L1857 906.7L1861 908.6L1865 910.6L1868.9 912.7L1872.8 914.7L1876.7 916.7L1880.6 918.7L1884.5 920.8L1888.4 922.8L1892.3 924.9L1896.1 927L1899.9 929.1L1903.7 931.2L1907.5 933.3L1911.3 935.4L1915.1 937.6L1918.8 939.7L1922.6 941.9L1926.3 944L1930 946.2L1933.7 948.4L1937.4 950.6M193.5 1099.7L196 1097.2L198.4 1094.8L200.9 1092.3L203.4 1089.8L206 1087.4L208.5 1084.9L211.1 1082.5L213.6 1080L216.2 1077.6L218.8 1075.2L221.5 1072.7L224.1 1070.3L226.8 1067.9L229.4 1065.5L232.1 1063.1L234.9 1060.8L237.6 1058.4L240.3 1056L243.1 1053.7L245.9 1051.3L248.7 1049L251.5 1046.6L254.3 1044.3L257.2 1042L260 1039.6L262.9 1037.3L265.8 1035L268.7 1032.7L271.6 1030.5L274.6 1028.2L277.5 1025.9L280.5 1023.7L283.5 1021.4L286.5 1019.2L289.5 1016.9L292.6 1014.7L295.6 1012.5L298.7 1010.3L301.8 1008.1L304.9 1005.9L308 1003.7L311.2 1001.5L314.3 999.3L317.5 997.2L320.6 995L323.8 992.9L327.1 990.7L330.3 988.6L333.5 986.5L336.8 984.4L340 982.3L343.3 980.2L346.6 978.1L349.9 976L353.3 974L356.6 971.9L360 969.9L363.4 967.8L366.7 965.8L370.1 963.8L373.6 961.8L377 959.8L380.4 957.8L383.9 955.8L387.4 953.8L390.9 951.8L394.4 949.9L397.9 947.9L401.4 946L404.9 944.1L408.5 942.2L412.1 940.2L415.6 938.4L419.2 936.5L422.8 934.6L426.5 932.7L430.1 930.9L433.8 929L437.4 927.2L441.1 925.3L444.8 923.5L448.5 921.7L452.2 919.9L455.9 918.1L459.7 916.3L463.4 914.6L467.2 912.8L471 911.1L474.7 909.3L478.5 907.6L482.4 905.9L486.2 904.2L490 902.5L493.9 900.8L497.7 899.1L501.6 897.4L505.5 895.8L509.4 894.1L513.3 892.5L517.2 890.9L521.2 889.2L525.1 887.6L529.1 886L533 884.5L537 882.9L541 881.3L545 879.8L549 878.2L553 876.7L557 875.2L561.1 873.7L565.1 872.2L569.2 870.7L573.3 869.2L577.4 867.8L581.5 866.3L585.6 864.9L589.7 863.4L593.8 862L597.9 860.6L602.1 859.2L606.2 857.8L610.4 856.4L614.6 855.1L618.8 853.7L623 852.4L627.2 851.1L631.4 849.7L635.6 848.4L639.8 847.1L644.1 845.8L648.3 844.6L652.6 843.3L656.9 842.1L661.1 840.8L665.4 839.6L669.7 838.4L674 837.2L678.3 836L682.6 834.8L687 833.6L691.3 832.5L695.7 831.3L700 830.2L704.4 829.1L708.7 827.9L713.1 826.9L717.5 825.8L721.9 824.7L726.3 823.6L730.7 822.6L735.1 821.5L739.5 820.5L744 819.5L748.4 818.5L752.8 817.5L757.3 816.5L761.7 815.5L766.2 814.6L770.7 813.6L775.2 812.7L779.6 811.8L784.1 810.9L788.6 810L793.1 809.1L797.6 808.2L802.2 807.4L806.7 806.5L811.2 805.7L815.7 804.8L820.3 804L824.8 803.2L829.4 802.4L833.9 801.7L838.5 800.9L843.1 800.2L847.6 799.4L852.2 798.7L856.8 798L861.4 797.3L866 796.6L870.6 795.9L875.2 795.2L879.8 794.6L884.4 794L889 793.3L893.6 792.7L898.2 792.1L902.9 791.5L907.5 790.9L912.1 790.4L916.8 789.8L921.4 789.3L926.1 788.8L930.7 788.2L935.4 787.7L940 787.3L944.7 786.8L949.4 786.3L954 785.9L958.7 785.4L963.4 785L968.1 784.6L972.7 784.2L977.4 783.8L982.1 783.4L986.8 783L991.5 782.7L996.2 782.4L1000.9 782L1005.6 781.7L1010.3 781.4L1015 781.1L1019.7 780.8L1024.4 780.6L1029.1 780.3L1033.8 780.1L1038.5 779.9L1043.3 779.7L1048 779.5L1052.7 779.3L1057.4 779.1L1062.1 778.9L1066.8 778.8L1071.6 778.6L1076.3 778.5L1081 778.4L1085.7 778.3L1090.5 778.2L1095.2 778.2L1099.9 778.1L1104.6 778L1109.4 778L1114.1 778L1118.8 778L1123.5 778L1128.3 778L1133 778L1137.7 778.1L1142.5 778.1L1147.2 778.2L1151.9 778.3L1156.6 778.4L1161.3 778.5L1166.1 778.6L1170.8 778.7L1175.5 778.9L1180.2 779L1185 779.2L1189.7 779.4L1194.4 779.6L1199.1 779.8L1203.8 780L1208.5 780.2L1213.2 780.5L1217.9 780.7L1222.7 781L1227.4 781.3L1232.1 781.6L1236.8 781.9L1241.5 782.2L1246.2 782.5L1250.8 782.9L1255.5 783.2L1260.2 783.6L1264.9 784L1269.6 784.4L1274.3 784.8L1279 785.2L1283.6 785.6L1288.3 786.1L1293 786.5L1297.6 787L1302.3 787.5L1306.9 788L1311.6 788.5L1316.3 789L1320.9 789.6L1325.5 790.1L1330.2 790.7L1334.8 791.2L1339.4 791.8L1344.1 792.4L1348.7 793L1353.3 793.6L1357.9 794.3L1362.5 794.9L1367.1 795.6L1371.7 796.3L1376.3 796.9L1380.9 797.6L1385.5 798.3L1390.1 799.1L1394.7 799.8L1399.2 800.5L1403.8 801.3L1408.4 802.1L1412.9 802.8L1417.5 803.6L1422 804.4L1426.5 805.3L1431.1 806.1L1435.6 806.9L1440.1 807.8L1444.6 808.7L1449.1 809.5L1453.6 810.4L1458.1 811.3L1462.6 812.2L1467.1 813.2L1471.6 814.1L1476 815.1L1480.5 816L1484.9 817L1489.4 818L1493.8 819L1498.3 820L1502.7 821L1507.1 822L1511.5 823.1L1515.9 824.2L1520.3 825.2L1524.7 826.3L1529.1 827.4L1533.5 828.5L1537.8 829.6L1542.2 830.8L1546.5 831.9L1550.9 833L1555.2 834.2L1559.5 835.4L1563.8 836.6L1568.1 837.8L1572.4 839L1576.7 840.2L1581 841.4L1585.3 842.7L1589.5 843.9L1593.8 845.2L1598 846.5L1602.3 847.8L1606.5 849.1L1610.7 850.4L1614.9 851.7L1619.1 853.1L1623.3 854.4L1627.5 855.8L1631.7 857.1L1635.8 858.5L1640 859.9L1644.1 861.3L1648.3 862.7L1652.4 864.1L1656.5 865.6L1660.6 867L1664.7 868.5L1668.8 870L1672.8 871.4L1676.9 872.9L1680.9 874.4L1685 875.9L1689 877.5L1693 879L1697 880.6L1701 882.1L1705 883.7L1709 885.3L1712.9 886.8L1716.9 888.4L1720.8 890L1724.7 891.7L1728.7 893.3L1732.6 894.9L1736.4 896.6L1740.3 898.3L1744.2 899.9L1748.1 901.6L1751.9 903.3L1755.7 905L1759.5 906.7L1763.4 908.4L1767.2 910.2L1770.9 911.9L1774.7 913.7L1778.5 915.4L1782.2 917.2L1785.9 919L1789.7 920.8L1793.4 922.6L1797.1 924.4L1800.7 926.2L1804.4 928.1L1808.1 929.9L1811.7 931.8L1815.3 933.6L1819 935.5L1822.6 937.4L1826.1 939.3L1829.7 941.2L1833.3 943.1L1836.8 945L1840.4 947L1843.9 948.9L1847.4 950.9L1850.9 952.8L1854.4 954.8L1857.8 956.8L1861.3 958.8L1864.7 960.8L1868.2 962.8L1871.6 964.8L1875 966.8L1878.3 968.8L1881.7 970.9L1885.1 972.9L1888.4 975L1891.7 977.1L1895 979.1L1898.3 981.2L1901.6 983.3L1904.9 985.4L1908.1 987.5L1911.3 989.7L1914.6 991.8L1917.8 993.9L1920.9 996.1L1924.1 998.2L1927.3 1000.4L1930.4 1002.6L1933.5 1004.8L1936.7 1007L1939.7 1009.2" fill="none" stroke="#282726" stroke-width="1.2"/>
</g>
<circle cx="1120" cy="4150" r="3600" fill="none" stroke="url(#lg6)" stroke-width="2"/>
<circle cx="460" cy="240" r="19" fill="#222120"/>
<path d="M460 221A19 19 0 0 1 460 259A8.6 19 0 0 0 460 221Z" fill="#CF6A4C"/>
</svg>
